<svg width="1173" height="1181" viewBox="0 0 1173 1181" fill="none" xmlns="http://www.w3.org/2000/svg">
<path d="M690.918 1085.62C697.967 1086.47 703.528 1092.03 704.382 1099.08C707.206 1122.41 707.206 1139.59 704.382 1162.92C703.528 1169.97 697.967 1175.53 690.918 1176.38C667.594 1179.21 650.406 1179.21 627.082 1176.38C620.033 1175.53 614.472 1169.97 613.618 1162.92C610.794 1139.59 610.794 1122.41 613.618 1099.08C614.472 1092.03 620.033 1086.47 627.082 1085.62C650.406 1082.79 667.594 1082.79 690.918 1085.62Z" fill="#0085FF" fill-opacity="0.33" stroke="#0085FF" stroke-width="5"/>
<path d="M655.003 1135.09C655.003 1134.41 655.063 1133.95 655.183 1133.71C655.323 1133.47 655.613 1133.35 656.053 1133.35C656.513 1133.35 656.803 1133.48 656.923 1133.74C657.043 1133.98 657.103 1134.43 657.103 1135.09V1139.92C657.103 1140.64 656.753 1141 656.053 1141H643.063H642.373C641.673 1141 641.323 1140.65 641.323 1139.95C641.323 1139.51 641.443 1139.23 641.683 1139.11C641.923 1138.99 642.383 1138.93 643.063 1138.93H644.893V1125.73H643.063C642.383 1125.73 641.923 1125.67 641.683 1125.55C641.443 1125.41 641.323 1125.12 641.323 1124.68C641.323 1124.22 641.443 1123.93 641.683 1123.81C641.943 1123.69 642.403 1123.63 643.063 1123.63H649.663H650.353C651.073 1123.63 651.433 1123.98 651.433 1124.68C651.433 1125.14 651.303 1125.43 651.043 1125.55C650.803 1125.67 650.343 1125.73 649.663 1125.73H647.203V1138.93H655.003V1135.09ZM662.43 1141C661.41 1141 660.9 1140.57 660.9 1139.71C660.9 1139.41 661.02 1139.08 661.26 1138.72C661.5 1138.36 661.76 1138.04 662.04 1137.76C662.32 1137.46 662.81 1136.98 663.51 1136.32C663.79 1136.06 664 1135.86 664.14 1135.72C664.4 1135.48 664.77 1135.14 665.25 1134.7C665.73 1134.24 666.07 1133.91 666.27 1133.71C666.49 1133.51 666.79 1133.22 667.17 1132.84C667.57 1132.46 667.85 1132.18 668.01 1132C668.19 1131.8 668.42 1131.54 668.7 1131.22C669 1130.9 669.21 1130.65 669.33 1130.47C669.47 1130.27 669.62 1130.03 669.78 1129.75C669.96 1129.47 670.08 1129.23 670.14 1129.03C670.22 1128.81 670.29 1128.58 670.35 1128.34C670.41 1128.08 670.44 1127.83 670.44 1127.59C670.44 1126.55 670.14 1125.71 669.54 1125.07C668.94 1124.41 668.17 1124.08 667.23 1124.08C665.87 1124.08 664.83 1124.55 664.11 1125.49L663.84 1126C663.64 1126.32 663.44 1126.54 663.24 1126.66C663.06 1126.78 662.82 1126.84 662.52 1126.84C662.18 1126.84 661.95 1126.72 661.83 1126.48C661.71 1126.24 661.65 1125.85 661.65 1125.31C661.65 1124.77 661.81 1124.34 662.13 1124.02C663.49 1122.7 665.21 1122.04 667.29 1122.04C668.91 1122.04 670.26 1122.56 671.34 1123.6C672.44 1124.64 672.99 1125.93 672.99 1127.47C672.99 1128.03 672.9 1128.59 672.72 1129.15C672.54 1129.69 672.32 1130.18 672.06 1130.62C671.82 1131.04 671.44 1131.54 670.92 1132.12C670.4 1132.7 669.95 1133.18 669.57 1133.56C669.19 1133.94 668.62 1134.49 667.86 1135.21C667.1 1135.93 666.5 1136.51 666.06 1136.95L664.26 1138.69H670.95C671.03 1137.83 671.4 1137.4 672.06 1137.4C672.76 1137.4 673.11 1137.8 673.11 1138.6C673.11 1138.64 673.1 1138.69 673.08 1138.75C673.08 1138.81 673.08 1138.86 673.08 1138.9L672.93 1140.04C672.87 1140.68 672.59 1141 672.09 1141H662.43Z" fill="#0085FF"/>
<path d="M800.918 1085.62C807.967 1086.47 813.528 1092.03 814.382 1099.08C817.206 1122.41 817.206 1139.59 814.382 1162.92C813.528 1169.97 807.967 1175.53 800.918 1176.38C777.594 1179.21 760.406 1179.21 737.082 1176.38C730.033 1175.53 724.472 1169.97 723.618 1162.92C720.794 1139.59 720.794 1122.41 723.618 1099.08C724.472 1092.03 730.033 1086.47 737.082 1085.62C760.406 1082.79 777.594 1082.79 800.918 1085.62Z" fill="#0085FF" fill-opacity="0.33" stroke="#0085FF" stroke-width="5"/>
<path d="M765.003 1135.09C765.003 1134.41 765.063 1133.95 765.183 1133.71C765.323 1133.47 765.613 1133.35 766.053 1133.35C766.513 1133.35 766.803 1133.48 766.923 1133.74C767.043 1133.98 767.103 1134.43 767.103 1135.09V1139.92C767.103 1140.64 766.753 1141 766.053 1141H753.063H752.373C751.673 1141 751.323 1140.65 751.323 1139.95C751.323 1139.51 751.443 1139.23 751.683 1139.11C751.923 1138.99 752.383 1138.93 753.063 1138.93H754.893V1125.73H753.063C752.383 1125.73 751.923 1125.67 751.683 1125.55C751.443 1125.41 751.323 1125.12 751.323 1124.68C751.323 1124.22 751.443 1123.93 751.683 1123.81C751.943 1123.69 752.403 1123.63 753.063 1123.63H759.663H760.353C761.073 1123.63 761.433 1123.98 761.433 1124.68C761.433 1125.14 761.303 1125.43 761.043 1125.55C760.803 1125.67 760.343 1125.73 759.663 1125.73H757.203V1138.93H765.003V1135.09ZM777.17 1141C776.73 1141 776.42 1140.93 776.24 1140.79C776.06 1140.63 775.97 1140.35 775.97 1139.95C775.97 1139.27 776.33 1138.93 777.05 1138.93H778.76V1136.47H771.92C771.4 1136.47 771.14 1136.17 771.14 1135.57V1134.55C771.14 1134.19 771.32 1133.72 771.68 1133.14L777.86 1122.64C778.06 1122.28 778.3 1122.1 778.58 1122.1C778.74 1122.1 778.87 1122.11 778.97 1122.13L780.47 1122.37C780.77 1122.43 780.92 1122.68 780.92 1123.12V1134.25H781.67C781.87 1134.25 782.03 1134.17 782.15 1134.01C782.27 1133.83 782.41 1133.74 782.57 1133.74C782.77 1133.74 782.93 1133.81 783.05 1133.95C783.19 1134.09 783.26 1134.26 783.26 1134.46C783.26 1134.64 783.24 1134.81 783.2 1134.97L783.08 1135.57C783.02 1135.91 782.92 1136.15 782.78 1136.29C782.66 1136.41 782.45 1136.47 782.15 1136.47H780.92V1138.93H781.43C782.03 1138.93 782.45 1139 782.69 1139.14C782.95 1139.28 783.08 1139.55 783.08 1139.95C783.08 1140.65 782.69 1141 781.91 1141H777.17ZM778.76 1134.25V1124.32L773.21 1134.25H778.76Z" fill="#0085FF"/>
<path d="M910.918 1085.62C917.967 1086.47 923.528 1092.03 924.382 1099.08C927.206 1122.41 927.206 1139.59 924.382 1162.92C923.528 1169.97 917.967 1175.53 910.918 1176.38C887.594 1179.21 870.406 1179.21 847.082 1176.38C840.033 1175.53 834.472 1169.97 833.618 1162.92C830.794 1139.59 830.794 1122.41 833.618 1099.08C834.472 1092.03 840.033 1086.47 847.082 1085.62C870.406 1082.79 887.594 1082.79 910.918 1085.62Z" fill="#0085FF" stroke="#0085FF" stroke-width="5"/>
<path d="M875.003 1135.09C875.003 1134.41 875.063 1133.95 875.183 1133.71C875.323 1133.47 875.613 1133.35 876.053 1133.35C876.513 1133.35 876.803 1133.48 876.923 1133.74C877.043 1133.98 877.103 1134.43 877.103 1135.09V1139.92C877.103 1140.64 876.753 1141 876.053 1141H863.063H862.373C861.673 1141 861.323 1140.65 861.323 1139.95C861.323 1139.51 861.443 1139.23 861.683 1139.11C861.923 1138.99 862.383 1138.93 863.063 1138.93H864.893V1125.73H863.063C862.383 1125.73 861.923 1125.67 861.683 1125.55C861.443 1125.41 861.323 1125.12 861.323 1124.68C861.323 1124.22 861.443 1123.93 861.683 1123.81C861.943 1123.69 862.403 1123.63 863.063 1123.63H869.663H870.353C871.073 1123.63 871.433 1123.98 871.433 1124.68C871.433 1125.14 871.303 1125.43 871.043 1125.55C870.803 1125.67 870.343 1125.73 869.663 1125.73H867.203V1138.93H875.003V1135.09ZM884.05 1131.4C885.11 1130.04 886.4 1129.36 887.92 1129.36C889.44 1129.36 890.74 1129.94 891.82 1131.1C892.92 1132.24 893.47 1133.67 893.47 1135.39C893.47 1137.17 892.95 1138.63 891.91 1139.77C890.87 1140.91 889.53 1141.48 887.89 1141.48C885.97 1141.48 884.43 1140.72 883.27 1139.2C882.11 1137.68 881.53 1135.64 881.53 1133.08C881.53 1129.74 882.38 1127.07 884.08 1125.07C885.8 1123.05 888.06 1122.04 890.86 1122.04C891.76 1122.04 892.37 1122.11 892.69 1122.25C893.03 1122.37 893.2 1122.63 893.2 1123.03C893.2 1123.29 893.14 1123.49 893.02 1123.63C892.92 1123.77 892.75 1123.86 892.51 1123.9C892.29 1123.94 892.05 1123.97 891.79 1123.99C891.53 1123.99 891.19 1124 890.77 1124.02C890.37 1124.04 889.99 1124.08 889.63 1124.14C888.11 1124.42 886.86 1125.19 885.88 1126.45C884.92 1127.69 884.31 1129.34 884.05 1131.4ZM884.38 1135.3C884.38 1136.52 884.7 1137.51 885.34 1138.27C885.98 1139.01 886.79 1139.38 887.77 1139.38C888.71 1139.38 889.48 1139.03 890.08 1138.33C890.68 1137.61 890.98 1136.67 890.98 1135.51C890.98 1134.31 890.66 1133.34 890.02 1132.6C889.4 1131.86 888.61 1131.49 887.65 1131.49C886.71 1131.49 885.93 1131.85 885.31 1132.57C884.69 1133.27 884.38 1134.18 884.38 1135.3Z" fill="black"/>
<path d="M311.918 1085.62C318.967 1086.47 324.528 1092.03 325.382 1099.08C328.206 1122.41 328.206 1139.59 325.382 1162.92C324.528 1169.97 318.967 1175.53 311.918 1176.38C288.594 1179.21 271.406 1179.21 248.082 1176.38C241.033 1175.53 235.472 1169.97 234.618 1162.92C231.794 1139.59 231.794 1122.41 234.618 1099.08C235.472 1092.03 241.033 1086.47 248.082 1085.62C271.406 1082.79 288.594 1082.79 311.918 1085.62Z" fill="#0085FF" fill-opacity="0.33" stroke="#0085FF" stroke-width="5"/>
<path d="M276.003 1135.09C276.003 1134.41 276.063 1133.95 276.183 1133.71C276.323 1133.47 276.613 1133.35 277.053 1133.35C277.513 1133.35 277.803 1133.48 277.923 1133.74C278.043 1133.98 278.103 1134.43 278.103 1135.09V1139.92C278.103 1140.64 277.753 1141 277.053 1141H264.063H263.373C262.673 1141 262.323 1140.65 262.323 1139.95C262.323 1139.51 262.443 1139.23 262.683 1139.11C262.923 1138.99 263.383 1138.93 264.063 1138.93H265.893V1125.73H264.063C263.383 1125.73 262.923 1125.67 262.683 1125.55C262.443 1125.41 262.323 1125.12 262.323 1124.68C262.323 1124.22 262.443 1123.93 262.683 1123.81C262.943 1123.69 263.403 1123.63 264.063 1123.63H270.663H271.353C272.073 1123.63 272.433 1123.98 272.433 1124.68C272.433 1125.14 272.303 1125.43 272.043 1125.55C271.803 1125.67 271.343 1125.73 270.663 1125.73H268.203V1138.93H276.003V1135.09ZM285.23 1129.54C286.49 1129.08 287.61 1128.85 288.59 1128.85C290.31 1128.85 291.73 1129.44 292.85 1130.62C293.99 1131.8 294.56 1133.27 294.56 1135.03C294.56 1136.89 293.93 1138.43 292.67 1139.65C291.43 1140.87 289.82 1141.48 287.84 1141.48C286.16 1141.48 284.77 1141.26 283.67 1140.82C282.59 1140.36 282.05 1139.82 282.05 1139.2C282.05 1138.94 282.15 1138.71 282.35 1138.51C282.55 1138.31 282.79 1138.21 283.07 1138.21C283.19 1138.21 283.77 1138.4 284.81 1138.78C285.85 1139.16 286.81 1139.35 287.69 1139.35C289.01 1139.35 290.07 1138.96 290.87 1138.18C291.69 1137.38 292.1 1136.36 292.1 1135.12C292.1 1133.92 291.71 1132.92 290.93 1132.12C290.15 1131.3 289.18 1130.89 288.02 1130.89C287.14 1130.89 286.28 1131.11 285.44 1131.55C284.6 1131.99 284.09 1132.21 283.91 1132.21C283.57 1132.21 283.35 1132.09 283.25 1131.85C283.15 1131.61 283.1 1131.23 283.1 1130.71V1123.42C283.1 1123.08 283.2 1122.85 283.4 1122.73C283.62 1122.59 283.97 1122.52 284.45 1122.52H291.86C292.8 1122.52 293.27 1122.9 293.27 1123.66C293.27 1124.42 292.8 1124.8 291.86 1124.8H285.23V1129.54Z" fill="#0085FF"/>
<path d="M421.918 1085.62C428.967 1086.47 434.528 1092.03 435.382 1099.08C438.206 1122.41 438.206 1139.59 435.382 1162.92C434.528 1169.97 428.967 1175.53 421.918 1176.38C398.594 1179.21 381.406 1179.21 358.082 1176.38C351.033 1175.53 345.472 1169.97 344.618 1162.92C341.794 1139.59 341.794 1122.41 344.618 1099.08C345.472 1092.03 351.033 1086.47 358.082 1085.62C381.406 1082.79 398.594 1082.79 421.918 1085.62Z" fill="#0085FF" fill-opacity="0.33" stroke="#0085FF" stroke-width="5"/>
<path d="M386.003 1135.09C386.003 1134.41 386.063 1133.95 386.183 1133.71C386.323 1133.47 386.613 1133.35 387.053 1133.35C387.513 1133.35 387.803 1133.48 387.923 1133.74C388.043 1133.98 388.103 1134.43 388.103 1135.09V1139.92C388.103 1140.64 387.753 1141 387.053 1141H374.063H373.373C372.673 1141 372.323 1140.65 372.323 1139.95C372.323 1139.51 372.443 1139.23 372.683 1139.11C372.923 1138.99 373.383 1138.93 374.063 1138.93H375.893V1125.73H374.063C373.383 1125.73 372.923 1125.67 372.683 1125.55C372.443 1125.41 372.323 1125.12 372.323 1124.68C372.323 1124.22 372.443 1123.93 372.683 1123.81C372.943 1123.69 373.403 1123.63 374.063 1123.63H380.663H381.353C382.073 1123.63 382.433 1123.98 382.433 1124.68C382.433 1125.14 382.303 1125.43 382.043 1125.55C381.803 1125.67 381.343 1125.73 380.663 1125.73H378.203V1138.93H386.003V1135.09ZM400.81 1130.92C401.97 1131.24 402.86 1131.81 403.48 1132.63C404.1 1133.45 404.41 1134.46 404.41 1135.66C404.41 1137.34 403.81 1138.73 402.61 1139.83C401.41 1140.93 399.84 1141.48 397.9 1141.48C396.38 1141.48 395.05 1141.2 393.91 1140.64C392.77 1140.06 392.2 1139.43 392.2 1138.75C392.2 1138.45 392.3 1138.21 392.5 1138.03C392.72 1137.83 392.98 1137.73 393.28 1137.73C393.44 1137.73 394.04 1137.98 395.08 1138.48C396.12 1138.98 397.09 1139.23 397.99 1139.23C399.17 1139.23 400.12 1138.9 400.84 1138.24C401.56 1137.56 401.92 1136.7 401.92 1135.66C401.92 1134.78 401.67 1134.04 401.17 1133.44C400.67 1132.84 399.98 1132.46 399.1 1132.3C398.86 1132.26 398.59 1132.23 398.29 1132.21C398.01 1132.19 397.79 1132.17 397.63 1132.15C397.49 1132.13 397.34 1132.09 397.18 1132.03C397.04 1131.97 396.94 1131.88 396.88 1131.76C396.84 1131.62 396.82 1131.42 396.82 1131.16C396.82 1130.98 396.83 1130.84 396.85 1130.74C396.89 1130.62 396.93 1130.53 396.97 1130.47C397.03 1130.39 397.12 1130.33 397.24 1130.29C397.38 1130.25 397.5 1130.22 397.6 1130.2C397.7 1130.18 397.87 1130.16 398.11 1130.14C398.37 1130.12 398.6 1130.09 398.8 1130.05C399.56 1129.93 400.17 1129.62 400.63 1129.12C401.11 1128.6 401.35 1127.98 401.35 1127.26C401.35 1126.32 401.06 1125.56 400.48 1124.98C399.92 1124.38 399.2 1124.08 398.32 1124.08C397.5 1124.08 396.65 1124.34 395.77 1124.86C394.89 1125.38 394.35 1125.64 394.15 1125.64C393.87 1125.64 393.64 1125.55 393.46 1125.37C393.28 1125.19 393.19 1124.97 393.19 1124.71C393.19 1124.15 393.72 1123.57 394.78 1122.97C395.86 1122.35 397.09 1122.04 398.47 1122.04C400.01 1122.04 401.28 1122.51 402.28 1123.45C403.28 1124.37 403.78 1125.5 403.78 1126.84C403.78 1128.86 402.79 1130.22 400.81 1130.92Z" fill="#0085FF"/>
<path d="M531.918 1085.62C538.967 1086.47 544.528 1092.03 545.382 1099.08C548.206 1122.41 548.206 1139.59 545.382 1162.92C544.528 1169.97 538.967 1175.53 531.918 1176.38C508.594 1179.21 491.406 1179.21 468.082 1176.38C461.033 1175.53 455.472 1169.97 454.618 1162.92C451.794 1139.59 451.794 1122.41 454.618 1099.08C455.472 1092.03 461.033 1086.47 468.082 1085.62C491.406 1082.79 508.594 1082.79 531.918 1085.62Z" fill="#0085FF" fill-opacity="0.33" stroke="#0085FF" stroke-width="5"/>
<path d="M496.003 1135.09C496.003 1134.41 496.063 1133.95 496.183 1133.71C496.323 1133.47 496.613 1133.35 497.053 1133.35C497.513 1133.35 497.803 1133.48 497.923 1133.74C498.043 1133.98 498.103 1134.43 498.103 1135.09V1139.92C498.103 1140.64 497.753 1141 497.053 1141H484.063H483.373C482.673 1141 482.323 1140.65 482.323 1139.95C482.323 1139.51 482.443 1139.23 482.683 1139.11C482.923 1138.99 483.383 1138.93 484.063 1138.93H485.893V1125.73H484.063C483.383 1125.73 482.923 1125.67 482.683 1125.55C482.443 1125.41 482.323 1125.12 482.323 1124.68C482.323 1124.22 482.443 1123.93 482.683 1123.81C482.943 1123.69 483.403 1123.63 484.063 1123.63H490.663H491.353C492.073 1123.63 492.433 1123.98 492.433 1124.68C492.433 1125.14 492.303 1125.43 492.043 1125.55C491.803 1125.67 491.343 1125.73 490.663 1125.73H488.203V1138.93H496.003V1135.09ZM505.02 1125.28C504.82 1125.32 504.67 1125.34 504.57 1125.34C504.25 1125.34 504 1125.26 503.82 1125.1C503.64 1124.92 503.55 1124.69 503.55 1124.41C503.55 1123.91 503.87 1123.57 504.51 1123.39L508.86 1122.22C509.1 1122.16 509.31 1122.13 509.49 1122.13C509.89 1122.13 510.09 1122.45 510.09 1123.09V1138.93H512.43C513.21 1138.93 513.74 1138.99 514.02 1139.11C514.3 1139.23 514.44 1139.51 514.44 1139.95C514.44 1140.65 514.05 1141 513.27 1141H504.51C503.73 1141 503.34 1140.65 503.34 1139.95C503.34 1139.51 503.48 1139.23 503.76 1139.11C504.04 1138.99 504.57 1138.93 505.35 1138.93H507.78V1124.62L505.02 1125.28Z" fill="#0085FF"/>
<path d="M690.918 715.618C697.967 716.472 703.528 722.033 704.382 729.082C707.206 752.406 707.206 769.594 704.382 792.918C703.528 799.967 697.967 805.528 690.918 806.382C667.594 809.206 650.406 809.206 627.082 806.382C620.033 805.528 614.472 799.967 613.618 792.918C610.794 769.594 610.794 752.406 613.618 729.082C614.472 722.033 620.033 716.472 627.082 715.618C650.406 712.794 667.594 712.794 690.918 715.618Z" stroke="#0085FF" stroke-opacity="0.33" stroke-width="5"/>
<path d="M800.918 715.618C807.967 716.472 813.528 722.033 814.382 729.082C817.206 752.406 817.206 769.594 814.382 792.918C813.528 799.967 807.967 805.528 800.918 806.382C777.594 809.206 760.406 809.206 737.082 806.382C730.033 805.528 724.472 799.967 723.618 792.918C720.794 769.594 720.794 752.406 723.618 729.082C724.472 722.033 730.033 716.472 737.082 715.618C760.406 712.794 777.594 712.794 800.918 715.618Z" stroke="#0085FF" stroke-opacity="0.33" stroke-width="5"/>
<path d="M910.918 715.618C917.967 716.472 923.528 722.033 924.382 729.082C927.206 752.406 927.206 769.594 924.382 792.918C923.528 799.967 917.967 805.528 910.918 806.382C887.594 809.206 870.406 809.206 847.082 806.382C840.033 805.528 834.472 799.967 833.618 792.918C830.794 769.594 830.794 752.406 833.618 729.082C834.472 722.033 840.033 716.472 847.082 715.618C870.406 712.794 887.594 712.794 910.918 715.618Z" stroke="#0085FF" stroke-opacity="0.33" stroke-width="5"/>
<path d="M1020.92 715.618C1027.97 716.472 1033.53 722.033 1034.38 729.082C1037.21 752.406 1037.21 769.594 1034.38 792.918C1033.53 799.967 1027.97 805.528 1020.92 806.382C997.594 809.206 980.406 809.206 957.082 806.382C950.033 805.528 944.472 799.967 943.618 792.918C940.794 769.594 940.794 752.406 943.618 729.082C944.472 722.033 950.033 716.472 957.082 715.618C980.406 712.794 997.594 712.794 1020.92 715.618Z" stroke="#0085FF" stroke-opacity="0.33" stroke-width="5"/>
<path d="M1130.92 715.618C1137.97 716.472 1143.53 722.033 1144.38 729.082C1147.21 752.406 1147.21 769.594 1144.38 792.918C1143.53 799.967 1137.97 805.528 1130.92 806.382C1107.59 809.206 1090.41 809.206 1067.08 806.382C1060.03 805.528 1054.47 799.967 1053.62 792.918C1050.79 769.594 1050.79 752.406 1053.62 729.082C1054.47 722.033 1060.03 716.472 1067.08 715.618C1090.41 712.794 1107.59 712.794 1130.92 715.618Z" stroke="#0085FF" stroke-opacity="0.33" stroke-width="5"/>
<path d="M690.918 825.618C697.967 826.472 703.528 832.033 704.382 839.082C707.206 862.406 707.206 879.594 704.382 902.918C703.528 909.967 697.967 915.528 690.918 916.382C667.594 919.206 650.406 919.206 627.082 916.382C620.033 915.528 614.472 909.967 613.618 902.918C610.794 879.594 610.794 862.406 613.618 839.082C614.472 832.033 620.033 826.472 627.082 825.618C650.406 822.794 667.594 822.794 690.918 825.618Z" stroke="#0085FF" stroke-opacity="0.33" stroke-width="5"/>
<path d="M816.864 838.782C815.872 830.59 809.41 824.128 801.218 823.136C777.695 820.288 760.305 820.288 736.782 823.136C728.59 824.128 722.128 830.59 721.136 838.782C718.288 862.305 718.288 879.695 721.136 903.218C722.128 911.41 728.59 917.872 736.782 918.864C760.305 921.712 777.695 921.712 801.218 918.864C809.41 917.872 815.872 911.41 816.864 903.218C819.712 879.695 819.712 862.305 816.864 838.782Z" fill="#0085FF" fill-opacity="0.33"/>
<path d="M800.918 825.618C807.967 826.472 813.528 832.033 814.382 839.082C817.206 862.406 817.206 879.594 814.382 902.918C813.528 909.967 807.967 915.528 800.918 916.382C777.594 919.206 760.406 919.206 737.082 916.382C730.033 915.528 724.472 909.967 723.618 902.918C720.794 879.594 720.794 862.406 723.618 839.082C724.472 832.033 730.033 826.472 737.082 825.618C760.406 822.794 777.594 822.794 800.918 825.618Z" stroke="#0085FF" stroke-opacity="0.33" stroke-width="5"/>
<path d="M755.08 864.11C755.28 863.63 755.64 863.39 756.16 863.39C756.64 863.39 756.94 863.5 757.06 863.72C757.18 863.92 757.24 864.3 757.24 864.86C757.24 865.52 757.24 866.14 757.24 866.72C757.26 867.28 757.27 867.71 757.27 868.01C757.29 868.31 757.3 868.47 757.3 868.49C757.3 868.91 757.23 869.21 757.09 869.39C756.95 869.57 756.67 869.66 756.25 869.66C756.01 869.66 755.81 869.64 755.65 869.6C755.49 869.56 755.36 869.47 755.26 869.33C755.18 869.17 755.12 869.04 755.08 868.94C755.06 868.82 755.02 868.61 754.96 868.31C754.9 868.01 754.85 867.78 754.81 867.62C754.63 866.92 754.19 866.34 753.49 865.88C752.79 865.4 751.96 865.16 751 865.16C749.26 865.16 747.87 865.79 746.83 867.05C745.79 868.31 745.27 870.07 745.27 872.33C745.27 874.41 745.81 876.07 746.89 877.31C747.99 878.53 749.38 879.14 751.06 879.14C752.2 879.14 753.35 878.82 754.51 878.18C754.75 878.04 755.02 877.86 755.32 877.64C755.62 877.42 755.86 877.26 756.04 877.16C756.24 877.04 756.42 876.98 756.58 876.98C756.9 876.98 757.16 877.08 757.36 877.28C757.56 877.48 757.66 877.73 757.66 878.03C757.66 878.55 757.11 879.16 756.01 879.86C754.41 880.9 752.72 881.42 750.94 881.42C748.54 881.42 746.55 880.57 744.97 878.87C743.39 877.17 742.6 874.99 742.6 872.33C742.6 869.71 743.39 867.53 744.97 865.79C746.57 864.05 748.58 863.18 751 863.18C752.26 863.18 753.62 863.49 755.08 864.11ZM768.537 873.8L771.657 864.62C771.897 863.96 772.427 863.63 773.247 863.63H775.677C776.317 863.63 776.637 863.96 776.637 864.62C776.637 865 776.527 865.26 776.307 865.4C776.107 865.54 775.747 865.61 775.227 865.61H774.987L775.407 878.93C775.407 878.93 775.567 878.93 775.887 878.93C776.427 878.93 776.797 879 776.997 879.14C777.217 879.28 777.327 879.55 777.327 879.95C777.327 880.65 776.987 881 776.307 881H772.197C771.657 881 771.277 880.93 771.057 880.79C770.837 880.65 770.727 880.37 770.727 879.95C770.727 879.55 770.857 879.28 771.117 879.14C771.397 879 771.857 878.93 772.497 878.93H773.127L772.797 866.33L769.917 874.76C769.777 875.16 769.597 875.44 769.377 875.6C769.157 875.76 768.837 875.84 768.417 875.84C768.017 875.84 767.707 875.76 767.487 875.6C767.267 875.44 767.087 875.16 766.947 874.76L764.007 866.33L763.737 878.93C763.957 878.91 764.287 878.9 764.727 878.9C765.287 878.9 765.687 878.98 765.927 879.14C766.167 879.3 766.287 879.57 766.287 879.95C766.287 880.37 766.177 880.65 765.957 880.79C765.737 880.93 765.357 881 764.817 881H760.707C760.027 881 759.687 880.65 759.687 879.95C759.687 879.55 759.787 879.28 759.987 879.14C760.207 879 760.587 878.93 761.127 878.93H761.607L762.027 865.61H761.787C761.267 865.61 760.897 865.54 760.677 865.4C760.477 865.26 760.377 865 760.377 864.62C760.377 863.96 760.697 863.63 761.337 863.63H763.737C764.557 863.63 765.087 863.96 765.327 864.62L768.537 873.8ZM783.043 881H780.733C780.733 881 780.513 881 780.073 881C779.353 881 778.993 880.65 778.993 879.95C778.993 879.55 779.093 879.28 779.293 879.14C779.513 879 779.873 878.93 780.373 878.93H780.763V865.73C780.763 865.73 780.643 865.73 780.403 865.73C779.903 865.73 779.543 865.66 779.323 865.52C779.103 865.36 778.993 865.08 778.993 864.68C778.993 864.22 779.113 863.93 779.353 863.81C779.613 863.69 780.073 863.63 780.733 863.63H783.043H786.283C788.703 863.63 790.633 864.41 792.073 865.97C793.533 867.53 794.263 869.65 794.263 872.33C794.263 875.01 793.453 877.19 791.833 878.87C790.433 880.33 788.193 881.06 785.113 881.06C784.913 881.06 784.583 881.05 784.123 881.03C783.663 881.01 783.303 881 783.043 881ZM783.043 878.93C783.683 878.99 784.293 879.02 784.873 879.02C787.273 879.02 789.033 878.48 790.153 877.4C791.273 876.32 791.833 874.63 791.833 872.33C791.833 869.99 791.263 868.3 790.123 867.26C789.003 866.2 787.213 865.67 784.753 865.67C784.013 865.67 783.443 865.69 783.043 865.73V878.93Z" fill="#0085FF"/>
<path d="M926.864 838.782C925.872 830.59 919.41 824.128 911.218 823.136C887.695 820.288 870.305 820.288 846.782 823.136C838.59 824.128 832.128 830.59 831.136 838.782C828.288 862.305 828.288 879.695 831.136 903.218C832.128 911.41 838.59 917.872 846.782 918.864C870.305 921.712 887.695 921.712 911.218 918.864C919.41 917.872 925.872 911.41 926.864 903.218C929.712 879.695 929.712 862.305 926.864 838.782Z" fill="#0085FF" fill-opacity="0.33"/>
<path d="M910.918 825.618C917.967 826.472 923.528 832.033 924.382 839.082C927.206 862.406 927.206 879.594 924.382 902.918C923.528 909.967 917.967 915.528 910.918 916.382C887.594 919.206 870.406 919.206 847.082 916.382C840.033 915.528 834.472 909.967 833.618 902.918C830.794 879.594 830.794 862.406 833.618 839.082C834.472 832.033 840.033 826.472 847.082 825.618C870.406 822.794 887.594 822.794 910.918 825.618Z" stroke="#0085FF" stroke-opacity="0.33" stroke-width="5"/>
<path d="M856.62 877.52C857.58 878.76 858.86 879.38 860.46 879.38C862.06 879.38 863.34 878.76 864.3 877.52C865.26 876.28 865.74 874.54 865.74 872.3C865.74 870.06 865.26 868.32 864.3 867.08C863.34 865.84 862.06 865.22 860.46 865.22C858.82 865.22 857.53 865.84 856.59 867.08C855.65 868.3 855.18 870.04 855.18 872.3C855.18 874.54 855.66 876.28 856.62 877.52ZM866.13 865.73C867.63 867.43 868.38 869.62 868.38 872.3C868.38 874.98 867.63 877.18 866.13 878.9C864.65 880.6 862.76 881.45 860.46 881.45C858.18 881.45 856.29 880.59 854.79 878.87C853.29 877.15 852.54 874.96 852.54 872.3C852.54 869.6 853.28 867.4 854.76 865.7C856.24 864 858.14 863.15 860.46 863.15C862.76 863.15 864.65 864.01 866.13 865.73ZM879.107 878.93C880.007 878.93 880.457 879.27 880.457 879.95C880.457 880.37 880.347 880.65 880.127 880.79C879.907 880.93 879.527 881 878.987 881H871.817C871.137 881 870.797 880.65 870.797 879.95C870.797 879.27 871.147 878.93 871.847 878.93H873.737V865.73H872.717C871.977 865.73 871.467 865.67 871.187 865.55C870.927 865.43 870.797 865.14 870.797 864.68C870.797 863.98 871.137 863.63 871.817 863.63H878.597C883.437 863.63 885.857 865.44 885.857 869.06C885.857 872.66 883.437 874.46 878.597 874.46H876.047V878.93H879.107ZM876.047 865.73V872.54H878.747C881.827 872.54 883.367 871.4 883.367 869.12C883.367 866.86 881.827 865.73 878.747 865.73H876.047ZM891.063 869.54C891.043 870.22 890.963 870.68 890.823 870.92C890.703 871.14 890.403 871.25 889.923 871.25C889.243 871.25 888.903 870.89 888.903 870.17C888.903 870.01 888.913 869.78 888.933 869.48L889.083 864.65C889.103 863.97 889.473 863.63 890.193 863.63H902.913C903.633 863.63 904.003 863.97 904.023 864.65L904.173 869.48C904.173 869.58 904.173 869.68 904.173 869.78C904.173 869.86 904.173 869.93 904.173 869.99C904.193 870.03 904.203 870.07 904.203 870.11C904.203 870.15 904.203 870.18 904.203 870.2C904.203 870.9 903.863 871.25 903.183 871.25C902.703 871.25 902.393 871.14 902.253 870.92C902.133 870.68 902.063 870.22 902.043 869.54L901.893 865.73H897.693V878.93H899.943H900.513C901.293 878.93 901.683 879.27 901.683 879.95C901.683 880.65 901.343 881 900.663 881H892.443C891.763 881 891.423 880.65 891.423 879.95C891.423 879.57 891.513 879.31 891.693 879.17C891.893 879.01 892.223 878.93 892.683 878.93H893.163H895.383V865.73H891.183L891.063 869.54Z" fill="#0085FF"/>
<path d="M1036.86 838.782C1035.87 830.59 1029.41 824.128 1021.22 823.136C997.695 820.288 980.305 820.288 956.782 823.136C948.59 824.128 942.128 830.59 941.136 838.782C938.288 862.305 938.288 879.695 941.136 903.218C942.128 911.41 948.59 917.872 956.782 918.864C980.305 921.712 997.695 921.712 1021.22 918.864C1029.41 917.872 1035.87 911.41 1036.86 903.218C1039.71 879.695 1039.71 862.305 1036.86 838.782Z" fill="#0085FF" fill-opacity="0.33"/>
<path d="M1020.92 825.618C1027.97 826.472 1033.53 832.033 1034.38 839.082C1037.21 862.406 1037.21 879.594 1034.38 902.918C1033.53 909.967 1027.97 915.528 1020.92 916.382C997.594 919.206 980.406 919.206 957.082 916.382C950.033 915.528 944.472 909.967 943.618 902.918C940.794 879.594 940.794 862.406 943.618 839.082C944.472 832.033 950.033 826.472 957.082 825.618C980.406 822.794 997.594 822.794 1020.92 825.618Z" stroke="#0085FF" stroke-opacity="0.33" stroke-width="5"/>
<path d="M975.08 864.11C975.28 863.63 975.64 863.39 976.16 863.39C976.64 863.39 976.94 863.5 977.06 863.72C977.18 863.92 977.24 864.3 977.24 864.86C977.24 865.52 977.24 866.14 977.24 866.72C977.26 867.28 977.27 867.71 977.27 868.01C977.29 868.31 977.3 868.47 977.3 868.49C977.3 868.91 977.23 869.21 977.09 869.39C976.95 869.57 976.67 869.66 976.25 869.66C976.01 869.66 975.81 869.64 975.65 869.6C975.49 869.56 975.36 869.47 975.26 869.33C975.18 869.17 975.12 869.04 975.08 868.94C975.06 868.82 975.02 868.61 974.96 868.31C974.9 868.01 974.85 867.78 974.81 867.62C974.63 866.92 974.19 866.34 973.49 865.88C972.79 865.4 971.96 865.16 971 865.16C969.26 865.16 967.87 865.79 966.83 867.05C965.79 868.31 965.27 870.07 965.27 872.33C965.27 874.41 965.81 876.07 966.89 877.31C967.99 878.53 969.38 879.14 971.06 879.14C972.2 879.14 973.35 878.82 974.51 878.18C974.75 878.04 975.02 877.86 975.32 877.64C975.62 877.42 975.86 877.26 976.04 877.16C976.24 877.04 976.42 876.98 976.58 876.98C976.9 876.98 977.16 877.08 977.36 877.28C977.56 877.48 977.66 877.73 977.66 878.03C977.66 878.55 977.11 879.16 976.01 879.86C974.41 880.9 972.72 881.42 970.94 881.42C968.54 881.42 966.55 880.57 964.97 878.87C963.39 877.17 962.6 874.99 962.6 872.33C962.6 869.71 963.39 867.53 964.97 865.79C966.57 864.05 968.58 863.18 971 863.18C972.26 863.18 973.62 863.49 975.08 864.11ZM983.017 869.54C982.997 870.22 982.917 870.68 982.777 870.92C982.657 871.14 982.357 871.25 981.877 871.25C981.197 871.25 980.857 870.89 980.857 870.17C980.857 870.01 980.867 869.78 980.887 869.48L981.037 864.65C981.057 863.97 981.427 863.63 982.147 863.63H994.867C995.587 863.63 995.957 863.97 995.977 864.65L996.127 869.48C996.127 869.58 996.127 869.68 996.127 869.78C996.127 869.86 996.127 869.93 996.127 869.99C996.147 870.03 996.157 870.07 996.157 870.11C996.157 870.15 996.157 870.18 996.157 870.2C996.157 870.9 995.817 871.25 995.137 871.25C994.657 871.25 994.347 871.14 994.207 870.92C994.087 870.68 994.017 870.22 993.997 869.54L993.847 865.73H989.647V878.93H991.897H992.467C993.247 878.93 993.637 879.27 993.637 879.95C993.637 880.65 993.297 881 992.617 881H984.397C983.717 881 983.377 880.65 983.377 879.95C983.377 879.57 983.467 879.31 983.647 879.17C983.847 879.01 984.177 878.93 984.637 878.93H985.117H987.337V865.73H983.137L983.017 869.54ZM1012.07 875.09C1012.07 874.41 1012.13 873.95 1012.25 873.71C1012.39 873.47 1012.68 873.35 1013.12 873.35C1013.58 873.35 1013.87 873.48 1013.99 873.74C1014.11 873.98 1014.17 874.43 1014.17 875.09V879.92C1014.17 880.64 1013.82 881 1013.12 881H1000.13H999.443C998.743 881 998.393 880.65 998.393 879.95C998.393 879.51 998.513 879.23 998.753 879.11C998.993 878.99 999.453 878.93 1000.13 878.93H1001.96V865.73H1000.13C999.453 865.73 998.993 865.67 998.753 865.55C998.513 865.41 998.393 865.12 998.393 864.68C998.393 864.22 998.513 863.93 998.753 863.81C999.013 863.69 999.473 863.63 1000.13 863.63H1006.73H1007.42C1008.14 863.63 1008.5 863.98 1008.5 864.68C1008.5 865.14 1008.37 865.43 1008.11 865.55C1007.87 865.67 1007.41 865.73 1006.73 865.73H1004.27V878.93H1012.07V875.09Z" fill="#0085FF"/>
<path d="M1146.86 838.782C1145.87 830.59 1139.41 824.128 1131.22 823.136C1107.69 820.288 1090.31 820.288 1066.78 823.136C1058.59 824.128 1052.13 830.59 1051.14 838.782C1048.29 862.305 1048.29 879.695 1051.14 903.218C1052.13 911.41 1058.59 917.872 1066.78 918.864C1090.31 921.712 1107.69 921.712 1131.22 918.864C1139.41 917.872 1145.87 911.41 1146.86 903.218C1149.71 879.695 1149.71 862.305 1146.86 838.782Z" fill="#0085FF" fill-opacity="0.33"/>
<path d="M1130.92 825.618C1137.97 826.472 1143.53 832.033 1144.38 839.082C1147.21 862.406 1147.21 879.594 1144.38 902.918C1143.53 909.967 1137.97 915.528 1130.92 916.382C1107.59 919.206 1090.41 919.206 1067.08 916.382C1060.03 915.528 1054.47 909.967 1053.62 902.918C1050.79 879.594 1050.79 862.406 1053.62 839.082C1054.47 832.033 1060.03 826.472 1067.08 825.618C1090.41 822.794 1107.59 822.794 1130.92 825.618Z" stroke="#0085FF" stroke-opacity="0.33" stroke-width="5"/>
<path d="M1076.17 880.49C1076.13 880.93 1076.02 881.23 1075.84 881.39C1075.68 881.57 1075.4 881.66 1075 881.66C1074.22 881.66 1073.8 881.15 1073.74 880.13L1073.56 876.74V876.44C1073.56 876 1073.64 875.68 1073.8 875.48C1073.96 875.28 1074.26 875.18 1074.7 875.18C1075.08 875.18 1075.35 875.27 1075.51 875.45C1075.69 875.63 1075.84 875.95 1075.96 876.41C1076.1 876.87 1076.22 877.2 1076.32 877.4C1077.02 878.82 1078.44 879.53 1080.58 879.53C1081.86 879.53 1082.89 879.23 1083.67 878.63C1084.45 878.03 1084.84 877.27 1084.84 876.35C1084.84 874.79 1083.89 873.87 1081.99 873.59L1079.83 873.29C1077.85 873.01 1076.38 872.49 1075.42 871.73C1074.48 870.95 1074.01 869.84 1074.01 868.4C1074.01 866.92 1074.62 865.67 1075.84 864.65C1077.08 863.63 1078.63 863.12 1080.49 863.12C1081.53 863.12 1082.77 863.41 1084.21 863.99C1084.21 863.71 1084.28 863.52 1084.42 863.42C1084.56 863.3 1084.8 863.24 1085.14 863.24C1085.64 863.24 1085.95 863.32 1086.07 863.48C1086.21 863.62 1086.3 863.91 1086.34 864.35L1086.55 867.41V867.56C1086.55 868.28 1086.18 868.64 1085.44 868.64C1085.08 868.64 1084.82 868.55 1084.66 868.37C1084.5 868.19 1084.35 867.91 1084.21 867.53C1084.09 867.13 1083.96 866.83 1083.82 866.63C1083.12 865.61 1081.97 865.1 1080.37 865.1C1079.17 865.1 1078.2 865.4 1077.46 866C1076.74 866.58 1076.38 867.34 1076.38 868.28C1076.38 869.74 1077.5 870.62 1079.74 870.92L1082.08 871.22C1085.52 871.68 1087.24 873.3 1087.24 876.08C1087.24 877.7 1086.62 879.01 1085.38 880.01C1084.16 881.01 1082.53 881.51 1080.49 881.51C1079.13 881.51 1077.69 881.17 1076.17 880.49ZM1098.39 878.93C1098.39 878.93 1098.58 878.93 1098.96 878.93C1099.74 878.93 1100.13 879.27 1100.13 879.95C1100.13 880.65 1099.79 881 1099.11 881H1091.88C1091.2 881 1090.86 880.65 1090.86 879.95C1090.86 879.57 1090.95 879.31 1091.13 879.17C1091.33 879.01 1091.66 878.93 1092.12 878.93H1092.6H1093.53V865.73H1092.6C1092.6 865.73 1092.41 865.73 1092.03 865.73C1091.25 865.73 1090.86 865.38 1090.86 864.68C1090.86 863.98 1091.2 863.63 1091.88 863.63H1104.84C1105.52 863.63 1105.86 864.02 1105.86 864.8V868.58C1105.86 869.26 1105.52 869.6 1104.84 869.6C1104.46 869.6 1104.19 869.5 1104.03 869.3C1103.87 869.1 1103.79 868.77 1103.79 868.31C1103.79 868.31 1103.79 868.15 1103.79 867.83V865.73H1095.84V870.68H1099.71C1099.71 870.68 1099.71 870.55 1099.71 870.29C1099.71 869.63 1099.77 869.17 1099.89 868.91C1100.01 868.63 1100.26 868.49 1100.64 868.49C1101.24 868.49 1101.54 868.88 1101.54 869.66V873.38C1101.54 873.84 1101.47 874.17 1101.33 874.37C1101.21 874.57 1100.98 874.67 1100.64 874.67C1100.26 874.67 1100.01 874.54 1099.89 874.28C1099.77 874 1099.71 873.53 1099.71 872.87V872.45H1095.84V878.93H1098.39ZM1111.06 869.54C1111.04 870.22 1110.96 870.68 1110.82 870.92C1110.7 871.14 1110.4 871.25 1109.92 871.25C1109.24 871.25 1108.9 870.89 1108.9 870.17C1108.9 870.01 1108.91 869.78 1108.93 869.48L1109.08 864.65C1109.1 863.97 1109.47 863.63 1110.19 863.63H1122.91C1123.63 863.63 1124 863.97 1124.02 864.65L1124.17 869.48C1124.17 869.58 1124.17 869.68 1124.17 869.78C1124.17 869.86 1124.17 869.93 1124.17 869.99C1124.19 870.03 1124.2 870.07 1124.2 870.11C1124.2 870.15 1124.2 870.18 1124.2 870.2C1124.2 870.9 1123.86 871.25 1123.18 871.25C1122.7 871.25 1122.39 871.14 1122.25 870.92C1122.13 870.68 1122.06 870.22 1122.04 869.54L1121.89 865.73H1117.69V878.93H1119.94H1120.51C1121.29 878.93 1121.68 879.27 1121.68 879.95C1121.68 880.65 1121.34 881 1120.66 881H1112.44C1111.76 881 1111.42 880.65 1111.42 879.95C1111.42 879.57 1111.51 879.31 1111.69 879.17C1111.89 879.01 1112.22 878.93 1112.68 878.93H1113.16H1115.38V865.73H1111.18L1111.06 869.54Z" fill="#0085FF"/>
<path d="M690.918 935.618C697.967 936.472 703.528 942.033 704.382 949.082C707.206 972.406 707.206 989.594 704.382 1012.92C703.528 1019.97 697.967 1025.53 690.918 1026.38C667.594 1029.21 650.406 1029.21 627.082 1026.38C620.033 1025.53 614.472 1019.97 613.618 1012.92C610.794 989.594 610.794 972.406 613.618 949.082C614.472 942.033 620.033 936.472 627.082 935.618C650.406 932.794 667.594 932.794 690.918 935.618Z" stroke="#0085FF" stroke-opacity="0.33" stroke-width="5"/>
<path d="M800.918 935.618C807.967 936.472 813.528 942.033 814.382 949.082C817.206 972.406 817.206 989.594 814.382 1012.92C813.528 1019.97 807.967 1025.53 800.918 1026.38C777.594 1029.21 760.406 1029.21 737.082 1026.38C730.033 1025.53 724.472 1019.97 723.618 1012.92C720.794 989.594 720.794 972.406 723.618 949.082C724.472 942.033 730.033 936.472 737.082 935.618C760.406 932.794 777.594 932.794 800.918 935.618Z" stroke="#0085FF" stroke-opacity="0.33" stroke-width="5"/>
<path d="M910.918 935.618C917.967 936.472 923.528 942.033 924.382 949.082C927.206 972.406 927.206 989.594 924.382 1012.92C923.528 1019.97 917.967 1025.53 910.918 1026.38C887.594 1029.21 870.406 1029.21 847.082 1026.38C840.033 1025.53 834.472 1019.97 833.618 1012.92C830.794 989.594 830.794 972.406 833.618 949.082C834.472 942.033 840.033 936.472 847.082 935.618C870.406 932.794 887.594 932.794 910.918 935.618Z" stroke="#0085FF" stroke-opacity="0.33" stroke-width="5"/>
<path d="M1020.92 935.618C1027.97 936.472 1033.53 942.033 1034.38 949.082C1037.21 972.406 1037.21 989.594 1034.38 1012.92C1033.53 1019.97 1027.97 1025.53 1020.92 1026.38C997.594 1029.21 980.406 1029.21 957.082 1026.38C950.033 1025.53 944.472 1019.97 943.618 1012.92C940.794 989.594 940.794 972.406 943.618 949.082C944.472 942.033 950.033 936.472 957.082 935.618C980.406 932.794 997.594 932.794 1020.92 935.618Z" stroke="#0085FF" stroke-opacity="0.33" stroke-width="5"/>
<path d="M1130.92 935.618C1137.97 936.472 1143.53 942.033 1144.38 949.082C1147.21 972.406 1147.21 989.594 1144.38 1012.92C1143.53 1019.97 1137.97 1025.53 1130.92 1026.38C1107.59 1029.21 1090.41 1029.21 1067.08 1026.38C1060.03 1025.53 1054.47 1019.97 1053.62 1012.92C1050.79 989.594 1050.79 972.406 1053.62 949.082C1054.47 942.033 1060.03 936.472 1067.08 935.618C1090.41 932.794 1107.59 932.794 1130.92 935.618Z" stroke="#0085FF" stroke-opacity="0.33" stroke-width="5"/>
<path d="M90.9179 715.618C97.9671 716.472 103.528 722.033 104.382 729.082C107.206 752.406 107.206 769.594 104.382 792.918C103.528 799.967 97.9671 805.528 90.9179 806.382C67.5937 809.206 50.4063 809.206 27.0821 806.382C20.0329 805.528 14.4717 799.967 13.6181 792.918C10.794 769.594 10.794 752.406 13.6181 729.082C14.4717 722.033 20.0329 716.472 27.0821 715.618C50.4063 712.794 67.5937 712.794 90.9179 715.618Z" stroke="#0085FF" stroke-opacity="0.33" stroke-width="5"/>
<path d="M200.918 715.618C207.967 716.472 213.528 722.033 214.382 729.082C217.206 752.406 217.206 769.594 214.382 792.918C213.528 799.967 207.967 805.528 200.918 806.382C177.594 809.206 160.406 809.206 137.082 806.382C130.033 805.528 124.472 799.967 123.618 792.918C120.794 769.594 120.794 752.406 123.618 729.082C124.472 722.033 130.033 716.472 137.082 715.618C160.406 712.794 177.594 712.794 200.918 715.618Z" stroke="#0085FF" stroke-opacity="0.33" stroke-width="5"/>
<path d="M310.918 715.618C317.967 716.472 323.528 722.033 324.382 729.082C327.206 752.406 327.206 769.594 324.382 792.918C323.528 799.967 317.967 805.528 310.918 806.382C287.594 809.206 270.406 809.206 247.082 806.382C240.033 805.528 234.472 799.967 233.618 792.918C230.794 769.594 230.794 752.406 233.618 729.082C234.472 722.033 240.033 716.472 247.082 715.618C270.406 712.794 287.594 712.794 310.918 715.618Z" stroke="#0085FF" stroke-opacity="0.33" stroke-width="5"/>
<path d="M420.918 715.618C427.967 716.472 433.528 722.033 434.382 729.082C437.206 752.406 437.206 769.594 434.382 792.918C433.528 799.967 427.967 805.528 420.918 806.382C397.594 809.206 380.406 809.206 357.082 806.382C350.033 805.528 344.472 799.967 343.618 792.918C340.794 769.594 340.794 752.406 343.618 729.082C344.472 722.033 350.033 716.472 357.082 715.618C380.406 712.794 397.594 712.794 420.918 715.618Z" stroke="#0085FF" stroke-opacity="0.33" stroke-width="5"/>
<path d="M530.918 715.618C537.967 716.472 543.528 722.033 544.382 729.082C547.206 752.406 547.206 769.594 544.382 792.918C543.528 799.967 537.967 805.528 530.918 806.382C507.594 809.206 490.406 809.206 467.082 806.382C460.033 805.528 454.472 799.967 453.618 792.918C450.794 769.594 450.794 752.406 453.618 729.082C454.472 722.033 460.033 716.472 467.082 715.618C490.406 712.794 507.594 712.794 530.918 715.618Z" stroke="#0085FF" stroke-opacity="0.33" stroke-width="5"/>
<path d="M106.864 838.782C105.872 830.59 99.4102 824.128 91.2184 823.136C67.6946 820.288 50.3054 820.288 26.7816 823.136C18.5898 824.128 12.1282 830.59 11.1363 838.782C8.28791 862.305 8.28791 879.695 11.1363 903.218C12.1282 911.41 18.5898 917.872 26.7816 918.864C50.3054 921.712 67.6946 921.712 91.2184 918.864C99.4102 917.872 105.872 911.41 106.864 903.218C109.712 879.695 109.712 862.305 106.864 838.782Z" fill="#0085FF" fill-opacity="0.33"/>
<path d="M90.9179 825.618C97.9671 826.472 103.528 832.033 104.382 839.082C107.206 862.406 107.206 879.594 104.382 902.918C103.528 909.967 97.9671 915.528 90.9179 916.382C67.5937 919.206 50.4063 919.206 27.0821 916.382C20.0329 915.528 14.4717 909.967 13.6181 902.918C10.794 879.594 10.794 862.406 13.6181 839.082C14.4717 832.033 20.0329 826.472 27.0821 825.618C50.4063 822.794 67.5937 822.794 90.9179 825.618Z" stroke="#0085FF" stroke-opacity="0.33" stroke-width="5"/>
<path d="M36.1697 880.49C36.1297 880.93 36.0197 881.23 35.8397 881.39C35.6797 881.57 35.3997 881.66 34.9997 881.66C34.2197 881.66 33.7997 881.15 33.7397 880.13L33.5597 876.74V876.44C33.5597 876 33.6397 875.68 33.7997 875.48C33.9597 875.28 34.2597 875.18 34.6997 875.18C35.0797 875.18 35.3497 875.27 35.5097 875.45C35.6897 875.63 35.8397 875.95 35.9597 876.41C36.0997 876.87 36.2197 877.2 36.3197 877.4C37.0197 878.82 38.4397 879.53 40.5797 879.53C41.8597 879.53 42.8897 879.23 43.6697 878.63C44.4497 878.03 44.8397 877.27 44.8397 876.35C44.8397 874.79 43.8897 873.87 41.9897 873.59L39.8297 873.29C37.8497 873.01 36.3797 872.49 35.4197 871.73C34.4797 870.95 34.0097 869.84 34.0097 868.4C34.0097 866.92 34.6197 865.67 35.8397 864.65C37.0797 863.63 38.6297 863.12 40.4897 863.12C41.5297 863.12 42.7697 863.41 44.2097 863.99C44.2097 863.71 44.2797 863.52 44.4197 863.42C44.5597 863.3 44.7997 863.24 45.1397 863.24C45.6397 863.24 45.9497 863.32 46.0697 863.48C46.2097 863.62 46.2997 863.91 46.3397 864.35L46.5497 867.41V867.56C46.5497 868.28 46.1797 868.64 45.4397 868.64C45.0797 868.64 44.8197 868.55 44.6597 868.37C44.4997 868.19 44.3497 867.91 44.2097 867.53C44.0897 867.13 43.9597 866.83 43.8197 866.63C43.1197 865.61 41.9697 865.1 40.3697 865.1C39.1697 865.1 38.1997 865.4 37.4597 866C36.7397 866.58 36.3797 867.34 36.3797 868.28C36.3797 869.74 37.4997 870.62 39.7397 870.92L42.0797 871.22C45.5197 871.68 47.2397 873.3 47.2397 876.08C47.2397 877.7 46.6197 879.01 45.3797 880.01C44.1597 881.01 42.5297 881.51 40.4897 881.51C39.1297 881.51 37.6897 881.17 36.1697 880.49ZM58.3866 878.93C58.3866 878.93 58.5766 878.93 58.9566 878.93C59.7366 878.93 60.1266 879.27 60.1266 879.95C60.1266 880.65 59.7866 881 59.1066 881H51.8766C51.1966 881 50.8566 880.65 50.8566 879.95C50.8566 879.57 50.9466 879.31 51.1266 879.17C51.3266 879.01 51.6566 878.93 52.1166 878.93H52.5966H53.5266V865.73H52.5966C52.5966 865.73 52.4066 865.73 52.0266 865.73C51.2466 865.73 50.8566 865.38 50.8566 864.68C50.8566 863.98 51.1966 863.63 51.8766 863.63H64.8366C65.5166 863.63 65.8566 864.02 65.8566 864.8V868.58C65.8566 869.26 65.5166 869.6 64.8366 869.6C64.4566 869.6 64.1866 869.5 64.0266 869.3C63.8666 869.1 63.7866 868.77 63.7866 868.31C63.7866 868.31 63.7866 868.15 63.7866 867.83V865.73H55.8366V870.68H59.7066C59.7066 870.68 59.7066 870.55 59.7066 870.29C59.7066 869.63 59.7666 869.17 59.8866 868.91C60.0066 868.63 60.2566 868.49 60.6366 868.49C61.2366 868.49 61.5366 868.88 61.5366 869.66V873.38C61.5366 873.84 61.4666 874.17 61.3266 874.37C61.2066 874.57 60.9766 874.67 60.6366 874.67C60.2566 874.67 60.0066 874.54 59.8866 874.28C59.7666 874 59.7066 873.53 59.7066 872.87V872.45H55.8366V878.93H58.3866ZM71.0634 869.54C71.0434 870.22 70.9634 870.68 70.8234 870.92C70.7034 871.14 70.4034 871.25 69.9234 871.25C69.2434 871.25 68.9034 870.89 68.9034 870.17C68.9034 870.01 68.9134 869.78 68.9334 869.48L69.0834 864.65C69.1034 863.97 69.4734 863.63 70.1934 863.63H82.9134C83.6334 863.63 84.0034 863.97 84.0234 864.65L84.1734 869.48C84.1734 869.58 84.1734 869.68 84.1734 869.78C84.1734 869.86 84.1734 869.93 84.1734 869.99C84.1934 870.03 84.2034 870.07 84.2034 870.11C84.2034 870.15 84.2034 870.18 84.2034 870.2C84.2034 870.9 83.8634 871.25 83.1834 871.25C82.7034 871.25 82.3934 871.14 82.2534 870.92C82.1334 870.68 82.0634 870.22 82.0434 869.54L81.8934 865.73H77.6934V878.93H79.9434H80.5134C81.2934 878.93 81.6834 879.27 81.6834 879.95C81.6834 880.65 81.3434 881 80.6634 881H72.4434C71.7634 881 71.4234 880.65 71.4234 879.95C71.4234 879.57 71.5134 879.31 71.6934 879.17C71.8934 879.01 72.2234 878.93 72.6834 878.93H73.1634H75.3834V865.73H71.1834L71.0634 869.54Z" fill="#0085FF"/>
<path d="M216.864 838.782C215.872 830.59 209.41 824.128 201.218 823.136C177.695 820.288 160.305 820.288 136.782 823.136C128.59 824.128 122.128 830.59 121.136 838.782C118.288 862.305 118.288 879.695 121.136 903.218C122.128 911.41 128.59 917.872 136.782 918.864C160.305 921.712 177.695 921.712 201.218 918.864C209.41 917.872 215.872 911.41 216.864 903.218C219.712 879.695 219.712 862.305 216.864 838.782Z" fill="#0085FF" fill-opacity="0.33"/>
<path d="M200.918 825.618C207.967 826.472 213.528 832.033 214.382 839.082C217.206 862.406 217.206 879.594 214.382 902.918C213.528 909.967 207.967 915.528 200.918 916.382C177.594 919.206 160.406 919.206 137.082 916.382C130.033 915.528 124.472 909.967 123.618 902.918C120.794 879.594 120.794 862.406 123.618 839.082C124.472 832.033 130.033 826.472 137.082 825.618C160.406 822.794 177.594 822.794 200.918 825.618Z" stroke="#0085FF" stroke-opacity="0.33" stroke-width="5"/>
<path d="M155.08 864.11C155.28 863.63 155.64 863.39 156.16 863.39C156.64 863.39 156.94 863.5 157.06 863.72C157.18 863.92 157.24 864.3 157.24 864.86C157.24 865.52 157.24 866.14 157.24 866.72C157.26 867.28 157.27 867.71 157.27 868.01C157.29 868.31 157.3 868.47 157.3 868.49C157.3 868.91 157.23 869.21 157.09 869.39C156.95 869.57 156.67 869.66 156.25 869.66C156.01 869.66 155.81 869.64 155.65 869.6C155.49 869.56 155.36 869.47 155.26 869.33C155.18 869.17 155.12 869.04 155.08 868.94C155.06 868.82 155.02 868.61 154.96 868.31C154.9 868.01 154.85 867.78 154.81 867.62C154.63 866.92 154.19 866.34 153.49 865.88C152.79 865.4 151.96 865.16 151 865.16C149.26 865.16 147.87 865.79 146.83 867.05C145.79 868.31 145.27 870.07 145.27 872.33C145.27 874.41 145.81 876.07 146.89 877.31C147.99 878.53 149.38 879.14 151.06 879.14C152.2 879.14 153.35 878.82 154.51 878.18C154.75 878.04 155.02 877.86 155.32 877.64C155.62 877.42 155.86 877.26 156.04 877.16C156.24 877.04 156.42 876.98 156.58 876.98C156.9 876.98 157.16 877.08 157.36 877.28C157.56 877.48 157.66 877.73 157.66 878.03C157.66 878.55 157.11 879.16 156.01 879.86C154.41 880.9 152.72 881.42 150.94 881.42C148.54 881.42 146.55 880.57 144.97 878.87C143.39 877.17 142.6 874.99 142.6 872.33C142.6 869.71 143.39 867.53 144.97 865.79C146.57 864.05 148.58 863.18 151 863.18C152.26 863.18 153.62 863.49 155.08 864.11ZM163.017 869.54C162.997 870.22 162.917 870.68 162.777 870.92C162.657 871.14 162.357 871.25 161.877 871.25C161.197 871.25 160.857 870.89 160.857 870.17C160.857 870.01 160.867 869.78 160.887 869.48L161.037 864.65C161.057 863.97 161.427 863.63 162.147 863.63H174.867C175.587 863.63 175.957 863.97 175.977 864.65L176.127 869.48C176.127 869.58 176.127 869.68 176.127 869.78C176.127 869.86 176.127 869.93 176.127 869.99C176.147 870.03 176.157 870.07 176.157 870.11C176.157 870.15 176.157 870.18 176.157 870.2C176.157 870.9 175.817 871.25 175.137 871.25C174.657 871.25 174.347 871.14 174.207 870.92C174.087 870.68 174.017 870.22 173.997 869.54L173.847 865.73H169.647V878.93H171.897H172.467C173.247 878.93 173.637 879.27 173.637 879.95C173.637 880.65 173.297 881 172.617 881H164.397C163.717 881 163.377 880.65 163.377 879.95C163.377 879.57 163.467 879.31 163.647 879.17C163.847 879.01 164.177 878.93 164.637 878.93H165.117H167.337V865.73H163.137L163.017 869.54ZM192.073 875.09C192.073 874.41 192.133 873.95 192.253 873.71C192.393 873.47 192.683 873.35 193.123 873.35C193.583 873.35 193.873 873.48 193.993 873.74C194.113 873.98 194.173 874.43 194.173 875.09V879.92C194.173 880.64 193.823 881 193.123 881H180.133H179.443C178.743 881 178.393 880.65 178.393 879.95C178.393 879.51 178.513 879.23 178.753 879.11C178.993 878.99 179.453 878.93 180.133 878.93H181.963V865.73H180.133C179.453 865.73 178.993 865.67 178.753 865.55C178.513 865.41 178.393 865.12 178.393 864.68C178.393 864.22 178.513 863.93 178.753 863.81C179.013 863.69 179.473 863.63 180.133 863.63H186.733H187.423C188.143 863.63 188.503 863.98 188.503 864.68C188.503 865.14 188.373 865.43 188.113 865.55C187.873 865.67 187.413 865.73 186.733 865.73H184.273V878.93H192.073V875.09Z" fill="#0085FF"/>
<path d="M326.864 838.782C325.872 830.59 319.41 824.128 311.218 823.136C287.695 820.288 270.305 820.288 246.782 823.136C238.59 824.128 232.128 830.59 231.136 838.782C228.288 862.305 228.288 879.695 231.136 903.218C232.128 911.41 238.59 917.872 246.782 918.864C270.305 921.712 287.695 921.712 311.218 918.864C319.41 917.872 325.872 911.41 326.864 903.218C329.712 879.695 329.712 862.305 326.864 838.782Z" fill="#0085FF" fill-opacity="0.33"/>
<path d="M310.918 825.618C317.967 826.472 323.528 832.033 324.382 839.082C327.206 862.406 327.206 879.594 324.382 902.918C323.528 909.967 317.967 915.528 310.918 916.382C287.594 919.206 270.406 919.206 247.082 916.382C240.033 915.528 234.472 909.967 233.618 902.918C230.794 879.594 230.794 862.406 233.618 839.082C234.472 832.033 240.033 826.472 247.082 825.618C270.406 822.794 287.594 822.794 310.918 825.618Z" stroke="#0085FF" stroke-opacity="0.33" stroke-width="5"/>
<path d="M256.62 877.52C257.58 878.76 258.86 879.38 260.46 879.38C262.06 879.38 263.34 878.76 264.3 877.52C265.26 876.28 265.74 874.54 265.74 872.3C265.74 870.06 265.26 868.32 264.3 867.08C263.34 865.84 262.06 865.22 260.46 865.22C258.82 865.22 257.53 865.84 256.59 867.08C255.65 868.3 255.18 870.04 255.18 872.3C255.18 874.54 255.66 876.28 256.62 877.52ZM266.13 865.73C267.63 867.43 268.38 869.62 268.38 872.3C268.38 874.98 267.63 877.18 266.13 878.9C264.65 880.6 262.76 881.45 260.46 881.45C258.18 881.45 256.29 880.59 254.79 878.87C253.29 877.15 252.54 874.96 252.54 872.3C252.54 869.6 253.28 867.4 254.76 865.7C256.24 864 258.14 863.15 260.46 863.15C262.76 863.15 264.65 864.01 266.13 865.73ZM279.107 878.93C280.007 878.93 280.457 879.27 280.457 879.95C280.457 880.37 280.347 880.65 280.127 880.79C279.907 880.93 279.527 881 278.987 881H271.817C271.137 881 270.797 880.65 270.797 879.95C270.797 879.27 271.147 878.93 271.847 878.93H273.737V865.73H272.717C271.977 865.73 271.467 865.67 271.187 865.55C270.927 865.43 270.797 865.14 270.797 864.68C270.797 863.98 271.137 863.63 271.817 863.63H278.597C283.437 863.63 285.857 865.44 285.857 869.06C285.857 872.66 283.437 874.46 278.597 874.46H276.047V878.93H279.107ZM276.047 865.73V872.54H278.747C281.827 872.54 283.367 871.4 283.367 869.12C283.367 866.86 281.827 865.73 278.747 865.73H276.047ZM291.063 869.54C291.043 870.22 290.963 870.68 290.823 870.92C290.703 871.14 290.403 871.25 289.923 871.25C289.243 871.25 288.903 870.89 288.903 870.17C288.903 870.01 288.913 869.78 288.933 869.48L289.083 864.65C289.103 863.97 289.473 863.63 290.193 863.63H302.913C303.633 863.63 304.003 863.97 304.023 864.65L304.173 869.48C304.173 869.58 304.173 869.68 304.173 869.78C304.173 869.86 304.173 869.93 304.173 869.99C304.193 870.03 304.203 870.07 304.203 870.11C304.203 870.15 304.203 870.18 304.203 870.2C304.203 870.9 303.863 871.25 303.183 871.25C302.703 871.25 302.393 871.14 302.253 870.92C302.133 870.68 302.063 870.22 302.043 869.54L301.893 865.73H297.693V878.93H299.943H300.513C301.293 878.93 301.683 879.27 301.683 879.95C301.683 880.65 301.343 881 300.663 881H292.443C291.763 881 291.423 880.65 291.423 879.95C291.423 879.57 291.513 879.31 291.693 879.17C291.893 879.01 292.223 878.93 292.683 878.93H293.163H295.383V865.73H291.183L291.063 869.54Z" fill="#0085FF"/>
<path d="M436.864 838.782C435.872 830.59 429.41 824.128 421.218 823.136C397.695 820.288 380.305 820.288 356.782 823.136C348.59 824.128 342.128 830.59 341.136 838.782C338.288 862.305 338.288 879.695 341.136 903.218C342.128 911.41 348.59 917.872 356.782 918.864C380.305 921.712 397.695 921.712 421.218 918.864C429.41 917.872 435.872 911.41 436.864 903.218C439.712 879.695 439.712 862.305 436.864 838.782Z" fill="#0085FF" fill-opacity="0.33"/>
<path d="M420.918 825.618C427.967 826.472 433.528 832.033 434.382 839.082C437.206 862.406 437.206 879.594 434.382 902.918C433.528 909.967 427.967 915.528 420.918 916.382C397.594 919.206 380.406 919.206 357.082 916.382C350.033 915.528 344.472 909.967 343.618 902.918C340.794 879.594 340.794 862.406 343.618 839.082C344.472 832.033 350.033 826.472 357.082 825.618C380.406 822.794 397.594 822.794 420.918 825.618Z" stroke="#0085FF" stroke-opacity="0.33" stroke-width="5"/>
<path d="M375.08 864.11C375.28 863.63 375.64 863.39 376.16 863.39C376.64 863.39 376.94 863.5 377.06 863.72C377.18 863.92 377.24 864.3 377.24 864.86C377.24 865.52 377.24 866.14 377.24 866.72C377.26 867.28 377.27 867.71 377.27 868.01C377.29 868.31 377.3 868.47 377.3 868.49C377.3 868.91 377.23 869.21 377.09 869.39C376.95 869.57 376.67 869.66 376.25 869.66C376.01 869.66 375.81 869.64 375.65 869.6C375.49 869.56 375.36 869.47 375.26 869.33C375.18 869.17 375.12 869.04 375.08 868.94C375.06 868.82 375.02 868.61 374.96 868.31C374.9 868.01 374.85 867.78 374.81 867.62C374.63 866.92 374.19 866.34 373.49 865.88C372.79 865.4 371.96 865.16 371 865.16C369.26 865.16 367.87 865.79 366.83 867.05C365.79 868.31 365.27 870.07 365.27 872.33C365.27 874.41 365.81 876.07 366.89 877.31C367.99 878.53 369.38 879.14 371.06 879.14C372.2 879.14 373.35 878.82 374.51 878.18C374.75 878.04 375.02 877.86 375.32 877.64C375.62 877.42 375.86 877.26 376.04 877.16C376.24 877.04 376.42 876.98 376.58 876.98C376.9 876.98 377.16 877.08 377.36 877.28C377.56 877.48 377.66 877.73 377.66 878.03C377.66 878.55 377.11 879.16 376.01 879.86C374.41 880.9 372.72 881.42 370.94 881.42C368.54 881.42 366.55 880.57 364.97 878.87C363.39 877.17 362.6 874.99 362.6 872.33C362.6 869.71 363.39 867.53 364.97 865.79C366.57 864.05 368.58 863.18 371 863.18C372.26 863.18 373.62 863.49 375.08 864.11ZM388.537 873.8L391.657 864.62C391.897 863.96 392.427 863.63 393.247 863.63H395.677C396.317 863.63 396.637 863.96 396.637 864.62C396.637 865 396.527 865.26 396.307 865.4C396.107 865.54 395.747 865.61 395.227 865.61H394.987L395.407 878.93C395.407 878.93 395.567 878.93 395.887 878.93C396.427 878.93 396.797 879 396.997 879.14C397.217 879.28 397.327 879.55 397.327 879.95C397.327 880.65 396.987 881 396.307 881H392.197C391.657 881 391.277 880.93 391.057 880.79C390.837 880.65 390.727 880.37 390.727 879.95C390.727 879.55 390.857 879.28 391.117 879.14C391.397 879 391.857 878.93 392.497 878.93H393.127L392.797 866.33L389.917 874.76C389.777 875.16 389.597 875.44 389.377 875.6C389.157 875.76 388.837 875.84 388.417 875.84C388.017 875.84 387.707 875.76 387.487 875.6C387.267 875.44 387.087 875.16 386.947 874.76L384.007 866.33L383.737 878.93C383.957 878.91 384.287 878.9 384.727 878.9C385.287 878.9 385.687 878.98 385.927 879.14C386.167 879.3 386.287 879.57 386.287 879.95C386.287 880.37 386.177 880.65 385.957 880.79C385.737 880.93 385.357 881 384.817 881H380.707C380.027 881 379.687 880.65 379.687 879.95C379.687 879.55 379.787 879.28 379.987 879.14C380.207 879 380.587 878.93 381.127 878.93H381.607L382.027 865.61H381.787C381.267 865.61 380.897 865.54 380.677 865.4C380.477 865.26 380.377 865 380.377 864.62C380.377 863.96 380.697 863.63 381.337 863.63H383.737C384.557 863.63 385.087 863.96 385.327 864.62L388.537 873.8ZM403.043 881H400.733C400.733 881 400.513 881 400.073 881C399.353 881 398.993 880.65 398.993 879.95C398.993 879.55 399.093 879.28 399.293 879.14C399.513 879 399.873 878.93 400.373 878.93H400.763V865.73C400.763 865.73 400.643 865.73 400.403 865.73C399.903 865.73 399.543 865.66 399.323 865.52C399.103 865.36 398.993 865.08 398.993 864.68C398.993 864.22 399.113 863.93 399.353 863.81C399.613 863.69 400.073 863.63 400.733 863.63H403.043H406.283C408.703 863.63 410.633 864.41 412.073 865.97C413.533 867.53 414.263 869.65 414.263 872.33C414.263 875.01 413.453 877.19 411.833 878.87C410.433 880.33 408.193 881.06 405.113 881.06C404.913 881.06 404.583 881.05 404.123 881.03C403.663 881.01 403.303 881 403.043 881ZM403.043 878.93C403.683 878.99 404.293 879.02 404.873 879.02C407.273 879.02 409.033 878.48 410.153 877.4C411.273 876.32 411.833 874.63 411.833 872.33C411.833 869.99 411.263 868.3 410.123 867.26C409.003 866.2 407.213 865.67 404.753 865.67C404.013 865.67 403.443 865.69 403.043 865.73V878.93Z" fill="#0085FF"/>
<path d="M530.918 825.618C537.967 826.472 543.528 832.033 544.382 839.082C547.206 862.406 547.206 879.594 544.382 902.918C543.528 909.967 537.967 915.528 530.918 916.382C507.594 919.206 490.406 919.206 467.082 916.382C460.033 915.528 454.472 909.967 453.618 902.918C450.794 879.594 450.794 862.406 453.618 839.082C454.472 832.033 460.033 826.472 467.082 825.618C490.406 822.794 507.594 822.794 530.918 825.618Z" stroke="#0085FF" stroke-opacity="0.33" stroke-width="5"/>
<path d="M90.9179 935.618C97.9671 936.472 103.528 942.033 104.382 949.082C107.206 972.406 107.206 989.594 104.382 1012.92C103.528 1019.97 97.9671 1025.53 90.9179 1026.38C67.5937 1029.21 50.4063 1029.21 27.0821 1026.38C20.0329 1025.53 14.4717 1019.97 13.6181 1012.92C10.794 989.594 10.794 972.406 13.6181 949.082C14.4717 942.033 20.0329 936.472 27.0821 935.618C50.4063 932.794 67.5937 932.794 90.9179 935.618Z" stroke="#0085FF" stroke-opacity="0.33" stroke-width="5"/>
<path d="M200.918 935.618C207.967 936.472 213.528 942.033 214.382 949.082C217.206 972.406 217.206 989.594 214.382 1012.92C213.528 1019.97 207.967 1025.53 200.918 1026.38C177.594 1029.21 160.406 1029.21 137.082 1026.38C130.033 1025.53 124.472 1019.97 123.618 1012.92C120.794 989.594 120.794 972.406 123.618 949.082C124.472 942.033 130.033 936.472 137.082 935.618C160.406 932.794 177.594 932.794 200.918 935.618Z" stroke="#0085FF" stroke-opacity="0.33" stroke-width="5"/>
<path d="M310.918 935.618C317.967 936.472 323.528 942.033 324.382 949.082C327.206 972.406 327.206 989.594 324.382 1012.92C323.528 1019.97 317.967 1025.53 310.918 1026.38C287.594 1029.21 270.406 1029.21 247.082 1026.38C240.033 1025.53 234.472 1019.97 233.618 1012.92C230.794 989.594 230.794 972.406 233.618 949.082C234.472 942.033 240.033 936.472 247.082 935.618C270.406 932.794 287.594 932.794 310.918 935.618Z" stroke="#0085FF" stroke-opacity="0.33" stroke-width="5"/>
<path d="M420.918 935.618C427.967 936.472 433.528 942.033 434.382 949.082C437.206 972.406 437.206 989.594 434.382 1012.92C433.528 1019.97 427.967 1025.53 420.918 1026.38C397.594 1029.21 380.406 1029.21 357.082 1026.38C350.033 1025.53 344.472 1019.97 343.618 1012.92C340.794 989.594 340.794 972.406 343.618 949.082C344.472 942.033 350.033 936.472 357.082 935.618C380.406 932.794 397.594 932.794 420.918 935.618Z" stroke="#0085FF" stroke-opacity="0.33" stroke-width="5"/>
<path d="M530.918 935.618C537.967 936.472 543.528 942.033 544.382 949.082C547.206 972.406 547.206 989.594 544.382 1012.92C543.528 1019.97 537.967 1025.53 530.918 1026.38C507.594 1029.21 490.406 1029.21 467.082 1026.38C460.033 1025.53 454.472 1019.97 453.618 1012.92C450.794 989.594 450.794 972.406 453.618 949.082C454.472 942.033 460.033 936.472 467.082 935.618C490.406 932.794 507.594 932.794 530.918 935.618Z" stroke="#0085FF" stroke-opacity="0.33" stroke-width="5"/>
<path d="M690.918 535.618C697.967 536.472 703.528 542.033 704.382 549.082C707.206 572.406 707.206 589.594 704.382 612.918C703.528 619.967 697.967 625.528 690.918 626.382C667.594 629.206 650.406 629.206 627.082 626.382C620.033 625.528 614.472 619.967 613.618 612.918C610.794 589.594 610.794 572.406 613.618 549.082C614.472 542.033 620.033 536.472 627.082 535.618C650.406 532.794 667.594 532.794 690.918 535.618Z" stroke="#0085FF" stroke-opacity="0.33" stroke-width="5"/>
<path d="M800.918 535.618C807.967 536.472 813.528 542.033 814.382 549.082C817.206 572.406 817.206 589.594 814.382 612.918C813.528 619.967 807.967 625.528 800.918 626.382C777.594 629.206 760.406 629.206 737.082 626.382C730.033 625.528 724.472 619.967 723.618 612.918C720.794 589.594 720.794 572.406 723.618 549.082C724.472 542.033 730.033 536.472 737.082 535.618C760.406 532.794 777.594 532.794 800.918 535.618Z" stroke="#0085FF" stroke-opacity="0.33" stroke-width="5"/>
<path d="M926.864 548.782C925.872 540.59 919.41 534.128 911.218 533.136C887.695 530.288 870.305 530.288 846.782 533.136C838.59 534.128 832.128 540.59 831.136 548.782C828.288 572.305 828.288 589.695 831.136 613.218C832.128 621.41 838.59 627.872 846.782 628.864C870.305 631.712 887.695 631.712 911.218 628.864C919.41 627.872 925.872 621.41 926.864 613.218C929.712 589.695 929.712 572.305 926.864 548.782Z" fill="#0085FF"/>
<path d="M910.918 535.618C917.967 536.472 923.528 542.033 924.382 549.082C927.206 572.406 927.206 589.594 924.382 612.918C923.528 619.967 917.967 625.528 910.918 626.382C887.594 629.206 870.406 629.206 847.082 626.382C840.033 625.528 834.472 619.967 833.618 612.918C830.794 589.594 830.794 572.406 833.618 549.082C834.472 542.033 840.033 536.472 847.082 535.618C870.406 532.794 887.594 532.794 910.918 535.618Z" stroke="#0085FF" stroke-opacity="0.33" stroke-width="5"/>
<path d="M875.003 585.09C875.003 584.41 875.063 583.95 875.183 583.71C875.323 583.47 875.613 583.35 876.053 583.35C876.513 583.35 876.803 583.48 876.923 583.74C877.043 583.98 877.103 584.43 877.103 585.09V589.92C877.103 590.64 876.753 591 876.053 591H863.063H862.373C861.673 591 861.323 590.65 861.323 589.95C861.323 589.51 861.443 589.23 861.683 589.11C861.923 588.99 862.383 588.93 863.063 588.93H864.893V575.73H863.063C862.383 575.73 861.923 575.67 861.683 575.55C861.443 575.41 861.323 575.12 861.323 574.68C861.323 574.22 861.443 573.93 861.683 573.81C861.943 573.69 862.403 573.63 863.063 573.63H869.663H870.353C871.073 573.63 871.433 573.98 871.433 574.68C871.433 575.14 871.303 575.43 871.043 575.55C870.803 575.67 870.343 575.73 869.663 575.73H867.203V588.93H875.003V585.09ZM884.05 581.4C885.11 580.04 886.4 579.36 887.92 579.36C889.44 579.36 890.74 579.94 891.82 581.1C892.92 582.24 893.47 583.67 893.47 585.39C893.47 587.17 892.95 588.63 891.91 589.77C890.87 590.91 889.53 591.48 887.89 591.48C885.97 591.48 884.43 590.72 883.27 589.2C882.11 587.68 881.53 585.64 881.53 583.08C881.53 579.74 882.38 577.07 884.08 575.07C885.8 573.05 888.06 572.04 890.86 572.04C891.76 572.04 892.37 572.11 892.69 572.25C893.03 572.37 893.2 572.63 893.2 573.03C893.2 573.29 893.14 573.49 893.02 573.63C892.92 573.77 892.75 573.86 892.51 573.9C892.29 573.94 892.05 573.97 891.79 573.99C891.53 573.99 891.19 574 890.77 574.02C890.37 574.04 889.99 574.08 889.63 574.14C888.11 574.42 886.86 575.19 885.88 576.45C884.92 577.69 884.31 579.34 884.05 581.4ZM884.38 585.3C884.38 586.52 884.7 587.51 885.34 588.27C885.98 589.01 886.79 589.38 887.77 589.38C888.71 589.38 889.48 589.03 890.08 588.33C890.68 587.61 890.98 586.67 890.98 585.51C890.98 584.31 890.66 583.34 890.02 582.6C889.4 581.86 888.61 581.49 887.65 581.49C886.71 581.49 885.93 581.85 885.31 582.57C884.69 583.27 884.38 584.18 884.38 585.3Z" fill="black"/>
<path d="M311.918 535.618C318.967 536.472 324.528 542.033 325.382 549.082C328.206 572.406 328.206 589.594 325.382 612.918C324.528 619.967 318.967 625.528 311.918 626.382C288.594 629.206 271.406 629.206 248.082 626.382C241.033 625.528 235.472 619.967 234.618 612.918C231.794 589.594 231.794 572.406 234.618 549.082C235.472 542.033 241.033 536.472 248.082 535.618C271.406 532.794 288.594 532.794 311.918 535.618Z" stroke="#0085FF" stroke-width="5"/>
<path d="M421.918 535.618C428.967 536.472 434.528 542.033 435.382 549.082C438.206 572.406 438.206 589.594 435.382 612.918C434.528 619.967 428.967 625.528 421.918 626.382C398.594 629.206 381.406 629.206 358.082 626.382C351.033 625.528 345.472 619.967 344.618 612.918C341.794 589.594 341.794 572.406 344.618 549.082C345.472 542.033 351.033 536.472 358.082 535.618C381.406 532.794 398.594 532.794 421.918 535.618Z" stroke="#0085FF" stroke-width="5"/>
<path d="M531.918 535.618C538.967 536.472 544.528 542.033 545.382 549.082C548.206 572.406 548.206 589.594 545.382 612.918C544.528 619.967 538.967 625.528 531.918 626.382C508.594 629.206 491.406 629.206 468.082 626.382C461.033 625.528 455.472 619.967 454.618 612.918C451.794 589.594 451.794 572.406 454.618 549.082C455.472 542.033 461.033 536.472 468.082 535.618C491.406 532.794 508.594 532.794 531.918 535.618Z" stroke="#0085FF" stroke-width="5"/>
<path d="M690.918 165.618C697.967 166.472 703.528 172.033 704.382 179.082C707.206 202.406 707.206 219.594 704.382 242.918C703.528 249.967 697.967 255.528 690.918 256.382C667.594 259.206 650.406 259.206 627.082 256.382C620.033 255.528 614.472 249.967 613.618 242.918C610.794 219.594 610.794 202.406 613.618 179.082C614.472 172.033 620.033 166.472 627.082 165.618C650.406 162.794 667.594 162.794 690.918 165.618Z" stroke="#0085FF" stroke-opacity="0.33" stroke-width="5"/>
<path d="M800.918 165.618C807.967 166.472 813.528 172.033 814.382 179.082C817.206 202.406 817.206 219.594 814.382 242.918C813.528 249.967 807.967 255.528 800.918 256.382C777.594 259.206 760.406 259.206 737.082 256.382C730.033 255.528 724.472 249.967 723.618 242.918C720.794 219.594 720.794 202.406 723.618 179.082C724.472 172.033 730.033 166.472 737.082 165.618C760.406 162.794 777.594 162.794 800.918 165.618Z" stroke="#0085FF" stroke-opacity="0.33" stroke-width="5"/>
<path d="M910.918 165.618C917.967 166.472 923.528 172.033 924.382 179.082C927.206 202.406 927.206 219.594 924.382 242.918C923.528 249.967 917.967 255.528 910.918 256.382C887.594 259.206 870.406 259.206 847.082 256.382C840.033 255.528 834.472 249.967 833.618 242.918C830.794 219.594 830.794 202.406 833.618 179.082C834.472 172.033 840.033 166.472 847.082 165.618C870.406 162.794 887.594 162.794 910.918 165.618Z" stroke="#0085FF" stroke-opacity="0.33" stroke-width="5"/>
<path d="M1020.92 165.618C1027.97 166.472 1033.53 172.033 1034.38 179.082C1037.21 202.406 1037.21 219.594 1034.38 242.918C1033.53 249.967 1027.97 255.528 1020.92 256.382C997.594 259.206 980.406 259.206 957.082 256.382C950.033 255.528 944.472 249.967 943.618 242.918C940.794 219.594 940.794 202.406 943.618 179.082C944.472 172.033 950.033 166.472 957.082 165.618C980.406 162.794 997.594 162.794 1020.92 165.618Z" stroke="#0085FF" stroke-opacity="0.33" stroke-width="5"/>
<path d="M1130.92 165.618C1137.97 166.472 1143.53 172.033 1144.38 179.082C1147.21 202.406 1147.21 219.594 1144.38 242.918C1143.53 249.967 1137.97 255.528 1130.92 256.382C1107.59 259.206 1090.41 259.206 1067.08 256.382C1060.03 255.528 1054.47 249.967 1053.62 242.918C1050.79 219.594 1050.79 202.406 1053.62 179.082C1054.47 172.033 1060.03 166.472 1067.08 165.618C1090.41 162.794 1107.59 162.794 1130.92 165.618Z" stroke="#0085FF" stroke-opacity="0.33" stroke-width="5"/>
<path d="M690.918 275.618C697.967 276.472 703.528 282.033 704.382 289.082C707.206 312.406 707.206 329.594 704.382 352.918C703.528 359.967 697.967 365.528 690.918 366.382C667.594 369.206 650.406 369.206 627.082 366.382C620.033 365.528 614.472 359.967 613.618 352.918C610.794 329.594 610.794 312.406 613.618 289.082C614.472 282.033 620.033 276.472 627.082 275.618C650.406 272.794 667.594 272.794 690.918 275.618Z" stroke="#0085FF" stroke-opacity="0.33" stroke-width="5"/>
<path d="M800.918 275.618C807.967 276.472 813.528 282.033 814.382 289.082C817.206 312.406 817.206 329.594 814.382 352.918C813.528 359.967 807.967 365.528 800.918 366.382C777.594 369.206 760.406 369.206 737.082 366.382C730.033 365.528 724.472 359.967 723.618 352.918C720.794 329.594 720.794 312.406 723.618 289.082C724.472 282.033 730.033 276.472 737.082 275.618C760.406 272.794 777.594 272.794 800.918 275.618Z" stroke="#0085FF" stroke-opacity="0.33" stroke-width="5"/>
<path d="M910.918 275.618C917.967 276.472 923.528 282.033 924.382 289.082C927.206 312.406 927.206 329.594 924.382 352.918C923.528 359.967 917.967 365.528 910.918 366.382C887.594 369.206 870.406 369.206 847.082 366.382C840.033 365.528 834.472 359.967 833.618 352.918C830.794 329.594 830.794 312.406 833.618 289.082C834.472 282.033 840.033 276.472 847.082 275.618C870.406 272.794 887.594 272.794 910.918 275.618Z" stroke="#0085FF" stroke-opacity="0.33" stroke-width="5"/>
<path d="M1020.92 275.618C1027.97 276.472 1033.53 282.033 1034.38 289.082C1037.21 312.406 1037.21 329.594 1034.38 352.918C1033.53 359.967 1027.97 365.528 1020.92 366.382C997.594 369.206 980.406 369.206 957.082 366.382C950.033 365.528 944.472 359.967 943.618 352.918C940.794 329.594 940.794 312.406 943.618 289.082C944.472 282.033 950.033 276.472 957.082 275.618C980.406 272.794 997.594 272.794 1020.92 275.618Z" stroke="#0085FF" stroke-opacity="0.33" stroke-width="5"/>
<path d="M1130.92 275.618C1137.97 276.472 1143.53 282.033 1144.38 289.082C1147.21 312.406 1147.21 329.594 1144.38 352.918C1143.53 359.967 1137.97 365.528 1130.92 366.382C1107.59 369.206 1090.41 369.206 1067.08 366.382C1060.03 365.528 1054.47 359.967 1053.62 352.918C1050.79 329.594 1050.79 312.406 1053.62 289.082C1054.47 282.033 1060.03 276.472 1067.08 275.618C1090.41 272.794 1107.59 272.794 1130.92 275.618Z" stroke="#0085FF" stroke-opacity="0.33" stroke-width="5"/>
<path d="M690.918 385.618C697.967 386.472 703.528 392.033 704.382 399.082C707.206 422.406 707.206 439.594 704.382 462.918C703.528 469.967 697.967 475.528 690.918 476.382C667.594 479.206 650.406 479.206 627.082 476.382C620.033 475.528 614.472 469.967 613.618 462.918C610.794 439.594 610.794 422.406 613.618 399.082C614.472 392.033 620.033 386.472 627.082 385.618C650.406 382.794 667.594 382.794 690.918 385.618Z" stroke="#0085FF" stroke-opacity="0.33" stroke-width="5"/>
<path d="M800.918 385.618C807.967 386.472 813.528 392.033 814.382 399.082C817.206 422.406 817.206 439.594 814.382 462.918C813.528 469.967 807.967 475.528 800.918 476.382C777.594 479.206 760.406 479.206 737.082 476.382C730.033 475.528 724.472 469.967 723.618 462.918C720.794 439.594 720.794 422.406 723.618 399.082C724.472 392.033 730.033 386.472 737.082 385.618C760.406 382.794 777.594 382.794 800.918 385.618Z" stroke="#0085FF" stroke-opacity="0.33" stroke-width="5"/>
<path d="M910.918 385.618C917.967 386.472 923.528 392.033 924.382 399.082C927.206 422.406 927.206 439.594 924.382 462.918C923.528 469.967 917.967 475.528 910.918 476.382C887.594 479.206 870.406 479.206 847.082 476.382C840.033 475.528 834.472 469.967 833.618 462.918C830.794 439.594 830.794 422.406 833.618 399.082C834.472 392.033 840.033 386.472 847.082 385.618C870.406 382.794 887.594 382.794 910.918 385.618Z" stroke="#0085FF" stroke-opacity="0.33" stroke-width="5"/>
<path d="M1020.92 385.618C1027.97 386.472 1033.53 392.033 1034.38 399.082C1037.21 422.406 1037.21 439.594 1034.38 462.918C1033.53 469.967 1027.97 475.528 1020.92 476.382C997.594 479.206 980.406 479.206 957.082 476.382C950.033 475.528 944.472 469.967 943.618 462.918C940.794 439.594 940.794 422.406 943.618 399.082C944.472 392.033 950.033 386.472 957.082 385.618C980.406 382.794 997.594 382.794 1020.92 385.618Z" stroke="#0085FF" stroke-opacity="0.33" stroke-width="5"/>
<path d="M1130.92 385.618C1137.97 386.472 1143.53 392.033 1144.38 399.082C1147.21 422.406 1147.21 439.594 1144.38 462.918C1143.53 469.967 1137.97 475.528 1130.92 476.382C1107.59 479.206 1090.41 479.206 1067.08 476.382C1060.03 475.528 1054.47 469.967 1053.62 462.918C1050.79 439.594 1050.79 422.406 1053.62 399.082C1054.47 392.033 1060.03 386.472 1067.08 385.618C1090.41 382.794 1107.59 382.794 1130.92 385.618Z" stroke="#0085FF" stroke-opacity="0.33" stroke-width="5"/>
<path d="M90.9179 165.618C97.9671 166.472 103.528 172.033 104.382 179.082C107.206 202.406 107.206 219.594 104.382 242.918C103.528 249.967 97.9671 255.528 90.9179 256.382C67.5937 259.206 50.4063 259.206 27.0821 256.382C20.0329 255.528 14.4717 249.967 13.6181 242.918C10.794 219.594 10.794 202.406 13.6181 179.082C14.4717 172.033 20.0329 166.472 27.0821 165.618C50.4063 162.794 67.5937 162.794 90.9179 165.618Z" stroke="#0085FF" stroke-width="5"/>
<path d="M200.918 165.618C207.967 166.472 213.528 172.033 214.382 179.082C217.206 202.406 217.206 219.594 214.382 242.918C213.528 249.967 207.967 255.528 200.918 256.382C177.594 259.206 160.406 259.206 137.082 256.382C130.033 255.528 124.472 249.967 123.618 242.918C120.794 219.594 120.794 202.406 123.618 179.082C124.472 172.033 130.033 166.472 137.082 165.618C160.406 162.794 177.594 162.794 200.918 165.618Z" stroke="#0085FF" stroke-width="5"/>
<path d="M310.918 165.618C317.967 166.472 323.528 172.033 324.382 179.082C327.206 202.406 327.206 219.594 324.382 242.918C323.528 249.967 317.967 255.528 310.918 256.382C287.594 259.206 270.406 259.206 247.082 256.382C240.033 255.528 234.472 249.967 233.618 242.918C230.794 219.594 230.794 202.406 233.618 179.082C234.472 172.033 240.033 166.472 247.082 165.618C270.406 162.794 287.594 162.794 310.918 165.618Z" stroke="#0085FF" stroke-width="5"/>
<path d="M420.918 165.618C427.967 166.472 433.528 172.033 434.382 179.082C437.206 202.406 437.206 219.594 434.382 242.918C433.528 249.967 427.967 255.528 420.918 256.382C397.594 259.206 380.406 259.206 357.082 256.382C350.033 255.528 344.472 249.967 343.618 242.918C340.794 219.594 340.794 202.406 343.618 179.082C344.472 172.033 350.033 166.472 357.082 165.618C380.406 162.794 397.594 162.794 420.918 165.618Z" stroke="#0085FF" stroke-width="5"/>
<path d="M530.918 165.618C537.967 166.472 543.528 172.033 544.382 179.082C547.206 202.406 547.206 219.594 544.382 242.918C543.528 249.967 537.967 255.528 530.918 256.382C507.594 259.206 490.406 259.206 467.082 256.382C460.033 255.528 454.472 249.967 453.618 242.918C450.794 219.594 450.794 202.406 453.618 179.082C454.472 172.033 460.033 166.472 467.082 165.618C490.406 162.794 507.594 162.794 530.918 165.618Z" stroke="#0085FF" stroke-width="5"/>
<path d="M90.9179 275.618C97.9671 276.472 103.528 282.033 104.382 289.082C107.206 312.406 107.206 329.594 104.382 352.918C103.528 359.967 97.9671 365.528 90.9179 366.382C67.5937 369.206 50.4063 369.206 27.0821 366.382C20.0329 365.528 14.4717 359.967 13.6181 352.918C10.794 329.594 10.794 312.406 13.6181 289.082C14.4717 282.033 20.0329 276.472 27.0821 275.618C50.4063 272.794 67.5937 272.794 90.9179 275.618Z" stroke="#0085FF" stroke-width="5"/>
<path d="M200.918 275.618C207.967 276.472 213.528 282.033 214.382 289.082C217.206 312.406 217.206 329.594 214.382 352.918C213.528 359.967 207.967 365.528 200.918 366.382C177.594 369.206 160.406 369.206 137.082 366.382C130.033 365.528 124.472 359.967 123.618 352.918C120.794 329.594 120.794 312.406 123.618 289.082C124.472 282.033 130.033 276.472 137.082 275.618C160.406 272.794 177.594 272.794 200.918 275.618Z" stroke="#0085FF" stroke-width="5"/>
<path d="M310.918 275.618C317.967 276.472 323.528 282.033 324.382 289.082C327.206 312.406 327.206 329.594 324.382 352.918C323.528 359.967 317.967 365.528 310.918 366.382C287.594 369.206 270.406 369.206 247.082 366.382C240.033 365.528 234.472 359.967 233.618 352.918C230.794 329.594 230.794 312.406 233.618 289.082C234.472 282.033 240.033 276.472 247.082 275.618C270.406 272.794 287.594 272.794 310.918 275.618Z" stroke="#0085FF" stroke-width="5"/>
<path d="M420.918 275.618C427.967 276.472 433.528 282.033 434.382 289.082C437.206 312.406 437.206 329.594 434.382 352.918C433.528 359.967 427.967 365.528 420.918 366.382C397.594 369.206 380.406 369.206 357.082 366.382C350.033 365.528 344.472 359.967 343.618 352.918C340.794 329.594 340.794 312.406 343.618 289.082C344.472 282.033 350.033 276.472 357.082 275.618C380.406 272.794 397.594 272.794 420.918 275.618Z" stroke="#0085FF" stroke-width="5"/>
<path d="M530.918 275.618C537.967 276.472 543.528 282.033 544.382 289.082C547.206 312.406 547.206 329.594 544.382 352.918C543.528 359.967 537.967 365.528 530.918 366.382C507.594 369.206 490.406 369.206 467.082 366.382C460.033 365.528 454.472 359.967 453.618 352.918C450.794 329.594 450.794 312.406 453.618 289.082C454.472 282.033 460.033 276.472 467.082 275.618C490.406 272.794 507.594 272.794 530.918 275.618Z" stroke="#0085FF" stroke-width="5"/>
<path d="M90.9179 385.618C97.9671 386.472 103.528 392.033 104.382 399.082C107.206 422.406 107.206 439.594 104.382 462.918C103.528 469.967 97.9671 475.528 90.9179 476.382C67.5937 479.206 50.4063 479.206 27.0821 476.382C20.0329 475.528 14.4717 469.967 13.6181 462.918C10.794 439.594 10.794 422.406 13.6181 399.082C14.4717 392.033 20.0329 386.472 27.0821 385.618C50.4063 382.794 67.5937 382.794 90.9179 385.618Z" stroke="#0085FF" stroke-width="5"/>
<path d="M200.918 385.618C207.967 386.472 213.528 392.033 214.382 399.082C217.206 422.406 217.206 439.594 214.382 462.918C213.528 469.967 207.967 475.528 200.918 476.382C177.594 479.206 160.406 479.206 137.082 476.382C130.033 475.528 124.472 469.967 123.618 462.918C120.794 439.594 120.794 422.406 123.618 399.082C124.472 392.033 130.033 386.472 137.082 385.618C160.406 382.794 177.594 382.794 200.918 385.618Z" stroke="#0085FF" stroke-width="5"/>
<path d="M310.918 385.618C317.967 386.472 323.528 392.033 324.382 399.082C327.206 422.406 327.206 439.594 324.382 462.918C323.528 469.967 317.967 475.528 310.918 476.382C287.594 479.206 270.406 479.206 247.082 476.382C240.033 475.528 234.472 469.967 233.618 462.918C230.794 439.594 230.794 422.406 233.618 399.082C234.472 392.033 240.033 386.472 247.082 385.618C270.406 382.794 287.594 382.794 310.918 385.618Z" stroke="#0085FF" stroke-width="5"/>
<path d="M420.918 385.618C427.967 386.472 433.528 392.033 434.382 399.082C437.206 422.406 437.206 439.594 434.382 462.918C433.528 469.967 427.967 475.528 420.918 476.382C397.594 479.206 380.406 479.206 357.082 476.382C350.033 475.528 344.472 469.967 343.618 462.918C340.794 439.594 340.794 422.406 343.618 399.082C344.472 392.033 350.033 386.472 357.082 385.618C380.406 382.794 397.594 382.794 420.918 385.618Z" stroke="#0085FF" stroke-width="5"/>
<path d="M530.918 385.618C537.967 386.472 543.528 392.033 544.382 399.082C547.206 422.406 547.206 439.594 544.382 462.918C543.528 469.967 537.967 475.528 530.918 476.382C507.594 479.206 490.406 479.206 467.082 476.382C460.033 475.528 454.472 469.967 453.618 462.918C450.794 439.594 450.794 422.406 453.618 399.082C454.472 392.033 460.033 386.472 467.082 385.618C490.406 382.794 507.594 382.794 530.918 385.618Z" stroke="#0085FF" stroke-width="5"/>
</svg>
