<svg width="1173" height="1181" viewBox="0 0 1173 1181" fill="none" xmlns="http://www.w3.org/2000/svg">
<path d="M690.918 1085.62C697.967 1086.47 703.528 1092.03 704.382 1099.08C707.206 1122.41 707.206 1139.59 704.382 1162.92C703.528 1169.97 697.967 1175.53 690.918 1176.38C667.594 1179.21 650.406 1179.21 627.082 1176.38C620.033 1175.53 614.472 1169.97 613.618 1162.92C610.794 1139.59 610.794 1122.41 613.618 1099.08C614.472 1092.03 620.033 1086.47 627.082 1085.62C650.406 1082.79 667.594 1082.79 690.918 1085.62Z" fill="#0085FF" fill-opacity="0.33" stroke="#0085FF" stroke-width="5"/>
<path d="M655.353 1132.68C655.353 1132.07 655.407 1131.65 655.515 1131.44C655.641 1131.22 655.902 1131.11 656.298 1131.11C656.712 1131.11 656.973 1131.23 657.081 1131.47C657.189 1131.68 657.243 1132.09 657.243 1132.68V1137.03C657.243 1137.68 656.928 1138 656.298 1138H644.607H643.986C643.356 1138 643.041 1137.68 643.041 1137.05C643.041 1136.66 643.149 1136.41 643.365 1136.3C643.581 1136.19 643.995 1136.14 644.607 1136.14H646.254V1124.26H644.607C643.995 1124.26 643.581 1124.2 643.365 1124.09C643.149 1123.97 643.041 1123.71 643.041 1123.31C643.041 1122.9 643.149 1122.64 643.365 1122.53C643.599 1122.42 644.013 1122.37 644.607 1122.37H650.547H651.168C651.816 1122.37 652.14 1122.68 652.14 1123.31C652.14 1123.73 652.023 1123.99 651.789 1124.09C651.573 1124.2 651.159 1124.26 650.547 1124.26H648.333V1136.14H655.353V1132.68ZM662.037 1138C661.119 1138 660.66 1137.61 660.66 1136.84C660.66 1136.57 660.768 1136.27 660.984 1135.95C661.2 1135.62 661.434 1135.34 661.686 1135.08C661.938 1134.81 662.379 1134.38 663.009 1133.79C663.261 1133.55 663.45 1133.37 663.576 1133.25C663.81 1133.03 664.143 1132.73 664.575 1132.33C665.007 1131.92 665.313 1131.62 665.493 1131.44C665.691 1131.26 665.961 1131 666.303 1130.66C666.663 1130.31 666.915 1130.06 667.059 1129.9C667.221 1129.72 667.428 1129.49 667.68 1129.2C667.95 1128.91 668.139 1128.68 668.247 1128.52C668.373 1128.34 668.508 1128.13 668.652 1127.87C668.814 1127.62 668.922 1127.41 668.976 1127.23C669.048 1127.03 669.111 1126.82 669.165 1126.61C669.219 1126.37 669.246 1126.15 669.246 1125.93C669.246 1124.99 668.976 1124.24 668.436 1123.66C667.896 1123.07 667.203 1122.77 666.357 1122.77C665.133 1122.77 664.197 1123.19 663.549 1124.04L663.306 1124.5C663.126 1124.79 662.946 1124.99 662.766 1125.09C662.604 1125.2 662.388 1125.26 662.118 1125.26C661.812 1125.26 661.605 1125.15 661.497 1124.93C661.389 1124.72 661.335 1124.36 661.335 1123.88C661.335 1123.39 661.479 1123.01 661.767 1122.72C662.991 1121.53 664.539 1120.94 666.411 1120.94C667.869 1120.94 669.084 1121.4 670.056 1122.34C671.046 1123.28 671.541 1124.44 671.541 1125.82C671.541 1126.33 671.46 1126.83 671.298 1127.33C671.136 1127.82 670.938 1128.26 670.704 1128.66C670.488 1129.04 670.146 1129.49 669.678 1130.01C669.21 1130.53 668.805 1130.96 668.463 1131.3C668.121 1131.65 667.608 1132.14 666.924 1132.79C666.24 1133.44 665.7 1133.96 665.304 1134.35L663.684 1135.92H669.705C669.777 1135.15 670.11 1134.76 670.704 1134.76C671.334 1134.76 671.649 1135.12 671.649 1135.84C671.649 1135.88 671.64 1135.92 671.622 1135.97C671.622 1136.03 671.622 1136.07 671.622 1136.11L671.487 1137.14C671.433 1137.71 671.181 1138 670.731 1138H662.037Z" fill="#0085FF"/>
<path d="M800.918 1085.62C807.967 1086.47 813.528 1092.03 814.382 1099.08C817.206 1122.41 817.206 1139.59 814.382 1162.92C813.528 1169.97 807.967 1175.53 800.918 1176.38C777.594 1179.21 760.406 1179.21 737.082 1176.38C730.033 1175.53 724.472 1169.97 723.618 1162.92C720.794 1139.59 720.794 1122.41 723.618 1099.08C724.472 1092.03 730.033 1086.47 737.082 1085.62C760.406 1082.79 777.594 1082.79 800.918 1085.62Z" fill="#0085FF" fill-opacity="0.33" stroke="#0085FF" stroke-width="5"/>
<path d="M765.353 1132.68C765.353 1132.07 765.407 1131.65 765.515 1131.44C765.641 1131.22 765.902 1131.11 766.298 1131.11C766.712 1131.11 766.973 1131.23 767.081 1131.47C767.189 1131.68 767.243 1132.09 767.243 1132.68V1137.03C767.243 1137.68 766.928 1138 766.298 1138H754.607H753.986C753.356 1138 753.041 1137.68 753.041 1137.05C753.041 1136.66 753.149 1136.41 753.365 1136.3C753.581 1136.19 753.995 1136.14 754.607 1136.14H756.254V1124.26H754.607C753.995 1124.26 753.581 1124.2 753.365 1124.09C753.149 1123.97 753.041 1123.71 753.041 1123.31C753.041 1122.9 753.149 1122.64 753.365 1122.53C753.599 1122.42 754.013 1122.37 754.607 1122.37H760.547H761.168C761.816 1122.37 762.14 1122.68 762.14 1123.31C762.14 1123.73 762.023 1123.99 761.789 1124.09C761.573 1124.2 761.159 1124.26 760.547 1124.26H758.333V1136.14H765.353V1132.68ZM776.303 1138C775.907 1138 775.628 1137.94 775.466 1137.81C775.304 1137.67 775.223 1137.41 775.223 1137.05C775.223 1136.44 775.547 1136.14 776.195 1136.14H777.734V1133.92H771.578C771.11 1133.92 770.876 1133.65 770.876 1133.11V1132.19C770.876 1131.87 771.038 1131.45 771.362 1130.93L776.924 1121.48C777.104 1121.15 777.32 1120.99 777.572 1120.99C777.716 1120.99 777.833 1121 777.923 1121.02L779.273 1121.23C779.543 1121.29 779.678 1121.51 779.678 1121.91V1131.92H780.353C780.533 1131.92 780.677 1131.85 780.785 1131.71C780.893 1131.55 781.019 1131.47 781.163 1131.47C781.343 1131.47 781.487 1131.53 781.595 1131.65C781.721 1131.78 781.784 1131.93 781.784 1132.11C781.784 1132.28 781.766 1132.43 781.73 1132.57L781.622 1133.11C781.568 1133.42 781.478 1133.63 781.352 1133.76C781.244 1133.87 781.055 1133.92 780.785 1133.92H779.678V1136.14H780.137C780.677 1136.14 781.055 1136.2 781.271 1136.33C781.505 1136.45 781.622 1136.69 781.622 1137.05C781.622 1137.68 781.271 1138 780.569 1138H776.303ZM777.734 1131.92V1122.99L772.739 1131.92H777.734Z" fill="#0085FF"/>
<path d="M910.918 1085.62C917.967 1086.47 923.528 1092.03 924.382 1099.08C927.206 1122.41 927.206 1139.59 924.382 1162.92C923.528 1169.97 917.967 1175.53 910.918 1176.38C887.594 1179.21 870.406 1179.21 847.082 1176.38C840.033 1175.53 834.472 1169.97 833.618 1162.92C830.794 1139.59 830.794 1122.41 833.618 1099.08C834.472 1092.03 840.033 1086.47 847.082 1085.62C870.406 1082.79 887.594 1082.79 910.918 1085.62Z" fill="#0085FF" stroke="#0085FF" stroke-width="5"/>
<path d="M875.353 1132.68C875.353 1132.07 875.407 1131.65 875.515 1131.44C875.641 1131.22 875.902 1131.11 876.298 1131.11C876.712 1131.11 876.973 1131.23 877.081 1131.47C877.189 1131.68 877.243 1132.09 877.243 1132.68V1137.03C877.243 1137.68 876.928 1138 876.298 1138H864.607H863.986C863.356 1138 863.041 1137.68 863.041 1137.05C863.041 1136.66 863.149 1136.41 863.365 1136.3C863.581 1136.19 863.995 1136.14 864.607 1136.14H866.254V1124.26H864.607C863.995 1124.26 863.581 1124.2 863.365 1124.09C863.149 1123.97 863.041 1123.71 863.041 1123.31C863.041 1122.9 863.149 1122.64 863.365 1122.53C863.599 1122.42 864.013 1122.37 864.607 1122.37H870.547H871.168C871.816 1122.37 872.14 1122.68 872.14 1123.31C872.14 1123.73 872.023 1123.99 871.789 1124.09C871.573 1124.2 871.159 1124.26 870.547 1124.26H868.333V1136.14H875.353V1132.68ZM883.495 1129.36C884.449 1128.14 885.61 1127.52 886.978 1127.52C888.346 1127.52 889.516 1128.05 890.488 1129.09C891.478 1130.12 891.973 1131.4 891.973 1132.95C891.973 1134.55 891.505 1135.87 890.569 1136.89C889.633 1137.92 888.427 1138.43 886.951 1138.43C885.223 1138.43 883.837 1137.75 882.793 1136.38C881.749 1135.01 881.227 1133.18 881.227 1130.87C881.227 1127.87 881.992 1125.46 883.522 1123.66C885.07 1121.84 887.104 1120.94 889.624 1120.94C890.434 1120.94 890.983 1121 891.271 1121.12C891.577 1121.23 891.73 1121.47 891.73 1121.83C891.73 1122.06 891.676 1122.24 891.568 1122.37C891.478 1122.49 891.325 1122.57 891.109 1122.61C890.911 1122.65 890.695 1122.67 890.461 1122.69C890.227 1122.69 889.921 1122.7 889.543 1122.72C889.183 1122.74 888.841 1122.77 888.517 1122.83C887.149 1123.08 886.024 1123.77 885.142 1124.9C884.278 1126.02 883.729 1127.51 883.495 1129.36ZM883.792 1132.87C883.792 1133.97 884.08 1134.86 884.656 1135.54C885.232 1136.21 885.961 1136.54 886.843 1136.54C887.689 1136.54 888.382 1136.23 888.922 1135.6C889.462 1134.95 889.732 1134.1 889.732 1133.06C889.732 1131.98 889.444 1131.11 888.868 1130.44C888.31 1129.77 887.599 1129.44 886.735 1129.44C885.889 1129.44 885.187 1129.76 884.629 1130.41C884.071 1131.04 883.792 1131.86 883.792 1132.87Z" fill="black"/>
<path d="M311.918 1085.62C318.967 1086.47 324.528 1092.03 325.382 1099.08C328.206 1122.41 328.206 1139.59 325.382 1162.92C324.528 1169.97 318.967 1175.53 311.918 1176.38C288.594 1179.21 271.406 1179.21 248.082 1176.38C241.033 1175.53 235.472 1169.97 234.618 1162.92C231.794 1139.59 231.794 1122.41 234.618 1099.08C235.472 1092.03 241.033 1086.47 248.082 1085.62C271.406 1082.79 288.594 1082.79 311.918 1085.62Z" fill="#0085FF" fill-opacity="0.33" stroke="#0085FF" stroke-width="5"/>
<path d="M276.353 1132.68C276.353 1132.07 276.407 1131.65 276.515 1131.44C276.641 1131.22 276.902 1131.11 277.298 1131.11C277.712 1131.11 277.973 1131.23 278.081 1131.47C278.189 1131.68 278.243 1132.09 278.243 1132.68V1137.03C278.243 1137.68 277.928 1138 277.298 1138H265.607H264.986C264.356 1138 264.041 1137.68 264.041 1137.05C264.041 1136.66 264.149 1136.41 264.365 1136.3C264.581 1136.19 264.995 1136.14 265.607 1136.14H267.254V1124.26H265.607C264.995 1124.26 264.581 1124.2 264.365 1124.09C264.149 1123.97 264.041 1123.71 264.041 1123.31C264.041 1122.9 264.149 1122.64 264.365 1122.53C264.599 1122.42 265.013 1122.37 265.607 1122.37H271.547H272.168C272.816 1122.37 273.14 1122.68 273.14 1123.31C273.14 1123.73 273.023 1123.99 272.789 1124.09C272.573 1124.2 272.159 1124.26 271.547 1124.26H269.333V1136.14H276.353V1132.68ZM284.657 1127.69C285.791 1127.27 286.799 1127.06 287.681 1127.06C289.229 1127.06 290.507 1127.6 291.515 1128.66C292.541 1129.72 293.054 1131.04 293.054 1132.63C293.054 1134.3 292.487 1135.69 291.353 1136.78C290.237 1137.88 288.788 1138.43 287.006 1138.43C285.494 1138.43 284.243 1138.23 283.253 1137.84C282.281 1137.42 281.795 1136.94 281.795 1136.38C281.795 1136.15 281.885 1135.94 282.065 1135.76C282.245 1135.58 282.461 1135.49 282.713 1135.49C282.821 1135.49 283.343 1135.66 284.279 1136C285.215 1136.34 286.079 1136.51 286.871 1136.51C288.059 1136.51 289.013 1136.16 289.733 1135.46C290.471 1134.74 290.84 1133.82 290.84 1132.71C290.84 1131.63 290.489 1130.73 289.787 1130.01C289.085 1129.27 288.212 1128.9 287.168 1128.9C286.376 1128.9 285.602 1129.1 284.846 1129.49C284.09 1129.89 283.631 1130.09 283.469 1130.09C283.163 1130.09 282.965 1129.98 282.875 1129.76C282.785 1129.55 282.74 1129.21 282.74 1128.74V1122.18C282.74 1121.87 282.83 1121.66 283.01 1121.56C283.208 1121.43 283.523 1121.37 283.955 1121.37H290.624C291.47 1121.37 291.893 1121.71 291.893 1122.39C291.893 1123.08 291.47 1123.42 290.624 1123.42H284.657V1127.69Z" fill="#0085FF"/>
<path d="M421.918 1085.62C428.967 1086.47 434.528 1092.03 435.382 1099.08C438.206 1122.41 438.206 1139.59 435.382 1162.92C434.528 1169.97 428.967 1175.53 421.918 1176.38C398.594 1179.21 381.406 1179.21 358.082 1176.38C351.033 1175.53 345.472 1169.97 344.618 1162.92C341.794 1139.59 341.794 1122.41 344.618 1099.08C345.472 1092.03 351.033 1086.47 358.082 1085.62C381.406 1082.79 398.594 1082.79 421.918 1085.62Z" fill="#0085FF" fill-opacity="0.33" stroke="#0085FF" stroke-width="5"/>
<path d="M386.353 1132.68C386.353 1132.07 386.407 1131.65 386.515 1131.44C386.641 1131.22 386.902 1131.11 387.298 1131.11C387.712 1131.11 387.973 1131.23 388.081 1131.47C388.189 1131.68 388.243 1132.09 388.243 1132.68V1137.03C388.243 1137.68 387.928 1138 387.298 1138H375.607H374.986C374.356 1138 374.041 1137.68 374.041 1137.05C374.041 1136.66 374.149 1136.41 374.365 1136.3C374.581 1136.19 374.995 1136.14 375.607 1136.14H377.254V1124.26H375.607C374.995 1124.26 374.581 1124.2 374.365 1124.09C374.149 1123.97 374.041 1123.71 374.041 1123.31C374.041 1122.9 374.149 1122.64 374.365 1122.53C374.599 1122.42 375.013 1122.37 375.607 1122.37H381.547H382.168C382.816 1122.37 383.14 1122.68 383.14 1123.31C383.14 1123.73 383.023 1123.99 382.789 1124.09C382.573 1124.2 382.159 1124.26 381.547 1124.26H379.333V1136.14H386.353V1132.68ZM399.679 1128.93C400.723 1129.22 401.524 1129.73 402.082 1130.47C402.64 1131.2 402.919 1132.11 402.919 1133.19C402.919 1134.71 402.379 1135.96 401.299 1136.95C400.219 1137.94 398.806 1138.43 397.06 1138.43C395.692 1138.43 394.495 1138.18 393.469 1137.68C392.443 1137.15 391.93 1136.59 391.93 1135.97C391.93 1135.7 392.02 1135.49 392.2 1135.33C392.398 1135.15 392.632 1135.06 392.902 1135.06C393.046 1135.06 393.586 1135.28 394.522 1135.73C395.458 1136.18 396.331 1136.41 397.141 1136.41C398.203 1136.41 399.058 1136.11 399.706 1135.52C400.354 1134.9 400.678 1134.13 400.678 1133.19C400.678 1132.4 400.453 1131.74 400.003 1131.2C399.553 1130.66 398.932 1130.31 398.14 1130.17C397.924 1130.13 397.681 1130.11 397.411 1130.09C397.159 1130.07 396.961 1130.05 396.817 1130.03C396.691 1130.02 396.556 1129.98 396.412 1129.93C396.286 1129.87 396.196 1129.79 396.142 1129.68C396.106 1129.56 396.088 1129.38 396.088 1129.14C396.088 1128.98 396.097 1128.86 396.115 1128.77C396.151 1128.66 396.187 1128.58 396.223 1128.52C396.277 1128.45 396.358 1128.4 396.466 1128.36C396.592 1128.32 396.7 1128.3 396.79 1128.28C396.88 1128.26 397.033 1128.24 397.249 1128.23C397.483 1128.21 397.69 1128.18 397.87 1128.14C398.554 1128.04 399.103 1127.76 399.517 1127.31C399.949 1126.84 400.165 1126.28 400.165 1125.63C400.165 1124.79 399.904 1124.1 399.382 1123.58C398.878 1123.04 398.23 1122.77 397.438 1122.77C396.7 1122.77 395.935 1123.01 395.143 1123.47C394.351 1123.94 393.865 1124.18 393.685 1124.18C393.433 1124.18 393.226 1124.09 393.064 1123.93C392.902 1123.77 392.821 1123.57 392.821 1123.34C392.821 1122.83 393.298 1122.31 394.252 1121.77C395.224 1121.21 396.331 1120.94 397.573 1120.94C398.959 1120.94 400.102 1121.36 401.002 1122.2C401.902 1123.03 402.352 1124.05 402.352 1125.26C402.352 1127.07 401.461 1128.3 399.679 1128.93Z" fill="#0085FF"/>
<path d="M531.918 1085.62C538.967 1086.47 544.528 1092.03 545.382 1099.08C548.206 1122.41 548.206 1139.59 545.382 1162.92C544.528 1169.97 538.967 1175.53 531.918 1176.38C508.594 1179.21 491.406 1179.21 468.082 1176.38C461.033 1175.53 455.472 1169.97 454.618 1162.92C451.794 1139.59 451.794 1122.41 454.618 1099.08C455.472 1092.03 461.033 1086.47 468.082 1085.62C491.406 1082.79 508.594 1082.79 531.918 1085.62Z" fill="#0085FF" fill-opacity="0.33" stroke="#0085FF" stroke-width="5"/>
<path d="M496.353 1132.68C496.353 1132.07 496.407 1131.65 496.515 1131.44C496.641 1131.22 496.902 1131.11 497.298 1131.11C497.712 1131.11 497.973 1131.23 498.081 1131.47C498.189 1131.68 498.243 1132.09 498.243 1132.68V1137.03C498.243 1137.68 497.928 1138 497.298 1138H485.607H484.986C484.356 1138 484.041 1137.68 484.041 1137.05C484.041 1136.66 484.149 1136.41 484.365 1136.3C484.581 1136.19 484.995 1136.14 485.607 1136.14H487.254V1124.26H485.607C484.995 1124.26 484.581 1124.2 484.365 1124.09C484.149 1123.97 484.041 1123.71 484.041 1123.31C484.041 1122.9 484.149 1122.64 484.365 1122.53C484.599 1122.42 485.013 1122.37 485.607 1122.37H491.547H492.168C492.816 1122.37 493.14 1122.68 493.14 1123.31C493.14 1123.73 493.023 1123.99 492.789 1124.09C492.573 1124.2 492.159 1124.26 491.547 1124.26H489.333V1136.14H496.353V1132.68ZM504.468 1123.85C504.288 1123.89 504.153 1123.91 504.063 1123.91C503.775 1123.91 503.55 1123.83 503.388 1123.69C503.226 1123.53 503.145 1123.32 503.145 1123.07C503.145 1122.62 503.433 1122.31 504.009 1122.15L507.924 1121.1C508.14 1121.04 508.329 1121.02 508.491 1121.02C508.851 1121.02 509.031 1121.3 509.031 1121.88V1136.14H511.137C511.839 1136.14 512.316 1136.19 512.568 1136.3C512.82 1136.41 512.946 1136.66 512.946 1137.05C512.946 1137.68 512.595 1138 511.893 1138H504.009C503.307 1138 502.956 1137.68 502.956 1137.05C502.956 1136.66 503.082 1136.41 503.334 1136.3C503.586 1136.19 504.063 1136.14 504.765 1136.14H506.952V1123.26L504.468 1123.85Z" fill="#0085FF"/>
<path d="M690.918 715.618C697.967 716.472 703.528 722.033 704.382 729.082C707.206 752.406 707.206 769.594 704.382 792.918C703.528 799.967 697.967 805.528 690.918 806.382C667.594 809.206 650.406 809.206 627.082 806.382C620.033 805.528 614.472 799.967 613.618 792.918C610.794 769.594 610.794 752.406 613.618 729.082C614.472 722.033 620.033 716.472 627.082 715.618C650.406 712.794 667.594 712.794 690.918 715.618Z" stroke="#0085FF" stroke-opacity="0.33" stroke-width="5"/>
<path d="M800.918 715.618C807.967 716.472 813.528 722.033 814.382 729.082C817.206 752.406 817.206 769.594 814.382 792.918C813.528 799.967 807.967 805.528 800.918 806.382C777.594 809.206 760.406 809.206 737.082 806.382C730.033 805.528 724.472 799.967 723.618 792.918C720.794 769.594 720.794 752.406 723.618 729.082C724.472 722.033 730.033 716.472 737.082 715.618C760.406 712.794 777.594 712.794 800.918 715.618Z" stroke="#0085FF" stroke-opacity="0.33" stroke-width="5"/>
<path d="M910.918 715.618C917.967 716.472 923.528 722.033 924.382 729.082C927.206 752.406 927.206 769.594 924.382 792.918C923.528 799.967 917.967 805.528 910.918 806.382C887.594 809.206 870.406 809.206 847.082 806.382C840.033 805.528 834.472 799.967 833.618 792.918C830.794 769.594 830.794 752.406 833.618 729.082C834.472 722.033 840.033 716.472 847.082 715.618C870.406 712.794 887.594 712.794 910.918 715.618Z" stroke="#0085FF" stroke-opacity="0.33" stroke-width="5"/>
<path d="M1020.92 715.618C1027.97 716.472 1033.53 722.033 1034.38 729.082C1037.21 752.406 1037.21 769.594 1034.38 792.918C1033.53 799.967 1027.97 805.528 1020.92 806.382C997.594 809.206 980.406 809.206 957.082 806.382C950.033 805.528 944.472 799.967 943.618 792.918C940.794 769.594 940.794 752.406 943.618 729.082C944.472 722.033 950.033 716.472 957.082 715.618C980.406 712.794 997.594 712.794 1020.92 715.618Z" stroke="#0085FF" stroke-opacity="0.33" stroke-width="5"/>
<path d="M1130.92 715.618C1137.97 716.472 1143.53 722.033 1144.38 729.082C1147.21 752.406 1147.21 769.594 1144.38 792.918C1143.53 799.967 1137.97 805.528 1130.92 806.382C1107.59 809.206 1090.41 809.206 1067.08 806.382C1060.03 805.528 1054.47 799.967 1053.62 792.918C1050.79 769.594 1050.79 752.406 1053.62 729.082C1054.47 722.033 1060.03 716.472 1067.08 715.618C1090.41 712.794 1107.59 712.794 1130.92 715.618Z" stroke="#0085FF" stroke-opacity="0.33" stroke-width="5"/>
<path d="M690.918 825.618C697.967 826.472 703.528 832.033 704.382 839.082C707.206 862.406 707.206 879.594 704.382 902.918C703.528 909.967 697.967 915.528 690.918 916.382C667.594 919.206 650.406 919.206 627.082 916.382C620.033 915.528 614.472 909.967 613.618 902.918C610.794 879.594 610.794 862.406 613.618 839.082C614.472 832.033 620.033 826.472 627.082 825.618C650.406 822.794 667.594 822.794 690.918 825.618Z" stroke="#0085FF" stroke-opacity="0.33" stroke-width="5"/>
<path d="M816.864 838.782C815.872 830.59 809.41 824.128 801.218 823.136C777.695 820.288 760.305 820.288 736.782 823.136C728.59 824.128 722.128 830.59 721.136 838.782C718.288 862.305 718.288 879.695 721.136 903.218C722.128 911.41 728.59 917.872 736.782 918.864C760.305 921.712 777.695 921.712 801.218 918.864C809.41 917.872 815.872 911.41 816.864 903.218C819.712 879.695 819.712 862.305 816.864 838.782Z" fill="#0085FF" fill-opacity="0.33"/>
<path d="M800.918 825.618C807.967 826.472 813.528 832.033 814.382 839.082C817.206 862.406 817.206 879.594 814.382 902.918C813.528 909.967 807.967 915.528 800.918 916.382C777.594 919.206 760.406 919.206 737.082 916.382C730.033 915.528 724.472 909.967 723.618 902.918C720.794 879.594 720.794 862.406 723.618 839.082C724.472 832.033 730.033 826.472 737.082 825.618C760.406 822.794 777.594 822.794 800.918 825.618Z" stroke="#0085FF" stroke-opacity="0.33" stroke-width="5"/>
<path d="M756.422 862.799C756.602 862.367 756.926 862.151 757.394 862.151C757.826 862.151 758.096 862.25 758.204 862.448C758.312 862.628 758.366 862.97 758.366 863.474C758.366 864.068 758.366 864.626 758.366 865.148C758.384 865.652 758.393 866.039 758.393 866.309C758.411 866.579 758.42 866.723 758.42 866.741C758.42 867.119 758.357 867.389 758.231 867.551C758.105 867.713 757.853 867.794 757.475 867.794C757.259 867.794 757.079 867.776 756.935 867.74C756.791 867.704 756.674 867.623 756.584 867.497C756.512 867.353 756.458 867.236 756.422 867.146C756.404 867.038 756.368 866.849 756.314 866.579C756.26 866.309 756.215 866.102 756.179 865.958C756.017 865.328 755.621 864.806 754.991 864.392C754.361 863.96 753.614 863.744 752.75 863.744C751.184 863.744 749.933 864.311 748.997 865.445C748.061 866.579 747.593 868.163 747.593 870.197C747.593 872.069 748.079 873.563 749.051 874.679C750.041 875.777 751.292 876.326 752.804 876.326C753.83 876.326 754.865 876.038 755.909 875.462C756.125 875.336 756.368 875.174 756.638 874.976C756.908 874.778 757.124 874.634 757.286 874.544C757.466 874.436 757.628 874.382 757.772 874.382C758.06 874.382 758.294 874.472 758.474 874.652C758.654 874.832 758.744 875.057 758.744 875.327C758.744 875.795 758.249 876.344 757.259 876.974C755.819 877.91 754.298 878.378 752.696 878.378C750.536 878.378 748.745 877.613 747.323 876.083C745.901 874.553 745.19 872.591 745.19 870.197C745.19 867.839 745.901 865.877 747.323 864.311C748.763 862.745 750.572 861.962 752.75 861.962C753.884 861.962 755.108 862.241 756.422 862.799ZM768.533 871.52L771.341 863.258C771.557 862.664 772.034 862.367 772.772 862.367H774.959C775.535 862.367 775.823 862.664 775.823 863.258C775.823 863.6 775.724 863.834 775.526 863.96C775.346 864.086 775.022 864.149 774.554 864.149H774.338L774.716 876.137C774.716 876.137 774.86 876.137 775.148 876.137C775.634 876.137 775.967 876.2 776.147 876.326C776.345 876.452 776.444 876.695 776.444 877.055C776.444 877.685 776.138 878 775.526 878H771.827C771.341 878 770.999 877.937 770.801 877.811C770.603 877.685 770.504 877.433 770.504 877.055C770.504 876.695 770.621 876.452 770.855 876.326C771.107 876.2 771.521 876.137 772.097 876.137H772.664L772.367 864.797L769.775 872.384C769.649 872.744 769.487 872.996 769.289 873.14C769.091 873.284 768.803 873.356 768.425 873.356C768.065 873.356 767.786 873.284 767.588 873.14C767.39 872.996 767.228 872.744 767.102 872.384L764.456 864.797L764.213 876.137C764.411 876.119 764.708 876.11 765.104 876.11C765.608 876.11 765.968 876.182 766.184 876.326C766.4 876.47 766.508 876.713 766.508 877.055C766.508 877.433 766.409 877.685 766.211 877.811C766.013 877.937 765.671 878 765.185 878H761.486C760.874 878 760.568 877.685 760.568 877.055C760.568 876.695 760.658 876.452 760.838 876.326C761.036 876.2 761.378 876.137 761.864 876.137H762.296L762.674 864.149H762.458C761.99 864.149 761.657 864.086 761.459 863.96C761.279 863.834 761.189 863.6 761.189 863.258C761.189 862.664 761.477 862.367 762.053 862.367H764.213C764.951 862.367 765.428 862.664 765.644 863.258L768.533 871.52ZM781.589 878H779.51C779.51 878 779.312 878 778.916 878C778.268 878 777.944 877.685 777.944 877.055C777.944 876.695 778.034 876.452 778.214 876.326C778.412 876.2 778.736 876.137 779.186 876.137H779.537V864.257C779.537 864.257 779.429 864.257 779.213 864.257C778.763 864.257 778.439 864.194 778.241 864.068C778.043 863.924 777.944 863.672 777.944 863.312C777.944 862.898 778.052 862.637 778.268 862.529C778.502 862.421 778.916 862.367 779.51 862.367H781.589H784.505C786.683 862.367 788.42 863.069 789.716 864.473C791.03 865.877 791.687 867.785 791.687 870.197C791.687 872.609 790.958 874.571 789.5 876.083C788.24 877.397 786.224 878.054 783.452 878.054C783.272 878.054 782.975 878.045 782.561 878.027C782.147 878.009 781.823 878 781.589 878ZM781.589 876.137C782.165 876.191 782.714 876.218 783.236 876.218C785.396 876.218 786.98 875.732 787.988 874.76C788.996 873.788 789.5 872.267 789.5 870.197C789.5 868.091 788.987 866.57 787.961 865.634C786.953 864.68 785.342 864.203 783.128 864.203C782.462 864.203 781.949 864.221 781.589 864.257V876.137Z" fill="#0085FF"/>
<path d="M926.864 838.782C925.872 830.59 919.41 824.128 911.218 823.136C887.695 820.288 870.305 820.288 846.782 823.136C838.59 824.128 832.128 830.59 831.136 838.782C828.288 862.305 828.288 879.695 831.136 903.218C832.128 911.41 838.59 917.872 846.782 918.864C870.305 921.712 887.695 921.712 911.218 918.864C919.41 917.872 925.872 911.41 926.864 903.218C929.712 879.695 929.712 862.305 926.864 838.782Z" fill="#0085FF" fill-opacity="0.33"/>
<path d="M910.918 825.618C917.967 826.472 923.528 832.033 924.382 839.082C927.206 862.406 927.206 879.594 924.382 902.918C923.528 909.967 917.967 915.528 910.918 916.382C887.594 919.206 870.406 919.206 847.082 916.382C840.033 915.528 834.472 909.967 833.618 902.918C830.794 879.594 830.794 862.406 833.618 839.082C834.472 832.033 840.033 826.472 847.082 825.618C870.406 822.794 887.594 822.794 910.918 825.618Z" stroke="#0085FF" stroke-opacity="0.33" stroke-width="5"/>
<path d="M858.808 874.868C859.672 875.984 860.824 876.542 862.264 876.542C863.704 876.542 864.856 875.984 865.72 874.868C866.584 873.752 867.016 872.186 867.016 870.17C867.016 868.154 866.584 866.588 865.72 865.472C864.856 864.356 863.704 863.798 862.264 863.798C860.788 863.798 859.627 864.356 858.781 865.472C857.935 866.57 857.512 868.136 857.512 870.17C857.512 872.186 857.944 873.752 858.808 874.868ZM867.367 864.257C868.717 865.787 869.392 867.758 869.392 870.17C869.392 872.582 868.717 874.562 867.367 876.11C866.035 877.64 864.334 878.405 862.264 878.405C860.212 878.405 858.511 877.631 857.161 876.083C855.811 874.535 855.136 872.564 855.136 870.17C855.136 867.74 855.802 865.76 857.134 864.23C858.466 862.7 860.176 861.935 862.264 861.935C864.334 861.935 866.035 862.709 867.367 864.257ZM879.046 876.137C879.856 876.137 880.261 876.443 880.261 877.055C880.261 877.433 880.162 877.685 879.964 877.811C879.766 877.937 879.424 878 878.938 878H872.485C871.873 878 871.567 877.685 871.567 877.055C871.567 876.443 871.882 876.137 872.512 876.137H874.213V864.257H873.295C872.629 864.257 872.17 864.203 871.918 864.095C871.684 863.987 871.567 863.726 871.567 863.312C871.567 862.682 871.873 862.367 872.485 862.367H878.587C882.943 862.367 885.121 863.996 885.121 867.254C885.121 870.494 882.943 872.114 878.587 872.114H876.292V876.137H879.046ZM876.292 864.257V870.386H878.722C881.494 870.386 882.88 869.36 882.88 867.308C882.88 865.274 881.494 864.257 878.722 864.257H876.292ZM889.807 867.686C889.789 868.298 889.717 868.712 889.591 868.928C889.483 869.126 889.213 869.225 888.781 869.225C888.169 869.225 887.863 868.901 887.863 868.253C887.863 868.109 887.872 867.902 887.89 867.632L888.025 863.285C888.043 862.673 888.376 862.367 889.024 862.367H900.472C901.12 862.367 901.453 862.673 901.471 863.285L901.606 867.632C901.606 867.722 901.606 867.812 901.606 867.902C901.606 867.974 901.606 868.037 901.606 868.091C901.624 868.127 901.633 868.163 901.633 868.199C901.633 868.235 901.633 868.262 901.633 868.28C901.633 868.91 901.327 869.225 900.715 869.225C900.283 869.225 900.004 869.126 899.878 868.928C899.77 868.712 899.707 868.298 899.689 867.686L899.554 864.257H895.774V876.137H897.799H898.312C899.014 876.137 899.365 876.443 899.365 877.055C899.365 877.685 899.059 878 898.447 878H891.049C890.437 878 890.131 877.685 890.131 877.055C890.131 876.713 890.212 876.479 890.374 876.353C890.554 876.209 890.851 876.137 891.265 876.137H891.697H893.695V864.257H889.915L889.807 867.686Z" fill="#0085FF"/>
<path d="M1036.86 838.782C1035.87 830.59 1029.41 824.128 1021.22 823.136C997.695 820.288 980.305 820.288 956.782 823.136C948.59 824.128 942.128 830.59 941.136 838.782C938.288 862.305 938.288 879.695 941.136 903.218C942.128 911.41 948.59 917.872 956.782 918.864C980.305 921.712 997.695 921.712 1021.22 918.864C1029.41 917.872 1035.87 911.41 1036.86 903.218C1039.71 879.695 1039.71 862.305 1036.86 838.782Z" fill="#0085FF" fill-opacity="0.33"/>
<path d="M1020.92 825.618C1027.97 826.472 1033.53 832.033 1034.38 839.082C1037.21 862.406 1037.21 879.594 1034.38 902.918C1033.53 909.967 1027.97 915.528 1020.92 916.382C997.594 919.206 980.406 919.206 957.082 916.382C950.033 915.528 944.472 909.967 943.618 902.918C940.794 879.594 940.794 862.406 943.618 839.082C944.472 832.033 950.033 826.472 957.082 825.618C980.406 822.794 997.594 822.794 1020.92 825.618Z" stroke="#0085FF" stroke-opacity="0.33" stroke-width="5"/>
<path d="M976.422 862.799C976.602 862.367 976.926 862.151 977.394 862.151C977.826 862.151 978.096 862.25 978.204 862.448C978.312 862.628 978.366 862.97 978.366 863.474C978.366 864.068 978.366 864.626 978.366 865.148C978.384 865.652 978.393 866.039 978.393 866.309C978.411 866.579 978.42 866.723 978.42 866.741C978.42 867.119 978.357 867.389 978.231 867.551C978.105 867.713 977.853 867.794 977.475 867.794C977.259 867.794 977.079 867.776 976.935 867.74C976.791 867.704 976.674 867.623 976.584 867.497C976.512 867.353 976.458 867.236 976.422 867.146C976.404 867.038 976.368 866.849 976.314 866.579C976.26 866.309 976.215 866.102 976.179 865.958C976.017 865.328 975.621 864.806 974.991 864.392C974.361 863.96 973.614 863.744 972.75 863.744C971.184 863.744 969.933 864.311 968.997 865.445C968.061 866.579 967.593 868.163 967.593 870.197C967.593 872.069 968.079 873.563 969.051 874.679C970.041 875.777 971.292 876.326 972.804 876.326C973.83 876.326 974.865 876.038 975.909 875.462C976.125 875.336 976.368 875.174 976.638 874.976C976.908 874.778 977.124 874.634 977.286 874.544C977.466 874.436 977.628 874.382 977.772 874.382C978.06 874.382 978.294 874.472 978.474 874.652C978.654 874.832 978.744 875.057 978.744 875.327C978.744 875.795 978.249 876.344 977.259 876.974C975.819 877.91 974.298 878.378 972.696 878.378C970.536 878.378 968.745 877.613 967.323 876.083C965.901 874.553 965.19 872.591 965.19 870.197C965.19 867.839 965.901 865.877 967.323 864.311C968.763 862.745 970.572 861.962 972.75 861.962C973.884 861.962 975.108 862.241 976.422 862.799ZM983.565 867.686C983.547 868.298 983.475 868.712 983.349 868.928C983.241 869.126 982.971 869.225 982.539 869.225C981.927 869.225 981.621 868.901 981.621 868.253C981.621 868.109 981.63 867.902 981.648 867.632L981.783 863.285C981.801 862.673 982.134 862.367 982.782 862.367H994.23C994.878 862.367 995.211 862.673 995.229 863.285L995.364 867.632C995.364 867.722 995.364 867.812 995.364 867.902C995.364 867.974 995.364 868.037 995.364 868.091C995.382 868.127 995.391 868.163 995.391 868.199C995.391 868.235 995.391 868.262 995.391 868.28C995.391 868.91 995.085 869.225 994.473 869.225C994.041 869.225 993.762 869.126 993.636 868.928C993.528 868.712 993.465 868.298 993.447 867.686L993.312 864.257H989.532V876.137H991.557H992.07C992.772 876.137 993.123 876.443 993.123 877.055C993.123 877.685 992.817 878 992.205 878H984.807C984.195 878 983.889 877.685 983.889 877.055C983.889 876.713 983.97 876.479 984.132 876.353C984.312 876.209 984.609 876.137 985.023 876.137H985.455H987.453V864.257H983.673L983.565 867.686ZM1009.72 872.681C1009.72 872.069 1009.77 871.655 1009.88 871.439C1010 871.223 1010.27 871.115 1010.66 871.115C1011.08 871.115 1011.34 871.232 1011.44 871.466C1011.55 871.682 1011.61 872.087 1011.61 872.681V877.028C1011.61 877.676 1011.29 878 1010.66 878H998.97H998.349C997.719 878 997.404 877.685 997.404 877.055C997.404 876.659 997.512 876.407 997.728 876.299C997.944 876.191 998.358 876.137 998.97 876.137H1000.62V864.257H998.97C998.358 864.257 997.944 864.203 997.728 864.095C997.512 863.969 997.404 863.708 997.404 863.312C997.404 862.898 997.512 862.637 997.728 862.529C997.962 862.421 998.376 862.367 998.97 862.367H1004.91H1005.53C1006.18 862.367 1006.5 862.682 1006.5 863.312C1006.5 863.726 1006.39 863.987 1006.15 864.095C1005.94 864.203 1005.52 864.257 1004.91 864.257H1002.7V876.137H1009.72V872.681Z" fill="#0085FF"/>
<path d="M1146.86 838.782C1145.87 830.59 1139.41 824.128 1131.22 823.136C1107.69 820.288 1090.31 820.288 1066.78 823.136C1058.59 824.128 1052.13 830.59 1051.14 838.782C1048.29 862.305 1048.29 879.695 1051.14 903.218C1052.13 911.41 1058.59 917.872 1066.78 918.864C1090.31 921.712 1107.69 921.712 1131.22 918.864C1139.41 917.872 1145.87 911.41 1146.86 903.218C1149.71 879.695 1149.71 862.305 1146.86 838.782Z" fill="#0085FF" fill-opacity="0.33"/>
<path d="M1130.92 825.618C1137.97 826.472 1143.53 832.033 1144.38 839.082C1147.21 862.406 1147.21 879.594 1144.38 902.918C1143.53 909.967 1137.97 915.528 1130.92 916.382C1107.59 919.206 1090.41 919.206 1067.08 916.382C1060.03 915.528 1054.47 909.967 1053.62 902.918C1050.79 879.594 1050.79 862.406 1053.62 839.082C1054.47 832.033 1060.03 826.472 1067.08 825.618C1090.41 822.794 1107.59 822.794 1130.92 825.618Z" stroke="#0085FF" stroke-opacity="0.33" stroke-width="5"/>
<path d="M1078.4 877.541C1078.37 877.937 1078.27 878.207 1078.11 878.351C1077.96 878.513 1077.71 878.594 1077.35 878.594C1076.65 878.594 1076.27 878.135 1076.22 877.217L1076.05 874.166V873.896C1076.05 873.5 1076.13 873.212 1076.27 873.032C1076.41 872.852 1076.68 872.762 1077.08 872.762C1077.42 872.762 1077.66 872.843 1077.81 873.005C1077.97 873.167 1078.11 873.455 1078.21 873.869C1078.34 874.283 1078.45 874.58 1078.54 874.76C1079.17 876.038 1080.45 876.677 1082.37 876.677C1083.52 876.677 1084.45 876.407 1085.15 875.867C1085.85 875.327 1086.21 874.643 1086.21 873.815C1086.21 872.411 1085.35 871.583 1083.64 871.331L1081.7 871.061C1079.91 870.809 1078.59 870.341 1077.73 869.657C1076.88 868.955 1076.46 867.956 1076.46 866.66C1076.46 865.328 1077.01 864.203 1078.11 863.285C1079.22 862.367 1080.62 861.908 1082.29 861.908C1083.23 861.908 1084.34 862.169 1085.64 862.691C1085.64 862.439 1085.7 862.268 1085.83 862.178C1085.95 862.07 1086.17 862.016 1086.48 862.016C1086.93 862.016 1087.2 862.088 1087.31 862.232C1087.44 862.358 1087.52 862.619 1087.56 863.015L1087.74 865.769V865.904C1087.74 866.552 1087.41 866.876 1086.75 866.876C1086.42 866.876 1086.19 866.795 1086.04 866.633C1085.9 866.471 1085.76 866.219 1085.64 865.877C1085.53 865.517 1085.41 865.247 1085.29 865.067C1084.66 864.149 1083.62 863.69 1082.18 863.69C1081.1 863.69 1080.23 863.96 1079.56 864.5C1078.92 865.022 1078.59 865.706 1078.59 866.552C1078.59 867.866 1079.6 868.658 1081.62 868.928L1083.72 869.198C1086.82 869.612 1088.37 871.07 1088.37 873.572C1088.37 875.03 1087.81 876.209 1086.69 877.109C1085.59 878.009 1084.13 878.459 1082.29 878.459C1081.07 878.459 1079.77 878.153 1078.4 877.541ZM1098.4 876.137C1098.4 876.137 1098.57 876.137 1098.91 876.137C1099.61 876.137 1099.96 876.443 1099.96 877.055C1099.96 877.685 1099.66 878 1099.05 878H1092.54C1091.93 878 1091.62 877.685 1091.62 877.055C1091.62 876.713 1091.7 876.479 1091.86 876.353C1092.04 876.209 1092.34 876.137 1092.75 876.137H1093.19H1094.02V864.257H1093.19C1093.19 864.257 1093.02 864.257 1092.67 864.257C1091.97 864.257 1091.62 863.942 1091.62 863.312C1091.62 862.682 1091.93 862.367 1092.54 862.367H1104.2C1104.81 862.367 1105.12 862.718 1105.12 863.42V866.822C1105.12 867.434 1104.81 867.74 1104.2 867.74C1103.86 867.74 1103.62 867.65 1103.47 867.47C1103.33 867.29 1103.26 866.993 1103.26 866.579C1103.26 866.579 1103.26 866.435 1103.26 866.147V864.257H1096.1V868.712H1099.59C1099.59 868.712 1099.59 868.595 1099.59 868.361C1099.59 867.767 1099.64 867.353 1099.75 867.119C1099.86 866.867 1100.08 866.741 1100.42 866.741C1100.96 866.741 1101.23 867.092 1101.23 867.794V871.142C1101.23 871.556 1101.17 871.853 1101.04 872.033C1100.94 872.213 1100.73 872.303 1100.42 872.303C1100.08 872.303 1099.86 872.186 1099.75 871.952C1099.64 871.7 1099.59 871.277 1099.59 870.683V870.305H1096.1V876.137H1098.4ZM1109.81 867.686C1109.79 868.298 1109.72 868.712 1109.59 868.928C1109.48 869.126 1109.21 869.225 1108.78 869.225C1108.17 869.225 1107.86 868.901 1107.86 868.253C1107.86 868.109 1107.87 867.902 1107.89 867.632L1108.03 863.285C1108.04 862.673 1108.38 862.367 1109.02 862.367H1120.47C1121.12 862.367 1121.45 862.673 1121.47 863.285L1121.61 867.632C1121.61 867.722 1121.61 867.812 1121.61 867.902C1121.61 867.974 1121.61 868.037 1121.61 868.091C1121.62 868.127 1121.63 868.163 1121.63 868.199C1121.63 868.235 1121.63 868.262 1121.63 868.28C1121.63 868.91 1121.33 869.225 1120.72 869.225C1120.28 869.225 1120 869.126 1119.88 868.928C1119.77 868.712 1119.71 868.298 1119.69 867.686L1119.55 864.257H1115.77V876.137H1117.8H1118.31C1119.01 876.137 1119.37 876.443 1119.37 877.055C1119.37 877.685 1119.06 878 1118.45 878H1111.05C1110.44 878 1110.13 877.685 1110.13 877.055C1110.13 876.713 1110.21 876.479 1110.37 876.353C1110.55 876.209 1110.85 876.137 1111.27 876.137H1111.7H1113.7V864.257H1109.92L1109.81 867.686Z" fill="#0085FF"/>
<path d="M690.918 935.618C697.967 936.472 703.528 942.033 704.382 949.082C707.206 972.406 707.206 989.594 704.382 1012.92C703.528 1019.97 697.967 1025.53 690.918 1026.38C667.594 1029.21 650.406 1029.21 627.082 1026.38C620.033 1025.53 614.472 1019.97 613.618 1012.92C610.794 989.594 610.794 972.406 613.618 949.082C614.472 942.033 620.033 936.472 627.082 935.618C650.406 932.794 667.594 932.794 690.918 935.618Z" stroke="#0085FF" stroke-opacity="0.33" stroke-width="5"/>
<path d="M800.918 935.618C807.967 936.472 813.528 942.033 814.382 949.082C817.206 972.406 817.206 989.594 814.382 1012.92C813.528 1019.97 807.967 1025.53 800.918 1026.38C777.594 1029.21 760.406 1029.21 737.082 1026.38C730.033 1025.53 724.472 1019.97 723.618 1012.92C720.794 989.594 720.794 972.406 723.618 949.082C724.472 942.033 730.033 936.472 737.082 935.618C760.406 932.794 777.594 932.794 800.918 935.618Z" stroke="#0085FF" stroke-opacity="0.33" stroke-width="5"/>
<path d="M910.918 935.618C917.967 936.472 923.528 942.033 924.382 949.082C927.206 972.406 927.206 989.594 924.382 1012.92C923.528 1019.97 917.967 1025.53 910.918 1026.38C887.594 1029.21 870.406 1029.21 847.082 1026.38C840.033 1025.53 834.472 1019.97 833.618 1012.92C830.794 989.594 830.794 972.406 833.618 949.082C834.472 942.033 840.033 936.472 847.082 935.618C870.406 932.794 887.594 932.794 910.918 935.618Z" stroke="#0085FF" stroke-opacity="0.33" stroke-width="5"/>
<path d="M1020.92 935.618C1027.97 936.472 1033.53 942.033 1034.38 949.082C1037.21 972.406 1037.21 989.594 1034.38 1012.92C1033.53 1019.97 1027.97 1025.53 1020.92 1026.38C997.594 1029.21 980.406 1029.21 957.082 1026.38C950.033 1025.53 944.472 1019.97 943.618 1012.92C940.794 989.594 940.794 972.406 943.618 949.082C944.472 942.033 950.033 936.472 957.082 935.618C980.406 932.794 997.594 932.794 1020.92 935.618Z" stroke="#0085FF" stroke-opacity="0.33" stroke-width="5"/>
<path d="M1130.92 935.618C1137.97 936.472 1143.53 942.033 1144.38 949.082C1147.21 972.406 1147.21 989.594 1144.38 1012.92C1143.53 1019.97 1137.97 1025.53 1130.92 1026.38C1107.59 1029.21 1090.41 1029.21 1067.08 1026.38C1060.03 1025.53 1054.47 1019.97 1053.62 1012.92C1050.79 989.594 1050.79 972.406 1053.62 949.082C1054.47 942.033 1060.03 936.472 1067.08 935.618C1090.41 932.794 1107.59 932.794 1130.92 935.618Z" stroke="#0085FF" stroke-opacity="0.33" stroke-width="5"/>
<path d="M90.9179 715.618C97.9671 716.472 103.528 722.033 104.382 729.082C107.206 752.406 107.206 769.594 104.382 792.918C103.528 799.967 97.9671 805.528 90.9179 806.382C67.5937 809.206 50.4063 809.206 27.0821 806.382C20.0329 805.528 14.4717 799.967 13.6181 792.918C10.794 769.594 10.794 752.406 13.6181 729.082C14.4717 722.033 20.0329 716.472 27.0821 715.618C50.4063 712.794 67.5937 712.794 90.9179 715.618Z" stroke="#0085FF" stroke-opacity="0.33" stroke-width="5"/>
<path d="M200.918 715.618C207.967 716.472 213.528 722.033 214.382 729.082C217.206 752.406 217.206 769.594 214.382 792.918C213.528 799.967 207.967 805.528 200.918 806.382C177.594 809.206 160.406 809.206 137.082 806.382C130.033 805.528 124.472 799.967 123.618 792.918C120.794 769.594 120.794 752.406 123.618 729.082C124.472 722.033 130.033 716.472 137.082 715.618C160.406 712.794 177.594 712.794 200.918 715.618Z" stroke="#0085FF" stroke-opacity="0.33" stroke-width="5"/>
<path d="M310.918 715.618C317.967 716.472 323.528 722.033 324.382 729.082C327.206 752.406 327.206 769.594 324.382 792.918C323.528 799.967 317.967 805.528 310.918 806.382C287.594 809.206 270.406 809.206 247.082 806.382C240.033 805.528 234.472 799.967 233.618 792.918C230.794 769.594 230.794 752.406 233.618 729.082C234.472 722.033 240.033 716.472 247.082 715.618C270.406 712.794 287.594 712.794 310.918 715.618Z" stroke="#0085FF" stroke-opacity="0.33" stroke-width="5"/>
<path d="M420.918 715.618C427.967 716.472 433.528 722.033 434.382 729.082C437.206 752.406 437.206 769.594 434.382 792.918C433.528 799.967 427.967 805.528 420.918 806.382C397.594 809.206 380.406 809.206 357.082 806.382C350.033 805.528 344.472 799.967 343.618 792.918C340.794 769.594 340.794 752.406 343.618 729.082C344.472 722.033 350.033 716.472 357.082 715.618C380.406 712.794 397.594 712.794 420.918 715.618Z" stroke="#0085FF" stroke-opacity="0.33" stroke-width="5"/>
<path d="M530.918 715.618C537.967 716.472 543.528 722.033 544.382 729.082C547.206 752.406 547.206 769.594 544.382 792.918C543.528 799.967 537.967 805.528 530.918 806.382C507.594 809.206 490.406 809.206 467.082 806.382C460.033 805.528 454.472 799.967 453.618 792.918C450.794 769.594 450.794 752.406 453.618 729.082C454.472 722.033 460.033 716.472 467.082 715.618C490.406 712.794 507.594 712.794 530.918 715.618Z" stroke="#0085FF" stroke-opacity="0.33" stroke-width="5"/>
<path d="M106.864 838.782C105.872 830.59 99.4102 824.128 91.2184 823.136C67.6946 820.288 50.3054 820.288 26.7816 823.136C18.5898 824.128 12.1282 830.59 11.1363 838.782C8.28791 862.305 8.28791 879.695 11.1363 903.218C12.1282 911.41 18.5898 917.872 26.7816 918.864C50.3054 921.712 67.6946 921.712 91.2184 918.864C99.4102 917.872 105.872 911.41 106.864 903.218C109.712 879.695 109.712 862.305 106.864 838.782Z" fill="#0085FF" fill-opacity="0.33"/>
<path d="M90.9179 825.618C97.9671 826.472 103.528 832.033 104.382 839.082C107.206 862.406 107.206 879.594 104.382 902.918C103.528 909.967 97.9671 915.528 90.9179 916.382C67.5937 919.206 50.4063 919.206 27.0821 916.382C20.0329 915.528 14.4717 909.967 13.6181 902.918C10.794 879.594 10.794 862.406 13.6181 839.082C14.4717 832.033 20.0329 826.472 27.0821 825.618C50.4063 822.794 67.5937 822.794 90.9179 825.618Z" stroke="#0085FF" stroke-opacity="0.33" stroke-width="5"/>
<path d="M38.4027 877.541C38.3667 877.937 38.2677 878.207 38.1057 878.351C37.9617 878.513 37.7097 878.594 37.3497 878.594C36.6477 878.594 36.2697 878.135 36.2157 877.217L36.0537 874.166V873.896C36.0537 873.5 36.1257 873.212 36.2697 873.032C36.4137 872.852 36.6837 872.762 37.0797 872.762C37.4217 872.762 37.6647 872.843 37.8087 873.005C37.9707 873.167 38.1057 873.455 38.2137 873.869C38.3397 874.283 38.4477 874.58 38.5377 874.76C39.1677 876.038 40.4457 876.677 42.3717 876.677C43.5237 876.677 44.4507 876.407 45.1527 875.867C45.8547 875.327 46.2057 874.643 46.2057 873.815C46.2057 872.411 45.3507 871.583 43.6407 871.331L41.6967 871.061C39.9147 870.809 38.5917 870.341 37.7277 869.657C36.8817 868.955 36.4587 867.956 36.4587 866.66C36.4587 865.328 37.0077 864.203 38.1057 863.285C39.2217 862.367 40.6167 861.908 42.2907 861.908C43.2267 861.908 44.3427 862.169 45.6387 862.691C45.6387 862.439 45.7017 862.268 45.8277 862.178C45.9537 862.07 46.1697 862.016 46.4757 862.016C46.9257 862.016 47.2047 862.088 47.3127 862.232C47.4387 862.358 47.5197 862.619 47.5557 863.015L47.7447 865.769V865.904C47.7447 866.552 47.4117 866.876 46.7457 866.876C46.4217 866.876 46.1877 866.795 46.0437 866.633C45.8997 866.471 45.7647 866.219 45.6387 865.877C45.5307 865.517 45.4137 865.247 45.2877 865.067C44.6577 864.149 43.6227 863.69 42.1827 863.69C41.1027 863.69 40.2297 863.96 39.5637 864.5C38.9157 865.022 38.5917 865.706 38.5917 866.552C38.5917 867.866 39.5997 868.658 41.6157 868.928L43.7217 869.198C46.8177 869.612 48.3657 871.07 48.3657 873.572C48.3657 875.03 47.8077 876.209 46.6917 877.109C45.5937 878.009 44.1267 878.459 42.2907 878.459C41.0667 878.459 39.7707 878.153 38.4027 877.541ZM58.3979 876.137C58.3979 876.137 58.5689 876.137 58.9109 876.137C59.6129 876.137 59.9639 876.443 59.9639 877.055C59.9639 877.685 59.6579 878 59.0459 878H52.5389C51.9269 878 51.6209 877.685 51.6209 877.055C51.6209 876.713 51.7019 876.479 51.8639 876.353C52.0439 876.209 52.3409 876.137 52.7549 876.137H53.1869H54.0239V864.257H53.1869C53.1869 864.257 53.0159 864.257 52.6739 864.257C51.9719 864.257 51.6209 863.942 51.6209 863.312C51.6209 862.682 51.9269 862.367 52.5389 862.367H64.2029C64.8149 862.367 65.1209 862.718 65.1209 863.42V866.822C65.1209 867.434 64.8149 867.74 64.2029 867.74C63.8609 867.74 63.6179 867.65 63.4739 867.47C63.3299 867.29 63.2579 866.993 63.2579 866.579C63.2579 866.579 63.2579 866.435 63.2579 866.147V864.257H56.1029V868.712H59.5859C59.5859 868.712 59.5859 868.595 59.5859 868.361C59.5859 867.767 59.6399 867.353 59.7479 867.119C59.8559 866.867 60.0809 866.741 60.4229 866.741C60.9629 866.741 61.2329 867.092 61.2329 867.794V871.142C61.2329 871.556 61.1699 871.853 61.0439 872.033C60.9359 872.213 60.7289 872.303 60.4229 872.303C60.0809 872.303 59.8559 872.186 59.7479 871.952C59.6399 871.7 59.5859 871.277 59.5859 870.683V870.305H56.1029V876.137H58.3979ZM69.8071 867.686C69.7891 868.298 69.7171 868.712 69.5911 868.928C69.4831 869.126 69.2131 869.225 68.7811 869.225C68.1691 869.225 67.8631 868.901 67.8631 868.253C67.8631 868.109 67.8721 867.902 67.8901 867.632L68.0251 863.285C68.0431 862.673 68.3761 862.367 69.0241 862.367H80.4721C81.1201 862.367 81.4531 862.673 81.4711 863.285L81.6061 867.632C81.6061 867.722 81.6061 867.812 81.6061 867.902C81.6061 867.974 81.6061 868.037 81.6061 868.091C81.6241 868.127 81.6331 868.163 81.6331 868.199C81.6331 868.235 81.6331 868.262 81.6331 868.28C81.6331 868.91 81.3271 869.225 80.7151 869.225C80.2831 869.225 80.0041 869.126 79.8781 868.928C79.7701 868.712 79.7071 868.298 79.6891 867.686L79.5541 864.257H75.7741V876.137H77.7991H78.3121C79.0141 876.137 79.3651 876.443 79.3651 877.055C79.3651 877.685 79.0591 878 78.4471 878H71.0491C70.4371 878 70.1311 877.685 70.1311 877.055C70.1311 876.713 70.2121 876.479 70.3741 876.353C70.5541 876.209 70.8511 876.137 71.2651 876.137H71.6971H73.6951V864.257H69.9151L69.8071 867.686Z" fill="#0085FF"/>
<path d="M216.864 838.782C215.872 830.59 209.41 824.128 201.218 823.136C177.695 820.288 160.305 820.288 136.782 823.136C128.59 824.128 122.128 830.59 121.136 838.782C118.288 862.305 118.288 879.695 121.136 903.218C122.128 911.41 128.59 917.872 136.782 918.864C160.305 921.712 177.695 921.712 201.218 918.864C209.41 917.872 215.872 911.41 216.864 903.218C219.712 879.695 219.712 862.305 216.864 838.782Z" fill="#0085FF" fill-opacity="0.33"/>
<path d="M200.918 825.618C207.967 826.472 213.528 832.033 214.382 839.082C217.206 862.406 217.206 879.594 214.382 902.918C213.528 909.967 207.967 915.528 200.918 916.382C177.594 919.206 160.406 919.206 137.082 916.382C130.033 915.528 124.472 909.967 123.618 902.918C120.794 879.594 120.794 862.406 123.618 839.082C124.472 832.033 130.033 826.472 137.082 825.618C160.406 822.794 177.594 822.794 200.918 825.618Z" stroke="#0085FF" stroke-opacity="0.33" stroke-width="5"/>
<path d="M156.422 862.799C156.602 862.367 156.926 862.151 157.394 862.151C157.826 862.151 158.096 862.25 158.204 862.448C158.312 862.628 158.366 862.97 158.366 863.474C158.366 864.068 158.366 864.626 158.366 865.148C158.384 865.652 158.393 866.039 158.393 866.309C158.411 866.579 158.42 866.723 158.42 866.741C158.42 867.119 158.357 867.389 158.231 867.551C158.105 867.713 157.853 867.794 157.475 867.794C157.259 867.794 157.079 867.776 156.935 867.74C156.791 867.704 156.674 867.623 156.584 867.497C156.512 867.353 156.458 867.236 156.422 867.146C156.404 867.038 156.368 866.849 156.314 866.579C156.26 866.309 156.215 866.102 156.179 865.958C156.017 865.328 155.621 864.806 154.991 864.392C154.361 863.96 153.614 863.744 152.75 863.744C151.184 863.744 149.933 864.311 148.997 865.445C148.061 866.579 147.593 868.163 147.593 870.197C147.593 872.069 148.079 873.563 149.051 874.679C150.041 875.777 151.292 876.326 152.804 876.326C153.83 876.326 154.865 876.038 155.909 875.462C156.125 875.336 156.368 875.174 156.638 874.976C156.908 874.778 157.124 874.634 157.286 874.544C157.466 874.436 157.628 874.382 157.772 874.382C158.06 874.382 158.294 874.472 158.474 874.652C158.654 874.832 158.744 875.057 158.744 875.327C158.744 875.795 158.249 876.344 157.259 876.974C155.819 877.91 154.298 878.378 152.696 878.378C150.536 878.378 148.745 877.613 147.323 876.083C145.901 874.553 145.19 872.591 145.19 870.197C145.19 867.839 145.901 865.877 147.323 864.311C148.763 862.745 150.572 861.962 152.75 861.962C153.884 861.962 155.108 862.241 156.422 862.799ZM163.565 867.686C163.547 868.298 163.475 868.712 163.349 868.928C163.241 869.126 162.971 869.225 162.539 869.225C161.927 869.225 161.621 868.901 161.621 868.253C161.621 868.109 161.63 867.902 161.648 867.632L161.783 863.285C161.801 862.673 162.134 862.367 162.782 862.367H174.23C174.878 862.367 175.211 862.673 175.229 863.285L175.364 867.632C175.364 867.722 175.364 867.812 175.364 867.902C175.364 867.974 175.364 868.037 175.364 868.091C175.382 868.127 175.391 868.163 175.391 868.199C175.391 868.235 175.391 868.262 175.391 868.28C175.391 868.91 175.085 869.225 174.473 869.225C174.041 869.225 173.762 869.126 173.636 868.928C173.528 868.712 173.465 868.298 173.447 867.686L173.312 864.257H169.532V876.137H171.557H172.07C172.772 876.137 173.123 876.443 173.123 877.055C173.123 877.685 172.817 878 172.205 878H164.807C164.195 878 163.889 877.685 163.889 877.055C163.889 876.713 163.97 876.479 164.132 876.353C164.312 876.209 164.609 876.137 165.023 876.137H165.455H167.453V864.257H163.673L163.565 867.686ZM189.716 872.681C189.716 872.069 189.77 871.655 189.878 871.439C190.004 871.223 190.265 871.115 190.661 871.115C191.075 871.115 191.336 871.232 191.444 871.466C191.552 871.682 191.606 872.087 191.606 872.681V877.028C191.606 877.676 191.291 878 190.661 878H178.97H178.349C177.719 878 177.404 877.685 177.404 877.055C177.404 876.659 177.512 876.407 177.728 876.299C177.944 876.191 178.358 876.137 178.97 876.137H180.617V864.257H178.97C178.358 864.257 177.944 864.203 177.728 864.095C177.512 863.969 177.404 863.708 177.404 863.312C177.404 862.898 177.512 862.637 177.728 862.529C177.962 862.421 178.376 862.367 178.97 862.367H184.91H185.531C186.179 862.367 186.503 862.682 186.503 863.312C186.503 863.726 186.386 863.987 186.152 864.095C185.936 864.203 185.522 864.257 184.91 864.257H182.696V876.137H189.716V872.681Z" fill="#0085FF"/>
<path d="M326.864 838.782C325.872 830.59 319.41 824.128 311.218 823.136C287.695 820.288 270.305 820.288 246.782 823.136C238.59 824.128 232.128 830.59 231.136 838.782C228.288 862.305 228.288 879.695 231.136 903.218C232.128 911.41 238.59 917.872 246.782 918.864C270.305 921.712 287.695 921.712 311.218 918.864C319.41 917.872 325.872 911.41 326.864 903.218C329.712 879.695 329.712 862.305 326.864 838.782Z" fill="#0085FF" fill-opacity="0.33"/>
<path d="M310.918 825.618C317.967 826.472 323.528 832.033 324.382 839.082C327.206 862.406 327.206 879.594 324.382 902.918C323.528 909.967 317.967 915.528 310.918 916.382C287.594 919.206 270.406 919.206 247.082 916.382C240.033 915.528 234.472 909.967 233.618 902.918C230.794 879.594 230.794 862.406 233.618 839.082C234.472 832.033 240.033 826.472 247.082 825.618C270.406 822.794 287.594 822.794 310.918 825.618Z" stroke="#0085FF" stroke-opacity="0.33" stroke-width="5"/>
<path d="M258.808 874.868C259.672 875.984 260.824 876.542 262.264 876.542C263.704 876.542 264.856 875.984 265.72 874.868C266.584 873.752 267.016 872.186 267.016 870.17C267.016 868.154 266.584 866.588 265.72 865.472C264.856 864.356 263.704 863.798 262.264 863.798C260.788 863.798 259.627 864.356 258.781 865.472C257.935 866.57 257.512 868.136 257.512 870.17C257.512 872.186 257.944 873.752 258.808 874.868ZM267.367 864.257C268.717 865.787 269.392 867.758 269.392 870.17C269.392 872.582 268.717 874.562 267.367 876.11C266.035 877.64 264.334 878.405 262.264 878.405C260.212 878.405 258.511 877.631 257.161 876.083C255.811 874.535 255.136 872.564 255.136 870.17C255.136 867.74 255.802 865.76 257.134 864.23C258.466 862.7 260.176 861.935 262.264 861.935C264.334 861.935 266.035 862.709 267.367 864.257ZM279.046 876.137C279.856 876.137 280.261 876.443 280.261 877.055C280.261 877.433 280.162 877.685 279.964 877.811C279.766 877.937 279.424 878 278.938 878H272.485C271.873 878 271.567 877.685 271.567 877.055C271.567 876.443 271.882 876.137 272.512 876.137H274.213V864.257H273.295C272.629 864.257 272.17 864.203 271.918 864.095C271.684 863.987 271.567 863.726 271.567 863.312C271.567 862.682 271.873 862.367 272.485 862.367H278.587C282.943 862.367 285.121 863.996 285.121 867.254C285.121 870.494 282.943 872.114 278.587 872.114H276.292V876.137H279.046ZM276.292 864.257V870.386H278.722C281.494 870.386 282.88 869.36 282.88 867.308C282.88 865.274 281.494 864.257 278.722 864.257H276.292ZM289.807 867.686C289.789 868.298 289.717 868.712 289.591 868.928C289.483 869.126 289.213 869.225 288.781 869.225C288.169 869.225 287.863 868.901 287.863 868.253C287.863 868.109 287.872 867.902 287.89 867.632L288.025 863.285C288.043 862.673 288.376 862.367 289.024 862.367H300.472C301.12 862.367 301.453 862.673 301.471 863.285L301.606 867.632C301.606 867.722 301.606 867.812 301.606 867.902C301.606 867.974 301.606 868.037 301.606 868.091C301.624 868.127 301.633 868.163 301.633 868.199C301.633 868.235 301.633 868.262 301.633 868.28C301.633 868.91 301.327 869.225 300.715 869.225C300.283 869.225 300.004 869.126 299.878 868.928C299.77 868.712 299.707 868.298 299.689 867.686L299.554 864.257H295.774V876.137H297.799H298.312C299.014 876.137 299.365 876.443 299.365 877.055C299.365 877.685 299.059 878 298.447 878H291.049C290.437 878 290.131 877.685 290.131 877.055C290.131 876.713 290.212 876.479 290.374 876.353C290.554 876.209 290.851 876.137 291.265 876.137H291.697H293.695V864.257H289.915L289.807 867.686Z" fill="#0085FF"/>
<path d="M436.864 838.782C435.872 830.59 429.41 824.128 421.218 823.136C397.695 820.288 380.305 820.288 356.782 823.136C348.59 824.128 342.128 830.59 341.136 838.782C338.288 862.305 338.288 879.695 341.136 903.218C342.128 911.41 348.59 917.872 356.782 918.864C380.305 921.712 397.695 921.712 421.218 918.864C429.41 917.872 435.872 911.41 436.864 903.218C439.712 879.695 439.712 862.305 436.864 838.782Z" fill="#0085FF" fill-opacity="0.33"/>
<path d="M420.918 825.618C427.967 826.472 433.528 832.033 434.382 839.082C437.206 862.406 437.206 879.594 434.382 902.918C433.528 909.967 427.967 915.528 420.918 916.382C397.594 919.206 380.406 919.206 357.082 916.382C350.033 915.528 344.472 909.967 343.618 902.918C340.794 879.594 340.794 862.406 343.618 839.082C344.472 832.033 350.033 826.472 357.082 825.618C380.406 822.794 397.594 822.794 420.918 825.618Z" stroke="#0085FF" stroke-opacity="0.33" stroke-width="5"/>
<path d="M376.422 862.799C376.602 862.367 376.926 862.151 377.394 862.151C377.826 862.151 378.096 862.25 378.204 862.448C378.312 862.628 378.366 862.97 378.366 863.474C378.366 864.068 378.366 864.626 378.366 865.148C378.384 865.652 378.393 866.039 378.393 866.309C378.411 866.579 378.42 866.723 378.42 866.741C378.42 867.119 378.357 867.389 378.231 867.551C378.105 867.713 377.853 867.794 377.475 867.794C377.259 867.794 377.079 867.776 376.935 867.74C376.791 867.704 376.674 867.623 376.584 867.497C376.512 867.353 376.458 867.236 376.422 867.146C376.404 867.038 376.368 866.849 376.314 866.579C376.26 866.309 376.215 866.102 376.179 865.958C376.017 865.328 375.621 864.806 374.991 864.392C374.361 863.96 373.614 863.744 372.75 863.744C371.184 863.744 369.933 864.311 368.997 865.445C368.061 866.579 367.593 868.163 367.593 870.197C367.593 872.069 368.079 873.563 369.051 874.679C370.041 875.777 371.292 876.326 372.804 876.326C373.83 876.326 374.865 876.038 375.909 875.462C376.125 875.336 376.368 875.174 376.638 874.976C376.908 874.778 377.124 874.634 377.286 874.544C377.466 874.436 377.628 874.382 377.772 874.382C378.06 874.382 378.294 874.472 378.474 874.652C378.654 874.832 378.744 875.057 378.744 875.327C378.744 875.795 378.249 876.344 377.259 876.974C375.819 877.91 374.298 878.378 372.696 878.378C370.536 878.378 368.745 877.613 367.323 876.083C365.901 874.553 365.19 872.591 365.19 870.197C365.19 867.839 365.901 865.877 367.323 864.311C368.763 862.745 370.572 861.962 372.75 861.962C373.884 861.962 375.108 862.241 376.422 862.799ZM388.533 871.52L391.341 863.258C391.557 862.664 392.034 862.367 392.772 862.367H394.959C395.535 862.367 395.823 862.664 395.823 863.258C395.823 863.6 395.724 863.834 395.526 863.96C395.346 864.086 395.022 864.149 394.554 864.149H394.338L394.716 876.137C394.716 876.137 394.86 876.137 395.148 876.137C395.634 876.137 395.967 876.2 396.147 876.326C396.345 876.452 396.444 876.695 396.444 877.055C396.444 877.685 396.138 878 395.526 878H391.827C391.341 878 390.999 877.937 390.801 877.811C390.603 877.685 390.504 877.433 390.504 877.055C390.504 876.695 390.621 876.452 390.855 876.326C391.107 876.2 391.521 876.137 392.097 876.137H392.664L392.367 864.797L389.775 872.384C389.649 872.744 389.487 872.996 389.289 873.14C389.091 873.284 388.803 873.356 388.425 873.356C388.065 873.356 387.786 873.284 387.588 873.14C387.39 872.996 387.228 872.744 387.102 872.384L384.456 864.797L384.213 876.137C384.411 876.119 384.708 876.11 385.104 876.11C385.608 876.11 385.968 876.182 386.184 876.326C386.4 876.47 386.508 876.713 386.508 877.055C386.508 877.433 386.409 877.685 386.211 877.811C386.013 877.937 385.671 878 385.185 878H381.486C380.874 878 380.568 877.685 380.568 877.055C380.568 876.695 380.658 876.452 380.838 876.326C381.036 876.2 381.378 876.137 381.864 876.137H382.296L382.674 864.149H382.458C381.99 864.149 381.657 864.086 381.459 863.96C381.279 863.834 381.189 863.6 381.189 863.258C381.189 862.664 381.477 862.367 382.053 862.367H384.213C384.951 862.367 385.428 862.664 385.644 863.258L388.533 871.52ZM401.589 878H399.51C399.51 878 399.312 878 398.916 878C398.268 878 397.944 877.685 397.944 877.055C397.944 876.695 398.034 876.452 398.214 876.326C398.412 876.2 398.736 876.137 399.186 876.137H399.537V864.257C399.537 864.257 399.429 864.257 399.213 864.257C398.763 864.257 398.439 864.194 398.241 864.068C398.043 863.924 397.944 863.672 397.944 863.312C397.944 862.898 398.052 862.637 398.268 862.529C398.502 862.421 398.916 862.367 399.51 862.367H401.589H404.505C406.683 862.367 408.42 863.069 409.716 864.473C411.03 865.877 411.687 867.785 411.687 870.197C411.687 872.609 410.958 874.571 409.5 876.083C408.24 877.397 406.224 878.054 403.452 878.054C403.272 878.054 402.975 878.045 402.561 878.027C402.147 878.009 401.823 878 401.589 878ZM401.589 876.137C402.165 876.191 402.714 876.218 403.236 876.218C405.396 876.218 406.98 875.732 407.988 874.76C408.996 873.788 409.5 872.267 409.5 870.197C409.5 868.091 408.987 866.57 407.961 865.634C406.953 864.68 405.342 864.203 403.128 864.203C402.462 864.203 401.949 864.221 401.589 864.257V876.137Z" fill="#0085FF"/>
<path d="M530.918 825.618C537.967 826.472 543.528 832.033 544.382 839.082C547.206 862.406 547.206 879.594 544.382 902.918C543.528 909.967 537.967 915.528 530.918 916.382C507.594 919.206 490.406 919.206 467.082 916.382C460.033 915.528 454.472 909.967 453.618 902.918C450.794 879.594 450.794 862.406 453.618 839.082C454.472 832.033 460.033 826.472 467.082 825.618C490.406 822.794 507.594 822.794 530.918 825.618Z" stroke="#0085FF" stroke-opacity="0.33" stroke-width="5"/>
<path d="M90.9179 935.618C97.9671 936.472 103.528 942.033 104.382 949.082C107.206 972.406 107.206 989.594 104.382 1012.92C103.528 1019.97 97.9671 1025.53 90.9179 1026.38C67.5937 1029.21 50.4063 1029.21 27.0821 1026.38C20.0329 1025.53 14.4717 1019.97 13.6181 1012.92C10.794 989.594 10.794 972.406 13.6181 949.082C14.4717 942.033 20.0329 936.472 27.0821 935.618C50.4063 932.794 67.5937 932.794 90.9179 935.618Z" stroke="#0085FF" stroke-opacity="0.33" stroke-width="5"/>
<path d="M200.918 935.618C207.967 936.472 213.528 942.033 214.382 949.082C217.206 972.406 217.206 989.594 214.382 1012.92C213.528 1019.97 207.967 1025.53 200.918 1026.38C177.594 1029.21 160.406 1029.21 137.082 1026.38C130.033 1025.53 124.472 1019.97 123.618 1012.92C120.794 989.594 120.794 972.406 123.618 949.082C124.472 942.033 130.033 936.472 137.082 935.618C160.406 932.794 177.594 932.794 200.918 935.618Z" stroke="#0085FF" stroke-opacity="0.33" stroke-width="5"/>
<path d="M310.918 935.618C317.967 936.472 323.528 942.033 324.382 949.082C327.206 972.406 327.206 989.594 324.382 1012.92C323.528 1019.97 317.967 1025.53 310.918 1026.38C287.594 1029.21 270.406 1029.21 247.082 1026.38C240.033 1025.53 234.472 1019.97 233.618 1012.92C230.794 989.594 230.794 972.406 233.618 949.082C234.472 942.033 240.033 936.472 247.082 935.618C270.406 932.794 287.594 932.794 310.918 935.618Z" stroke="#0085FF" stroke-opacity="0.33" stroke-width="5"/>
<path d="M420.918 935.618C427.967 936.472 433.528 942.033 434.382 949.082C437.206 972.406 437.206 989.594 434.382 1012.92C433.528 1019.97 427.967 1025.53 420.918 1026.38C397.594 1029.21 380.406 1029.21 357.082 1026.38C350.033 1025.53 344.472 1019.97 343.618 1012.92C340.794 989.594 340.794 972.406 343.618 949.082C344.472 942.033 350.033 936.472 357.082 935.618C380.406 932.794 397.594 932.794 420.918 935.618Z" stroke="#0085FF" stroke-opacity="0.33" stroke-width="5"/>
<path d="M530.918 935.618C537.967 936.472 543.528 942.033 544.382 949.082C547.206 972.406 547.206 989.594 544.382 1012.92C543.528 1019.97 537.967 1025.53 530.918 1026.38C507.594 1029.21 490.406 1029.21 467.082 1026.38C460.033 1025.53 454.472 1019.97 453.618 1012.92C450.794 989.594 450.794 972.406 453.618 949.082C454.472 942.033 460.033 936.472 467.082 935.618C490.406 932.794 507.594 932.794 530.918 935.618Z" stroke="#0085FF" stroke-opacity="0.33" stroke-width="5"/>
<path d="M690.918 535.618C697.967 536.472 703.528 542.033 704.382 549.082C707.206 572.406 707.206 589.594 704.382 612.918C703.528 619.967 697.967 625.528 690.918 626.382C667.594 629.206 650.406 629.206 627.082 626.382C620.033 625.528 614.472 619.967 613.618 612.918C610.794 589.594 610.794 572.406 613.618 549.082C614.472 542.033 620.033 536.472 627.082 535.618C650.406 532.794 667.594 532.794 690.918 535.618Z" stroke="#0085FF" stroke-opacity="0.33" stroke-width="5"/>
<path d="M800.918 535.618C807.967 536.472 813.528 542.033 814.382 549.082C817.206 572.406 817.206 589.594 814.382 612.918C813.528 619.967 807.967 625.528 800.918 626.382C777.594 629.206 760.406 629.206 737.082 626.382C730.033 625.528 724.472 619.967 723.618 612.918C720.794 589.594 720.794 572.406 723.618 549.082C724.472 542.033 730.033 536.472 737.082 535.618C760.406 532.794 777.594 532.794 800.918 535.618Z" stroke="#0085FF" stroke-opacity="0.33" stroke-width="5"/>
<path d="M926.864 548.782C925.872 540.59 919.41 534.128 911.218 533.136C887.695 530.288 870.305 530.288 846.782 533.136C838.59 534.128 832.128 540.59 831.136 548.782C828.288 572.305 828.288 589.695 831.136 613.218C832.128 621.41 838.59 627.872 846.782 628.864C870.305 631.712 887.695 631.712 911.218 628.864C919.41 627.872 925.872 621.41 926.864 613.218C929.712 589.695 929.712 572.305 926.864 548.782Z" fill="#0085FF"/>
<path d="M910.918 535.618C917.967 536.472 923.528 542.033 924.382 549.082C927.206 572.406 927.206 589.594 924.382 612.918C923.528 619.967 917.967 625.528 910.918 626.382C887.594 629.206 870.406 629.206 847.082 626.382C840.033 625.528 834.472 619.967 833.618 612.918C830.794 589.594 830.794 572.406 833.618 549.082C834.472 542.033 840.033 536.472 847.082 535.618C870.406 532.794 887.594 532.794 910.918 535.618Z" stroke="#0085FF" stroke-opacity="0.33" stroke-width="5"/>
<path d="M875.353 582.681C875.353 582.069 875.407 581.655 875.515 581.439C875.641 581.223 875.902 581.115 876.298 581.115C876.712 581.115 876.973 581.232 877.081 581.466C877.189 581.682 877.243 582.087 877.243 582.681V587.028C877.243 587.676 876.928 588 876.298 588H864.607H863.986C863.356 588 863.041 587.685 863.041 587.055C863.041 586.659 863.149 586.407 863.365 586.299C863.581 586.191 863.995 586.137 864.607 586.137H866.254V574.257H864.607C863.995 574.257 863.581 574.203 863.365 574.095C863.149 573.969 863.041 573.708 863.041 573.312C863.041 572.898 863.149 572.637 863.365 572.529C863.599 572.421 864.013 572.367 864.607 572.367H870.547H871.168C871.816 572.367 872.14 572.682 872.14 573.312C872.14 573.726 872.023 573.987 871.789 574.095C871.573 574.203 871.159 574.257 870.547 574.257H868.333V586.137H875.353V582.681ZM883.495 579.36C884.449 578.136 885.61 577.524 886.978 577.524C888.346 577.524 889.516 578.046 890.488 579.09C891.478 580.116 891.973 581.403 891.973 582.951C891.973 584.553 891.505 585.867 890.569 586.893C889.633 587.919 888.427 588.432 886.951 588.432C885.223 588.432 883.837 587.748 882.793 586.38C881.749 585.012 881.227 583.176 881.227 580.872C881.227 577.866 881.992 575.463 883.522 573.663C885.07 571.845 887.104 570.936 889.624 570.936C890.434 570.936 890.983 570.999 891.271 571.125C891.577 571.233 891.73 571.467 891.73 571.827C891.73 572.061 891.676 572.241 891.568 572.367C891.478 572.493 891.325 572.574 891.109 572.61C890.911 572.646 890.695 572.673 890.461 572.691C890.227 572.691 889.921 572.7 889.543 572.718C889.183 572.736 888.841 572.772 888.517 572.826C887.149 573.078 886.024 573.771 885.142 574.905C884.278 576.021 883.729 577.506 883.495 579.36ZM883.792 582.87C883.792 583.968 884.08 584.859 884.656 585.543C885.232 586.209 885.961 586.542 886.843 586.542C887.689 586.542 888.382 586.227 888.922 585.597C889.462 584.949 889.732 584.103 889.732 583.059C889.732 581.979 889.444 581.106 888.868 580.44C888.31 579.774 887.599 579.441 886.735 579.441C885.889 579.441 885.187 579.765 884.629 580.413C884.071 581.043 883.792 581.862 883.792 582.87Z" fill="black"/>
<path d="M311.918 535.618C318.967 536.472 324.528 542.033 325.382 549.082C328.206 572.406 328.206 589.594 325.382 612.918C324.528 619.967 318.967 625.528 311.918 626.382C288.594 629.206 271.406 629.206 248.082 626.382C241.033 625.528 235.472 619.967 234.618 612.918C231.794 589.594 231.794 572.406 234.618 549.082C235.472 542.033 241.033 536.472 248.082 535.618C271.406 532.794 288.594 532.794 311.918 535.618Z" stroke="#0085FF" stroke-width="5"/>
<path d="M421.918 535.618C428.967 536.472 434.528 542.033 435.382 549.082C438.206 572.406 438.206 589.594 435.382 612.918C434.528 619.967 428.967 625.528 421.918 626.382C398.594 629.206 381.406 629.206 358.082 626.382C351.033 625.528 345.472 619.967 344.618 612.918C341.794 589.594 341.794 572.406 344.618 549.082C345.472 542.033 351.033 536.472 358.082 535.618C381.406 532.794 398.594 532.794 421.918 535.618Z" stroke="#0085FF" stroke-width="5"/>
<path d="M531.918 535.618C538.967 536.472 544.528 542.033 545.382 549.082C548.206 572.406 548.206 589.594 545.382 612.918C544.528 619.967 538.967 625.528 531.918 626.382C508.594 629.206 491.406 629.206 468.082 626.382C461.033 625.528 455.472 619.967 454.618 612.918C451.794 589.594 451.794 572.406 454.618 549.082C455.472 542.033 461.033 536.472 468.082 535.618C491.406 532.794 508.594 532.794 531.918 535.618Z" stroke="#0085FF" stroke-width="5"/>
<path d="M690.918 165.618C697.967 166.472 703.528 172.033 704.382 179.082C707.206 202.406 707.206 219.594 704.382 242.918C703.528 249.967 697.967 255.528 690.918 256.382C667.594 259.206 650.406 259.206 627.082 256.382C620.033 255.528 614.472 249.967 613.618 242.918C610.794 219.594 610.794 202.406 613.618 179.082C614.472 172.033 620.033 166.472 627.082 165.618C650.406 162.794 667.594 162.794 690.918 165.618Z" stroke="#0085FF" stroke-opacity="0.33" stroke-width="5"/>
<path d="M800.918 165.618C807.967 166.472 813.528 172.033 814.382 179.082C817.206 202.406 817.206 219.594 814.382 242.918C813.528 249.967 807.967 255.528 800.918 256.382C777.594 259.206 760.406 259.206 737.082 256.382C730.033 255.528 724.472 249.967 723.618 242.918C720.794 219.594 720.794 202.406 723.618 179.082C724.472 172.033 730.033 166.472 737.082 165.618C760.406 162.794 777.594 162.794 800.918 165.618Z" stroke="#0085FF" stroke-opacity="0.33" stroke-width="5"/>
<path d="M910.918 165.618C917.967 166.472 923.528 172.033 924.382 179.082C927.206 202.406 927.206 219.594 924.382 242.918C923.528 249.967 917.967 255.528 910.918 256.382C887.594 259.206 870.406 259.206 847.082 256.382C840.033 255.528 834.472 249.967 833.618 242.918C830.794 219.594 830.794 202.406 833.618 179.082C834.472 172.033 840.033 166.472 847.082 165.618C870.406 162.794 887.594 162.794 910.918 165.618Z" stroke="#0085FF" stroke-opacity="0.33" stroke-width="5"/>
<path d="M1020.92 165.618C1027.97 166.472 1033.53 172.033 1034.38 179.082C1037.21 202.406 1037.21 219.594 1034.38 242.918C1033.53 249.967 1027.97 255.528 1020.92 256.382C997.594 259.206 980.406 259.206 957.082 256.382C950.033 255.528 944.472 249.967 943.618 242.918C940.794 219.594 940.794 202.406 943.618 179.082C944.472 172.033 950.033 166.472 957.082 165.618C980.406 162.794 997.594 162.794 1020.92 165.618Z" stroke="#0085FF" stroke-opacity="0.33" stroke-width="5"/>
<path d="M1130.92 165.618C1137.97 166.472 1143.53 172.033 1144.38 179.082C1147.21 202.406 1147.21 219.594 1144.38 242.918C1143.53 249.967 1137.97 255.528 1130.92 256.382C1107.59 259.206 1090.41 259.206 1067.08 256.382C1060.03 255.528 1054.47 249.967 1053.62 242.918C1050.79 219.594 1050.79 202.406 1053.62 179.082C1054.47 172.033 1060.03 166.472 1067.08 165.618C1090.41 162.794 1107.59 162.794 1130.92 165.618Z" stroke="#0085FF" stroke-opacity="0.33" stroke-width="5"/>
<path d="M690.918 275.618C697.967 276.472 703.528 282.033 704.382 289.082C707.206 312.406 707.206 329.594 704.382 352.918C703.528 359.967 697.967 365.528 690.918 366.382C667.594 369.206 650.406 369.206 627.082 366.382C620.033 365.528 614.472 359.967 613.618 352.918C610.794 329.594 610.794 312.406 613.618 289.082C614.472 282.033 620.033 276.472 627.082 275.618C650.406 272.794 667.594 272.794 690.918 275.618Z" stroke="#0085FF" stroke-opacity="0.33" stroke-width="5"/>
<path d="M800.918 275.618C807.967 276.472 813.528 282.033 814.382 289.082C817.206 312.406 817.206 329.594 814.382 352.918C813.528 359.967 807.967 365.528 800.918 366.382C777.594 369.206 760.406 369.206 737.082 366.382C730.033 365.528 724.472 359.967 723.618 352.918C720.794 329.594 720.794 312.406 723.618 289.082C724.472 282.033 730.033 276.472 737.082 275.618C760.406 272.794 777.594 272.794 800.918 275.618Z" stroke="#0085FF" stroke-opacity="0.33" stroke-width="5"/>
<path d="M910.918 275.618C917.967 276.472 923.528 282.033 924.382 289.082C927.206 312.406 927.206 329.594 924.382 352.918C923.528 359.967 917.967 365.528 910.918 366.382C887.594 369.206 870.406 369.206 847.082 366.382C840.033 365.528 834.472 359.967 833.618 352.918C830.794 329.594 830.794 312.406 833.618 289.082C834.472 282.033 840.033 276.472 847.082 275.618C870.406 272.794 887.594 272.794 910.918 275.618Z" stroke="#0085FF" stroke-opacity="0.33" stroke-width="5"/>
<path d="M1020.92 275.618C1027.97 276.472 1033.53 282.033 1034.38 289.082C1037.21 312.406 1037.21 329.594 1034.38 352.918C1033.53 359.967 1027.97 365.528 1020.92 366.382C997.594 369.206 980.406 369.206 957.082 366.382C950.033 365.528 944.472 359.967 943.618 352.918C940.794 329.594 940.794 312.406 943.618 289.082C944.472 282.033 950.033 276.472 957.082 275.618C980.406 272.794 997.594 272.794 1020.92 275.618Z" stroke="#0085FF" stroke-opacity="0.33" stroke-width="5"/>
<path d="M1130.92 275.618C1137.97 276.472 1143.53 282.033 1144.38 289.082C1147.21 312.406 1147.21 329.594 1144.38 352.918C1143.53 359.967 1137.97 365.528 1130.92 366.382C1107.59 369.206 1090.41 369.206 1067.08 366.382C1060.03 365.528 1054.47 359.967 1053.62 352.918C1050.79 329.594 1050.79 312.406 1053.62 289.082C1054.47 282.033 1060.03 276.472 1067.08 275.618C1090.41 272.794 1107.59 272.794 1130.92 275.618Z" stroke="#0085FF" stroke-opacity="0.33" stroke-width="5"/>
<path d="M690.918 385.618C697.967 386.472 703.528 392.033 704.382 399.082C707.206 422.406 707.206 439.594 704.382 462.918C703.528 469.967 697.967 475.528 690.918 476.382C667.594 479.206 650.406 479.206 627.082 476.382C620.033 475.528 614.472 469.967 613.618 462.918C610.794 439.594 610.794 422.406 613.618 399.082C614.472 392.033 620.033 386.472 627.082 385.618C650.406 382.794 667.594 382.794 690.918 385.618Z" stroke="#0085FF" stroke-opacity="0.33" stroke-width="5"/>
<path d="M800.918 385.618C807.967 386.472 813.528 392.033 814.382 399.082C817.206 422.406 817.206 439.594 814.382 462.918C813.528 469.967 807.967 475.528 800.918 476.382C777.594 479.206 760.406 479.206 737.082 476.382C730.033 475.528 724.472 469.967 723.618 462.918C720.794 439.594 720.794 422.406 723.618 399.082C724.472 392.033 730.033 386.472 737.082 385.618C760.406 382.794 777.594 382.794 800.918 385.618Z" stroke="#0085FF" stroke-opacity="0.33" stroke-width="5"/>
<path d="M910.918 385.618C917.967 386.472 923.528 392.033 924.382 399.082C927.206 422.406 927.206 439.594 924.382 462.918C923.528 469.967 917.967 475.528 910.918 476.382C887.594 479.206 870.406 479.206 847.082 476.382C840.033 475.528 834.472 469.967 833.618 462.918C830.794 439.594 830.794 422.406 833.618 399.082C834.472 392.033 840.033 386.472 847.082 385.618C870.406 382.794 887.594 382.794 910.918 385.618Z" stroke="#0085FF" stroke-opacity="0.33" stroke-width="5"/>
<path d="M1020.92 385.618C1027.97 386.472 1033.53 392.033 1034.38 399.082C1037.21 422.406 1037.21 439.594 1034.38 462.918C1033.53 469.967 1027.97 475.528 1020.92 476.382C997.594 479.206 980.406 479.206 957.082 476.382C950.033 475.528 944.472 469.967 943.618 462.918C940.794 439.594 940.794 422.406 943.618 399.082C944.472 392.033 950.033 386.472 957.082 385.618C980.406 382.794 997.594 382.794 1020.92 385.618Z" stroke="#0085FF" stroke-opacity="0.33" stroke-width="5"/>
<path d="M1130.92 385.618C1137.97 386.472 1143.53 392.033 1144.38 399.082C1147.21 422.406 1147.21 439.594 1144.38 462.918C1143.53 469.967 1137.97 475.528 1130.92 476.382C1107.59 479.206 1090.41 479.206 1067.08 476.382C1060.03 475.528 1054.47 469.967 1053.62 462.918C1050.79 439.594 1050.79 422.406 1053.62 399.082C1054.47 392.033 1060.03 386.472 1067.08 385.618C1090.41 382.794 1107.59 382.794 1130.92 385.618Z" stroke="#0085FF" stroke-opacity="0.33" stroke-width="5"/>
<path d="M90.9179 165.618C97.9671 166.472 103.528 172.033 104.382 179.082C107.206 202.406 107.206 219.594 104.382 242.918C103.528 249.967 97.9671 255.528 90.9179 256.382C67.5937 259.206 50.4063 259.206 27.0821 256.382C20.0329 255.528 14.4717 249.967 13.6181 242.918C10.794 219.594 10.794 202.406 13.6181 179.082C14.4717 172.033 20.0329 166.472 27.0821 165.618C50.4063 162.794 67.5937 162.794 90.9179 165.618Z" stroke="#0085FF" stroke-width="5"/>
<path d="M200.918 165.618C207.967 166.472 213.528 172.033 214.382 179.082C217.206 202.406 217.206 219.594 214.382 242.918C213.528 249.967 207.967 255.528 200.918 256.382C177.594 259.206 160.406 259.206 137.082 256.382C130.033 255.528 124.472 249.967 123.618 242.918C120.794 219.594 120.794 202.406 123.618 179.082C124.472 172.033 130.033 166.472 137.082 165.618C160.406 162.794 177.594 162.794 200.918 165.618Z" stroke="#0085FF" stroke-width="5"/>
<path d="M310.918 165.618C317.967 166.472 323.528 172.033 324.382 179.082C327.206 202.406 327.206 219.594 324.382 242.918C323.528 249.967 317.967 255.528 310.918 256.382C287.594 259.206 270.406 259.206 247.082 256.382C240.033 255.528 234.472 249.967 233.618 242.918C230.794 219.594 230.794 202.406 233.618 179.082C234.472 172.033 240.033 166.472 247.082 165.618C270.406 162.794 287.594 162.794 310.918 165.618Z" stroke="#0085FF" stroke-width="5"/>
<path d="M420.918 165.618C427.967 166.472 433.528 172.033 434.382 179.082C437.206 202.406 437.206 219.594 434.382 242.918C433.528 249.967 427.967 255.528 420.918 256.382C397.594 259.206 380.406 259.206 357.082 256.382C350.033 255.528 344.472 249.967 343.618 242.918C340.794 219.594 340.794 202.406 343.618 179.082C344.472 172.033 350.033 166.472 357.082 165.618C380.406 162.794 397.594 162.794 420.918 165.618Z" stroke="#0085FF" stroke-width="5"/>
<path d="M530.918 165.618C537.967 166.472 543.528 172.033 544.382 179.082C547.206 202.406 547.206 219.594 544.382 242.918C543.528 249.967 537.967 255.528 530.918 256.382C507.594 259.206 490.406 259.206 467.082 256.382C460.033 255.528 454.472 249.967 453.618 242.918C450.794 219.594 450.794 202.406 453.618 179.082C454.472 172.033 460.033 166.472 467.082 165.618C490.406 162.794 507.594 162.794 530.918 165.618Z" stroke="#0085FF" stroke-width="5"/>
<path d="M90.9179 275.618C97.9671 276.472 103.528 282.033 104.382 289.082C107.206 312.406 107.206 329.594 104.382 352.918C103.528 359.967 97.9671 365.528 90.9179 366.382C67.5937 369.206 50.4063 369.206 27.0821 366.382C20.0329 365.528 14.4717 359.967 13.6181 352.918C10.794 329.594 10.794 312.406 13.6181 289.082C14.4717 282.033 20.0329 276.472 27.0821 275.618C50.4063 272.794 67.5937 272.794 90.9179 275.618Z" stroke="#0085FF" stroke-width="5"/>
<path d="M200.918 275.618C207.967 276.472 213.528 282.033 214.382 289.082C217.206 312.406 217.206 329.594 214.382 352.918C213.528 359.967 207.967 365.528 200.918 366.382C177.594 369.206 160.406 369.206 137.082 366.382C130.033 365.528 124.472 359.967 123.618 352.918C120.794 329.594 120.794 312.406 123.618 289.082C124.472 282.033 130.033 276.472 137.082 275.618C160.406 272.794 177.594 272.794 200.918 275.618Z" stroke="#0085FF" stroke-width="5"/>
<path d="M310.918 275.618C317.967 276.472 323.528 282.033 324.382 289.082C327.206 312.406 327.206 329.594 324.382 352.918C323.528 359.967 317.967 365.528 310.918 366.382C287.594 369.206 270.406 369.206 247.082 366.382C240.033 365.528 234.472 359.967 233.618 352.918C230.794 329.594 230.794 312.406 233.618 289.082C234.472 282.033 240.033 276.472 247.082 275.618C270.406 272.794 287.594 272.794 310.918 275.618Z" stroke="#0085FF" stroke-width="5"/>
<path d="M420.918 275.618C427.967 276.472 433.528 282.033 434.382 289.082C437.206 312.406 437.206 329.594 434.382 352.918C433.528 359.967 427.967 365.528 420.918 366.382C397.594 369.206 380.406 369.206 357.082 366.382C350.033 365.528 344.472 359.967 343.618 352.918C340.794 329.594 340.794 312.406 343.618 289.082C344.472 282.033 350.033 276.472 357.082 275.618C380.406 272.794 397.594 272.794 420.918 275.618Z" stroke="#0085FF" stroke-width="5"/>
<path d="M530.918 275.618C537.967 276.472 543.528 282.033 544.382 289.082C547.206 312.406 547.206 329.594 544.382 352.918C543.528 359.967 537.967 365.528 530.918 366.382C507.594 369.206 490.406 369.206 467.082 366.382C460.033 365.528 454.472 359.967 453.618 352.918C450.794 329.594 450.794 312.406 453.618 289.082C454.472 282.033 460.033 276.472 467.082 275.618C490.406 272.794 507.594 272.794 530.918 275.618Z" stroke="#0085FF" stroke-width="5"/>
<path d="M90.9179 385.618C97.9671 386.472 103.528 392.033 104.382 399.082C107.206 422.406 107.206 439.594 104.382 462.918C103.528 469.967 97.9671 475.528 90.9179 476.382C67.5937 479.206 50.4063 479.206 27.0821 476.382C20.0329 475.528 14.4717 469.967 13.6181 462.918C10.794 439.594 10.794 422.406 13.6181 399.082C14.4717 392.033 20.0329 386.472 27.0821 385.618C50.4063 382.794 67.5937 382.794 90.9179 385.618Z" stroke="#0085FF" stroke-width="5"/>
<path d="M200.918 385.618C207.967 386.472 213.528 392.033 214.382 399.082C217.206 422.406 217.206 439.594 214.382 462.918C213.528 469.967 207.967 475.528 200.918 476.382C177.594 479.206 160.406 479.206 137.082 476.382C130.033 475.528 124.472 469.967 123.618 462.918C120.794 439.594 120.794 422.406 123.618 399.082C124.472 392.033 130.033 386.472 137.082 385.618C160.406 382.794 177.594 382.794 200.918 385.618Z" stroke="#0085FF" stroke-width="5"/>
<path d="M310.918 385.618C317.967 386.472 323.528 392.033 324.382 399.082C327.206 422.406 327.206 439.594 324.382 462.918C323.528 469.967 317.967 475.528 310.918 476.382C287.594 479.206 270.406 479.206 247.082 476.382C240.033 475.528 234.472 469.967 233.618 462.918C230.794 439.594 230.794 422.406 233.618 399.082C234.472 392.033 240.033 386.472 247.082 385.618C270.406 382.794 287.594 382.794 310.918 385.618Z" stroke="#0085FF" stroke-width="5"/>
<path d="M420.918 385.618C427.967 386.472 433.528 392.033 434.382 399.082C437.206 422.406 437.206 439.594 434.382 462.918C433.528 469.967 427.967 475.528 420.918 476.382C397.594 479.206 380.406 479.206 357.082 476.382C350.033 475.528 344.472 469.967 343.618 462.918C340.794 439.594 340.794 422.406 343.618 399.082C344.472 392.033 350.033 386.472 357.082 385.618C380.406 382.794 397.594 382.794 420.918 385.618Z" stroke="#0085FF" stroke-width="5"/>
<path d="M530.918 385.618C537.967 386.472 543.528 392.033 544.382 399.082C547.206 422.406 547.206 439.594 544.382 462.918C543.528 469.967 537.967 475.528 530.918 476.382C507.594 479.206 490.406 479.206 467.082 476.382C460.033 475.528 454.472 469.967 453.618 462.918C450.794 439.594 450.794 422.406 453.618 399.082C454.472 392.033 460.033 386.472 467.082 385.618C490.406 382.794 507.594 382.794 530.918 385.618Z" stroke="#0085FF" stroke-width="5"/>
</svg>
