<svg width="2825" height="931" viewBox="0 0 2825 931" fill="none" xmlns="http://www.w3.org/2000/svg">
<path fill-rule="evenodd" clip-rule="evenodd" d="M615.042 155.633C635.334 133.1 666.49 118.239 710.043 117H1311C1317.75 117 1324.78 120.424 1330.18 125.822C1335.58 131.221 1339 138.247 1339 145V685.983V685.993C1338.75 729.003 1323.92 760.117 1299.93 780.528C1287.39 791.202 1272.25 799.029 1255.21 804.077L1253.05 807.81C1305.43 793.46 1341.61 753.867 1342 686V145C1342 129.536 1326.46 114 1311 114H710C621.5 116.5 582 174.5 582 242V783C582 798.464 597.536 814 613 814H1204C1213.55 814 1222.83 813.385 1231.77 812.144L1227.48 809.669C1219.89 810.558 1212.05 811 1204 811H613C606.247 811 599.221 807.576 593.822 802.178C588.424 796.779 585 789.753 585 783V242C585 208.816 594.707 178.214 615.042 155.633Z" fill="#0085FF"/>
<path d="M1330.96 648.866L1240.89 596.866C1235.63 593.828 1228.9 595.631 1225.87 600.892L1141.87 746.385C1138.83 751.646 1140.63 758.373 1145.89 761.411L1235.96 813.411C1241.22 816.448 1247.95 814.646 1250.99 809.385L1334.99 663.892C1338.02 658.631 1336.22 651.904 1330.96 648.866Z" stroke="#0085FF" stroke-width="2"/>
<path d="M1245.32 630.767C1267.21 638.563 1281.69 646.922 1299.39 661.981C1304.95 666.712 1306.53 674.629 1303.44 681.28C1286.61 717.434 1273.17 740.719 1250.27 773.37C1246.06 779.377 1238.41 781.959 1231.53 779.51C1209.64 771.713 1195.16 763.355 1177.47 748.296C1171.91 743.565 1170.32 735.648 1173.41 728.997C1190.24 692.843 1203.69 669.558 1226.58 636.907C1230.79 630.9 1238.44 628.317 1245.32 630.767Z" stroke="#0085FF" stroke-width="2"/>
<path d="M1149.92 633.989L1049.46 607.072C1043.59 605.5 1037.56 608.982 1035.99 614.85L1009.07 715.306C1007.5 721.175 1010.98 727.206 1016.85 728.779L1117.31 755.696C1123.17 757.268 1129.21 753.786 1130.78 747.918L1157.7 647.461C1159.27 641.593 1155.79 635.562 1149.92 633.989Z" stroke="#0085FF" stroke-width="2"/>
<path d="M1065.26 629.985C1087.7 633.177 1103.75 637.477 1124.78 645.933C1131.7 648.717 1135.83 655.873 1134.78 663.26C1131.59 685.701 1127.29 701.748 1118.83 722.779C1116.05 729.701 1108.89 733.833 1101.51 732.782C1079.07 729.59 1063.02 725.29 1041.99 716.834C1035.07 714.051 1030.93 706.895 1031.98 699.508C1035.18 677.066 1039.48 661.019 1047.93 639.988C1050.72 633.066 1057.87 628.934 1065.26 629.985Z" stroke="#0085FF" stroke-width="2"/>
<path d="M984 598H880C873.925 598 869 602.925 869 609V713C869 719.075 873.925 724 880 724H984C990.075 724 995 719.075 995 713V609C995 602.925 990.075 598 984 598Z" stroke="#0085FF" stroke-width="2"/>
<path d="M901.191 616.044C923.694 613.319 940.306 613.319 962.809 616.044C970.217 616.94 976.06 622.783 976.956 630.191C979.681 652.694 979.681 669.306 976.956 691.809C976.06 699.217 970.217 705.06 962.809 705.956C940.306 708.681 923.694 708.681 901.191 705.956C893.783 705.06 887.94 699.217 887.044 691.809C884.319 669.306 884.319 652.694 887.044 630.191C887.94 622.783 893.783 616.94 901.191 616.044Z" stroke="#0085FF" stroke-width="2"/>
<path d="M730 318H626C619.925 318 615 322.925 615 329V433C615 439.075 619.925 444 626 444H730C736.075 444 741 439.075 741 433V329C741 322.925 736.075 318 730 318Z" stroke="#0085FF" stroke-width="2"/>
<path d="M647.191 336.044C669.694 333.319 686.306 333.319 708.809 336.044C716.217 336.94 722.06 342.783 722.956 350.191C725.681 372.694 725.681 389.306 722.956 411.809C722.06 419.217 716.217 425.06 708.809 425.956C686.306 428.681 669.694 428.681 647.191 425.956C639.783 425.06 633.94 419.217 633.044 411.809C630.319 389.306 630.319 372.694 633.044 350.191C633.94 342.783 639.783 336.94 647.191 336.044Z" stroke="#0085FF" stroke-width="2"/>
<path d="M730 456H626C619.925 456 615 460.925 615 467V571C615 577.075 619.925 582 626 582H730C736.075 582 741 577.075 741 571V467C741 460.925 736.075 456 730 456Z" stroke="#0085FF" stroke-width="2"/>
<path d="M647.191 474.044C669.694 471.319 686.306 471.319 708.809 474.044C716.217 474.94 722.06 480.783 722.956 488.191C725.681 510.694 725.681 527.306 722.956 549.809C722.06 557.217 716.217 563.06 708.809 563.956C686.306 566.681 669.694 566.681 647.191 563.956C639.783 563.06 633.94 557.217 633.044 549.809C630.319 527.306 630.319 510.694 633.044 488.191C633.94 480.783 639.783 474.94 647.191 474.044Z" stroke="#0085FF" stroke-width="2"/>
<path d="M730 180H626C619.925 180 615 184.925 615 191V295C615 301.075 619.925 306 626 306H730C736.075 306 741 301.075 741 295V191C741 184.925 736.075 180 730 180Z" stroke="#0085FF" stroke-width="2"/>
<path d="M647.191 198.044C669.694 195.319 686.306 195.319 708.809 198.044C716.217 198.94 722.06 204.783 722.956 212.191C725.681 234.694 725.681 251.306 722.956 273.809C722.06 281.217 716.217 287.06 708.809 287.956C686.306 290.681 669.694 290.681 647.191 287.956C639.783 287.06 633.94 281.217 633.044 273.809C630.319 251.306 630.319 234.694 633.044 212.191C633.94 204.783 639.783 198.94 647.191 198.044Z" stroke="#0085FF" stroke-width="2"/>
<path d="M865 286H761C754.925 286 750 290.925 750 297V401C750 407.075 754.925 412 761 412H865C871.075 412 876 407.075 876 401V297C876 290.925 871.075 286 865 286Z" stroke="#0085FF" stroke-width="2"/>
<path d="M782.191 304.044C804.694 301.319 821.306 301.319 843.809 304.044C851.217 304.94 857.06 310.783 857.956 318.191C860.681 340.694 860.681 357.306 857.956 379.809C857.06 387.217 851.217 393.06 843.809 393.956C821.306 396.681 804.694 396.681 782.191 393.956C774.783 393.06 768.94 387.217 768.044 379.809C765.319 357.306 765.319 340.694 768.044 318.191C768.94 310.783 774.783 304.94 782.191 304.044Z" stroke="#0085FF" stroke-width="2"/>
<path d="M865 424H761C754.925 424 750 428.925 750 435V539C750 545.075 754.925 550 761 550H865C871.075 550 876 545.075 876 539V435C876 428.925 871.075 424 865 424Z" stroke="#0085FF" stroke-width="2"/>
<path d="M782.191 442.044C804.694 439.319 821.306 439.319 843.809 442.044C851.217 442.94 857.06 448.783 857.956 456.191C860.681 478.694 860.681 495.306 857.956 517.809C857.06 525.217 851.217 531.06 843.809 531.956C821.306 534.681 804.694 534.681 782.191 531.956C774.783 531.06 768.94 525.217 768.044 517.809C765.319 495.306 765.319 478.694 768.044 456.191C768.94 448.783 774.783 442.94 782.191 442.044Z" stroke="#0085FF" stroke-width="2"/>
<path d="M865 148H761C754.925 148 750 152.925 750 159V263C750 269.075 754.925 274 761 274H865C871.075 274 876 269.075 876 263V159C876 152.925 871.075 148 865 148Z" stroke="#0085FF" stroke-width="2"/>
<path d="M782.191 166.044C804.694 163.319 821.306 163.319 843.809 166.044C851.217 166.94 857.06 172.783 857.956 180.191C860.681 202.694 860.681 219.306 857.956 241.809C857.06 249.217 851.217 255.06 843.809 255.956C821.306 258.681 804.694 258.681 782.191 255.956C774.783 255.06 768.94 249.217 768.044 241.809C765.319 219.306 765.319 202.694 768.044 180.191C768.94 172.783 774.783 166.94 782.191 166.044Z" stroke="#0085FF" stroke-width="2"/>
<path d="M1000 268H896C889.925 268 885 272.925 885 279V383C885 389.075 889.925 394 896 394H1000C1006.08 394 1011 389.075 1011 383V279C1011 272.925 1006.08 268 1000 268Z" stroke="#0085FF" stroke-width="2"/>
<path d="M917.191 286.044C939.694 283.319 956.306 283.319 978.809 286.044C986.217 286.94 992.06 292.783 992.956 300.191C995.681 322.694 995.681 339.306 992.956 361.809C992.06 369.217 986.217 375.06 978.809 375.956C956.306 378.681 939.694 378.681 917.191 375.956C909.783 375.06 903.94 369.217 903.044 361.809C900.319 339.306 900.319 322.694 903.044 300.191C903.94 292.783 909.783 286.94 917.191 286.044Z" stroke="#0085FF" stroke-width="2"/>
<path d="M1000 406H896C889.925 406 885 410.925 885 417V521C885 527.075 889.925 532 896 532H1000C1006.08 532 1011 527.075 1011 521V417C1011 410.925 1006.08 406 1000 406Z" stroke="#0085FF" stroke-width="2"/>
<path d="M917.191 424.044C939.694 421.319 956.306 421.319 978.809 424.044C986.217 424.94 992.06 430.783 992.956 438.191C995.681 460.694 995.681 477.306 992.956 499.809C992.06 507.217 986.217 513.06 978.809 513.956C956.306 516.681 939.694 516.681 917.191 513.956C909.783 513.06 903.94 507.217 903.044 499.809C900.319 477.306 900.319 460.694 903.044 438.191C903.94 430.783 909.783 424.94 917.191 424.044Z" stroke="#0085FF" stroke-width="2"/>
<path d="M1000 130H896C889.925 130 885 134.925 885 141V245C885 251.075 889.925 256 896 256H1000C1006.08 256 1011 251.075 1011 245V141C1011 134.925 1006.08 130 1000 130Z" stroke="#0085FF" stroke-width="2"/>
<path d="M917.191 148.044C939.694 145.319 956.306 145.319 978.809 148.044C986.217 148.94 992.06 154.783 992.956 162.191C995.681 184.694 995.681 201.306 992.956 223.809C992.06 231.217 986.217 237.06 978.809 237.956C956.306 240.681 939.694 240.681 917.191 237.956C909.783 237.06 903.94 231.217 903.044 223.809C900.319 201.306 900.319 184.694 903.044 162.191C903.94 154.783 909.783 148.94 917.191 148.044Z" stroke="#0085FF" stroke-width="2"/>
<path d="M1135 286H1031C1024.92 286 1020 290.925 1020 297V401C1020 407.075 1024.92 412 1031 412H1135C1141.08 412 1146 407.075 1146 401V297C1146 290.925 1141.08 286 1135 286Z" stroke="#0085FF" stroke-width="2"/>
<path d="M1052.19 304.044C1074.69 301.319 1091.31 301.319 1113.81 304.044C1121.22 304.94 1127.06 310.783 1127.96 318.191C1130.68 340.694 1130.68 357.306 1127.96 379.809C1127.06 387.217 1121.22 393.06 1113.81 393.956C1091.31 396.681 1074.69 396.681 1052.19 393.956C1044.78 393.06 1038.94 387.217 1038.04 379.809C1035.32 357.306 1035.32 340.694 1038.04 318.191C1038.94 310.783 1044.78 304.94 1052.19 304.044Z" stroke="#0085FF" stroke-width="2"/>
<path d="M1135 424H1031C1024.92 424 1020 428.925 1020 435V539C1020 545.075 1024.92 550 1031 550H1135C1141.08 550 1146 545.075 1146 539V435C1146 428.925 1141.08 424 1135 424Z" stroke="#0085FF" stroke-width="2"/>
<path d="M1052.19 442.044C1074.69 439.319 1091.31 439.319 1113.81 442.044C1121.22 442.94 1127.06 448.783 1127.96 456.191C1130.68 478.694 1130.68 495.306 1127.96 517.809C1127.06 525.217 1121.22 531.06 1113.81 531.956C1091.31 534.681 1074.69 534.681 1052.19 531.956C1044.78 531.06 1038.94 525.217 1038.04 517.809C1035.32 495.306 1035.32 478.694 1038.04 456.191C1038.94 448.783 1044.78 442.94 1052.19 442.044Z" stroke="#0085FF" stroke-width="2"/>
<path d="M1135 148H1031C1024.92 148 1020 152.925 1020 159V263C1020 269.075 1024.92 274 1031 274H1135C1141.08 274 1146 269.075 1146 263V159C1146 152.925 1141.08 148 1135 148Z" stroke="#0085FF" stroke-width="2"/>
<path d="M1052.19 166.044C1074.69 163.319 1091.31 163.319 1113.81 166.044C1121.22 166.94 1127.06 172.783 1127.96 180.191C1130.68 202.694 1130.68 219.306 1127.96 241.809C1127.06 249.217 1121.22 255.06 1113.81 255.956C1091.31 258.681 1074.69 258.681 1052.19 255.956C1044.78 255.06 1038.94 249.217 1038.04 241.809C1035.32 219.306 1035.32 202.694 1038.04 180.191C1038.94 172.783 1044.78 166.94 1052.19 166.044Z" stroke="#0085FF" stroke-width="2"/>
<path d="M1270 304H1166C1159.92 304 1155 308.925 1155 315V419C1155 425.075 1159.92 430 1166 430H1270C1276.08 430 1281 425.075 1281 419V315C1281 308.925 1276.08 304 1270 304Z" stroke="#0085FF" stroke-width="2"/>
<path d="M1187.19 322.044C1209.69 319.319 1226.31 319.319 1248.81 322.044C1256.22 322.94 1262.06 328.783 1262.96 336.191C1265.68 358.694 1265.68 375.306 1262.96 397.809C1262.06 405.217 1256.22 411.06 1248.81 411.956C1226.31 414.681 1209.69 414.681 1187.19 411.956C1179.78 411.06 1173.94 405.217 1173.04 397.809C1170.32 375.306 1170.32 358.694 1173.04 336.191C1173.94 328.783 1179.78 322.94 1187.19 322.044Z" stroke="#0085FF" stroke-width="2"/>
<path d="M1270 442H1166C1159.92 442 1155 446.925 1155 453V557C1155 563.075 1159.92 568 1166 568H1270C1276.08 568 1281 563.075 1281 557V453C1281 446.925 1276.08 442 1270 442Z" stroke="#0085FF" stroke-width="2"/>
<path d="M1187.19 460.044C1209.69 457.319 1226.31 457.319 1248.81 460.044C1256.22 460.94 1262.06 466.783 1262.96 474.191C1265.68 496.694 1265.68 513.306 1262.96 535.809C1262.06 543.217 1256.22 549.06 1248.81 549.956C1226.31 552.681 1209.69 552.681 1187.19 549.956C1179.78 549.06 1173.94 543.217 1173.04 535.809C1170.32 513.306 1170.32 496.694 1173.04 474.191C1173.94 466.783 1179.78 460.94 1187.19 460.044Z" stroke="#0085FF" stroke-width="2"/>
<path d="M1270 166H1166C1159.92 166 1155 170.925 1155 177V281C1155 287.075 1159.92 292 1166 292H1270C1276.08 292 1281 287.075 1281 281V177C1281 170.925 1276.08 166 1270 166Z" stroke="#0085FF" stroke-width="2"/>
<path d="M1187.19 184.044C1209.69 181.319 1226.31 181.319 1248.81 184.044C1256.22 184.94 1262.06 190.783 1262.96 198.191C1265.68 220.694 1265.68 237.306 1262.96 259.809C1262.06 267.217 1256.22 273.06 1248.81 273.956C1226.31 276.681 1209.69 276.681 1187.19 273.956C1179.78 273.06 1173.94 267.217 1173.04 259.809C1170.32 237.306 1170.32 220.694 1173.04 198.191C1173.94 190.783 1179.78 184.94 1187.19 184.044Z" stroke="#0085FF" stroke-width="2"/>
<path fill-rule="evenodd" clip-rule="evenodd" d="M613 610H830C833.314 610 836 612.686 836 616V726C836 729.314 833.314 732 830 732H613C609.686 732 607 729.314 607 726V699H604V726C604 730.971 608.029 735 613 735H830C834.971 735 839 730.971 839 726V616C839 611.029 834.971 607 830 607H613C608.029 607 604 611.029 604 616V643H607V616C607 612.686 609.686 610 613 610Z" fill="#0085FF"/>
<path d="M642 644.5H599C597.619 644.5 596.5 645.619 596.5 647V695C596.5 696.381 597.619 697.5 599 697.5H642C643.381 697.5 644.5 696.381 644.5 695V647C644.5 645.619 643.381 644.5 642 644.5Z" stroke="#0085FF" stroke-width="3"/>
<path d="M619 622.5C620.381 622.5 621.5 621.381 621.5 620C621.5 618.619 620.381 617.5 619 617.5C617.619 617.5 616.5 618.619 616.5 620C616.5 621.381 617.619 622.5 619 622.5Z" stroke="#0085FF" stroke-width="3"/>
<path d="M636 622.5C637.381 622.5 638.5 621.381 638.5 620C638.5 618.619 637.381 617.5 636 617.5C634.619 617.5 633.5 618.619 633.5 620C633.5 621.381 634.619 622.5 636 622.5Z" stroke="#0085FF" stroke-width="3"/>
<path d="M653 622.5C654.381 622.5 655.5 621.381 655.5 620C655.5 618.619 654.381 617.5 653 617.5C651.619 617.5 650.5 618.619 650.5 620C650.5 621.381 651.619 622.5 653 622.5Z" stroke="#0085FF" stroke-width="3"/>
<path d="M670 622.5C671.381 622.5 672.5 621.381 672.5 620C672.5 618.619 671.381 617.5 670 617.5C668.619 617.5 667.5 618.619 667.5 620C667.5 621.381 668.619 622.5 670 622.5Z" stroke="#0085FF" stroke-width="3"/>
<path d="M687 622.5C688.381 622.5 689.5 621.381 689.5 620C689.5 618.619 688.381 617.5 687 617.5C685.619 617.5 684.5 618.619 684.5 620C684.5 621.381 685.619 622.5 687 622.5Z" stroke="#0085FF" stroke-width="3"/>
<path d="M704 622.5C705.381 622.5 706.5 621.381 706.5 620C706.5 618.619 705.381 617.5 704 617.5C702.619 617.5 701.5 618.619 701.5 620C701.5 621.381 702.619 622.5 704 622.5Z" stroke="#0085FF" stroke-width="3"/>
<path d="M721 622.5C722.381 622.5 723.5 621.381 723.5 620C723.5 618.619 722.381 617.5 721 617.5C719.619 617.5 718.5 618.619 718.5 620C718.5 621.381 719.619 622.5 721 622.5Z" stroke="#0085FF" stroke-width="3"/>
<path d="M738 622.5C739.381 622.5 740.5 621.381 740.5 620C740.5 618.619 739.381 617.5 738 617.5C736.619 617.5 735.5 618.619 735.5 620C735.5 621.381 736.619 622.5 738 622.5Z" stroke="#0085FF" stroke-width="3"/>
<path d="M755 622.5C756.381 622.5 757.5 621.381 757.5 620C757.5 618.619 756.381 617.5 755 617.5C753.619 617.5 752.5 618.619 752.5 620C752.5 621.381 753.619 622.5 755 622.5Z" stroke="#0085FF" stroke-width="3"/>
<path d="M772 622.5C773.381 622.5 774.5 621.381 774.5 620C774.5 618.619 773.381 617.5 772 617.5C770.619 617.5 769.5 618.619 769.5 620C769.5 621.381 770.619 622.5 772 622.5Z" stroke="#0085FF" stroke-width="3"/>
<path d="M789 622.5C790.381 622.5 791.5 621.381 791.5 620C791.5 618.619 790.381 617.5 789 617.5C787.619 617.5 786.5 618.619 786.5 620C786.5 621.381 787.619 622.5 789 622.5Z" stroke="#0085FF" stroke-width="3"/>
<path d="M806 622.5C807.381 622.5 808.5 621.381 808.5 620C808.5 618.619 807.381 617.5 806 617.5C804.619 617.5 803.5 618.619 803.5 620C803.5 621.381 804.619 622.5 806 622.5Z" stroke="#0085FF" stroke-width="3"/>
<path d="M823 622.5C824.381 622.5 825.5 621.381 825.5 620C825.5 618.619 824.381 617.5 823 617.5C821.619 617.5 820.5 618.619 820.5 620C820.5 621.381 821.619 622.5 823 622.5Z" stroke="#0085FF" stroke-width="3"/>
<path d="M623 724.5C624.381 724.5 625.5 723.381 625.5 722C625.5 720.619 624.381 719.5 623 719.5C621.619 719.5 620.5 720.619 620.5 722C620.5 723.381 621.619 724.5 623 724.5Z" stroke="#0085FF" stroke-width="3"/>
<path d="M640 724.5C641.381 724.5 642.5 723.381 642.5 722C642.5 720.619 641.381 719.5 640 719.5C638.619 719.5 637.5 720.619 637.5 722C637.5 723.381 638.619 724.5 640 724.5Z" stroke="#0085FF" stroke-width="3"/>
<path d="M657 724.5C658.381 724.5 659.5 723.381 659.5 722C659.5 720.619 658.381 719.5 657 719.5C655.619 719.5 654.5 720.619 654.5 722C654.5 723.381 655.619 724.5 657 724.5Z" stroke="#0085FF" stroke-width="3"/>
<path d="M674 724.5C675.381 724.5 676.5 723.381 676.5 722C676.5 720.619 675.381 719.5 674 719.5C672.619 719.5 671.5 720.619 671.5 722C671.5 723.381 672.619 724.5 674 724.5Z" stroke="#0085FF" stroke-width="3"/>
<path d="M691 724.5C692.381 724.5 693.5 723.381 693.5 722C693.5 720.619 692.381 719.5 691 719.5C689.619 719.5 688.5 720.619 688.5 722C688.5 723.381 689.619 724.5 691 724.5Z" stroke="#0085FF" stroke-width="3"/>
<path d="M708 724.5C709.381 724.5 710.5 723.381 710.5 722C710.5 720.619 709.381 719.5 708 719.5C706.619 719.5 705.5 720.619 705.5 722C705.5 723.381 706.619 724.5 708 724.5Z" stroke="#0085FF" stroke-width="3"/>
<path d="M725 724.5C726.381 724.5 727.5 723.381 727.5 722C727.5 720.619 726.381 719.5 725 719.5C723.619 719.5 722.5 720.619 722.5 722C722.5 723.381 723.619 724.5 725 724.5Z" stroke="#0085FF" stroke-width="3"/>
<path d="M742 724.5C743.381 724.5 744.5 723.381 744.5 722C744.5 720.619 743.381 719.5 742 719.5C740.619 719.5 739.5 720.619 739.5 722C739.5 723.381 740.619 724.5 742 724.5Z" stroke="#0085FF" stroke-width="3"/>
<path d="M759 724.5C760.381 724.5 761.5 723.381 761.5 722C761.5 720.619 760.381 719.5 759 719.5C757.619 719.5 756.5 720.619 756.5 722C756.5 723.381 757.619 724.5 759 724.5Z" stroke="#0085FF" stroke-width="3"/>
<path d="M776 724.5C777.381 724.5 778.5 723.381 778.5 722C778.5 720.619 777.381 719.5 776 719.5C774.619 719.5 773.5 720.619 773.5 722C773.5 723.381 774.619 724.5 776 724.5Z" stroke="#0085FF" stroke-width="3"/>
<path d="M793 724.5C794.381 724.5 795.5 723.381 795.5 722C795.5 720.619 794.381 719.5 793 719.5C791.619 719.5 790.5 720.619 790.5 722C790.5 723.381 791.619 724.5 793 724.5Z" stroke="#0085FF" stroke-width="3"/>
<path d="M810 724.5C811.381 724.5 812.5 723.381 812.5 722C812.5 720.619 811.381 719.5 810 719.5C808.619 719.5 807.5 720.619 807.5 722C807.5 723.381 808.619 724.5 810 724.5Z" stroke="#0085FF" stroke-width="3"/>
<path d="M827 724.5C828.381 724.5 829.5 723.381 829.5 722C829.5 720.619 828.381 719.5 827 719.5C825.619 719.5 824.5 720.619 824.5 722C824.5 723.381 825.619 724.5 827 724.5Z" stroke="#0085FF" stroke-width="3"/>
<path d="M836 560H765.645C755.842 560 747.895 567.947 747.895 577.75C747.895 587.553 739.948 595.5 730.145 595.5H609C599.059 595.5 591 603.559 591 613.5V740C591 749.941 599.059 758 609 758H836C845.941 758 854 749.941 854 740V578C854 568.059 845.941 560 836 560Z" stroke="#0085FF" stroke-width="3"/>
<path fill-rule="evenodd" clip-rule="evenodd" d="M2209.96 155.633C2189.67 133.1 2158.51 118.239 2114.96 117H1514C1507.25 117 1500.22 120.424 1494.82 125.822C1489.42 131.221 1486 138.247 1486 145V685.983V685.993C1486.25 729.003 1501.09 760.117 1525.07 780.528C1537.61 791.202 1552.75 799.029 1569.8 804.077L1571.95 807.81C1519.57 793.46 1483.39 753.867 1483 686V145C1483 129.536 1498.54 114 1514 114H2115C2203.5 116.5 2243 174.5 2243 242V783C2243 798.464 2227.46 814 2212 814H1621C1611.45 814 1602.17 813.385 1593.23 812.144L1597.52 809.669C1605.11 810.558 1612.95 811 1621 811H2212C2218.75 811 2225.78 807.576 2231.18 802.178C2236.58 796.779 2240 789.753 2240 783V242C2240 208.816 2230.29 178.214 2209.96 155.633Z" fill="#0085FF"/>
<path d="M1494.04 648.866L1584.1 596.866C1589.36 593.828 1596.09 595.631 1599.13 600.892L1683.13 746.384C1686.17 751.646 1684.36 758.373 1679.1 761.411L1589.04 813.411C1583.78 816.448 1577.05 814.646 1574.01 809.384L1490.01 663.892C1486.97 658.631 1488.78 651.904 1494.04 648.866Z" stroke="#0085FF" stroke-width="2"/>
<path d="M1579.68 630.767C1557.79 638.563 1543.31 646.922 1525.61 661.981C1520.05 666.712 1518.47 674.629 1521.56 681.28C1538.39 717.434 1551.83 740.719 1574.73 773.37C1578.94 779.377 1586.59 781.959 1593.47 779.51C1615.36 771.713 1629.84 763.355 1647.53 748.296C1653.09 743.565 1654.68 735.648 1651.59 728.997C1634.76 692.843 1621.31 669.558 1598.42 636.907C1594.21 630.9 1586.56 628.317 1579.68 630.767Z" stroke="#0085FF" stroke-width="2"/>
<path d="M1675.08 633.989L1775.53 607.072C1781.4 605.5 1787.43 608.982 1789.01 614.85L1815.92 715.306C1817.5 721.175 1814.01 727.206 1808.15 728.779L1707.69 755.696C1701.82 757.268 1695.79 753.786 1694.22 747.918L1667.3 647.461C1665.73 641.593 1669.21 635.562 1675.08 633.989Z" stroke="#0085FF" stroke-width="2"/>
<path d="M1759.74 629.985C1737.3 633.177 1721.25 637.477 1700.22 645.933C1693.3 648.717 1689.17 655.873 1690.22 663.26C1693.41 685.701 1697.71 701.748 1706.17 722.779C1708.95 729.701 1716.11 733.833 1723.49 732.782C1745.93 729.59 1761.98 725.29 1783.01 716.834C1789.93 714.051 1794.07 706.895 1793.01 699.508C1789.82 677.066 1785.52 661.019 1777.07 639.988C1774.28 633.066 1767.13 628.934 1759.74 629.985Z" stroke="#0085FF" stroke-width="2"/>
<path d="M1841 598H1945C1951.08 598 1956 602.925 1956 609V713C1956 719.075 1951.08 724 1945 724H1841C1834.92 724 1830 719.075 1830 713V609C1830 602.925 1834.92 598 1841 598Z" stroke="#0085FF" stroke-width="2"/>
<path d="M1923.81 616.044C1901.31 613.319 1884.69 613.319 1862.19 616.044C1854.78 616.94 1848.94 622.783 1848.04 630.191C1845.32 652.694 1845.32 669.306 1848.04 691.809C1848.94 699.217 1854.78 705.06 1862.19 705.956C1884.69 708.681 1901.31 708.681 1923.81 705.956C1931.22 705.06 1937.06 699.217 1937.96 691.809C1940.68 669.306 1940.68 652.694 1937.96 630.191C1937.06 622.783 1931.22 616.94 1923.81 616.044Z" stroke="#0085FF" stroke-width="2"/>
<path d="M2095 318H2199C2205.08 318 2210 322.925 2210 329V433C2210 439.075 2205.08 444 2199 444H2095C2088.92 444 2084 439.075 2084 433V329C2084 322.925 2088.92 318 2095 318Z" stroke="#0085FF" stroke-width="2"/>
<path d="M2177.81 336.044C2155.31 333.319 2138.69 333.319 2116.19 336.044C2108.78 336.94 2102.94 342.783 2102.04 350.191C2099.32 372.694 2099.32 389.306 2102.04 411.809C2102.94 419.217 2108.78 425.06 2116.19 425.956C2138.69 428.681 2155.31 428.681 2177.81 425.956C2185.22 425.06 2191.06 419.217 2191.96 411.809C2194.68 389.306 2194.68 372.694 2191.96 350.191C2191.06 342.783 2185.22 336.94 2177.81 336.044Z" stroke="#0085FF" stroke-width="2"/>
<path d="M2095 456H2199C2205.08 456 2210 460.925 2210 467V571C2210 577.075 2205.08 582 2199 582H2095C2088.92 582 2084 577.075 2084 571V467C2084 460.925 2088.92 456 2095 456Z" stroke="#0085FF" stroke-width="2"/>
<path d="M2177.81 474.044C2155.31 471.319 2138.69 471.319 2116.19 474.044C2108.78 474.94 2102.94 480.783 2102.04 488.191C2099.32 510.694 2099.32 527.306 2102.04 549.809C2102.94 557.217 2108.78 563.06 2116.19 563.956C2138.69 566.681 2155.31 566.681 2177.81 563.956C2185.22 563.06 2191.06 557.217 2191.96 549.809C2194.68 527.306 2194.68 510.694 2191.96 488.191C2191.06 480.783 2185.22 474.94 2177.81 474.044Z" stroke="#0085FF" stroke-width="2"/>
<path d="M2095 180H2199C2205.08 180 2210 184.925 2210 191V295C2210 301.075 2205.08 306 2199 306H2095C2088.92 306 2084 301.075 2084 295V191C2084 184.925 2088.92 180 2095 180Z" stroke="#0085FF" stroke-width="2"/>
<path d="M2177.81 198.044C2155.31 195.319 2138.69 195.319 2116.19 198.044C2108.78 198.94 2102.94 204.783 2102.04 212.191C2099.32 234.694 2099.32 251.306 2102.04 273.809C2102.94 281.217 2108.78 287.06 2116.19 287.956C2138.69 290.681 2155.31 290.681 2177.81 287.956C2185.22 287.06 2191.06 281.217 2191.96 273.809C2194.68 251.306 2194.68 234.694 2191.96 212.191C2191.06 204.783 2185.22 198.94 2177.81 198.044Z" stroke="#0085FF" stroke-width="2"/>
<path d="M1960 286H2064C2070.08 286 2075 290.925 2075 297V401C2075 407.075 2070.08 412 2064 412H1960C1953.92 412 1949 407.075 1949 401V297C1949 290.925 1953.92 286 1960 286Z" stroke="#0085FF" stroke-width="2"/>
<path d="M2042.81 304.044C2020.31 301.319 2003.69 301.319 1981.19 304.044C1973.78 304.94 1967.94 310.783 1967.04 318.191C1964.32 340.694 1964.32 357.306 1967.04 379.809C1967.94 387.217 1973.78 393.06 1981.19 393.956C2003.69 396.681 2020.31 396.681 2042.81 393.956C2050.22 393.06 2056.06 387.217 2056.96 379.809C2059.68 357.306 2059.68 340.694 2056.96 318.191C2056.06 310.783 2050.22 304.94 2042.81 304.044Z" stroke="#0085FF" stroke-width="2"/>
<path d="M1960 424H2064C2070.08 424 2075 428.925 2075 435V539C2075 545.075 2070.08 550 2064 550H1960C1953.92 550 1949 545.075 1949 539V435C1949 428.925 1953.92 424 1960 424Z" stroke="#0085FF" stroke-width="2"/>
<path d="M2042.81 442.044C2020.31 439.319 2003.69 439.319 1981.19 442.044C1973.78 442.94 1967.94 448.783 1967.04 456.191C1964.32 478.694 1964.32 495.306 1967.04 517.809C1967.94 525.217 1973.78 531.06 1981.19 531.956C2003.69 534.681 2020.31 534.681 2042.81 531.956C2050.22 531.06 2056.06 525.217 2056.96 517.809C2059.68 495.306 2059.68 478.694 2056.96 456.191C2056.06 448.783 2050.22 442.94 2042.81 442.044Z" stroke="#0085FF" stroke-width="2"/>
<path d="M1960 148H2064C2070.08 148 2075 152.925 2075 159V263C2075 269.075 2070.08 274 2064 274H1960C1953.92 274 1949 269.075 1949 263V159C1949 152.925 1953.92 148 1960 148Z" stroke="#0085FF" stroke-width="2"/>
<path d="M2042.81 166.044C2020.31 163.319 2003.69 163.319 1981.19 166.044C1973.78 166.94 1967.94 172.783 1967.04 180.191C1964.32 202.694 1964.32 219.306 1967.04 241.809C1967.94 249.217 1973.78 255.06 1981.19 255.956C2003.69 258.681 2020.31 258.681 2042.81 255.956C2050.22 255.06 2056.06 249.217 2056.96 241.809C2059.68 219.306 2059.68 202.694 2056.96 180.191C2056.06 172.783 2050.22 166.94 2042.81 166.044Z" stroke="#0085FF" stroke-width="2"/>
<path d="M1825 268H1929C1935.08 268 1940 272.925 1940 279V383C1940 389.075 1935.08 394 1929 394H1825C1818.92 394 1814 389.075 1814 383V279C1814 272.925 1818.92 268 1825 268Z" stroke="#0085FF" stroke-width="2"/>
<path d="M1907.81 286.044C1885.31 283.319 1868.69 283.319 1846.19 286.044C1838.78 286.94 1832.94 292.783 1832.04 300.191C1829.32 322.694 1829.32 339.306 1832.04 361.809C1832.94 369.217 1838.78 375.06 1846.19 375.956C1868.69 378.681 1885.31 378.681 1907.81 375.956C1915.22 375.06 1921.06 369.217 1921.96 361.809C1924.68 339.306 1924.68 322.694 1921.96 300.191C1921.06 292.783 1915.22 286.94 1907.81 286.044Z" stroke="#0085FF" stroke-width="2"/>
<path d="M1825 406H1929C1935.08 406 1940 410.925 1940 417V521C1940 527.075 1935.08 532 1929 532H1825C1818.92 532 1814 527.075 1814 521V417C1814 410.925 1818.92 406 1825 406Z" stroke="#0085FF" stroke-width="2"/>
<path d="M1907.81 424.044C1885.31 421.319 1868.69 421.319 1846.19 424.044C1838.78 424.94 1832.94 430.783 1832.04 438.191C1829.32 460.694 1829.32 477.306 1832.04 499.809C1832.94 507.217 1838.78 513.06 1846.19 513.956C1868.69 516.681 1885.31 516.681 1907.81 513.956C1915.22 513.06 1921.06 507.217 1921.96 499.809C1924.68 477.306 1924.68 460.694 1921.96 438.191C1921.06 430.783 1915.22 424.94 1907.81 424.044Z" stroke="#0085FF" stroke-width="2"/>
<path d="M1825 130H1929C1935.08 130 1940 134.925 1940 141V245C1940 251.075 1935.08 256 1929 256H1825C1818.92 256 1814 251.075 1814 245V141C1814 134.925 1818.92 130 1825 130Z" stroke="#0085FF" stroke-width="2"/>
<path d="M1907.81 148.044C1885.31 145.319 1868.69 145.319 1846.19 148.044C1838.78 148.94 1832.94 154.783 1832.04 162.191C1829.32 184.694 1829.32 201.306 1832.04 223.809C1832.94 231.217 1838.78 237.06 1846.19 237.956C1868.69 240.681 1885.31 240.681 1907.81 237.956C1915.22 237.06 1921.06 231.217 1921.96 223.809C1924.68 201.306 1924.68 184.694 1921.96 162.191C1921.06 154.783 1915.22 148.94 1907.81 148.044Z" stroke="#0085FF" stroke-width="2"/>
<path d="M1690 286H1794C1800.08 286 1805 290.925 1805 297V401C1805 407.075 1800.08 412 1794 412H1690C1683.92 412 1679 407.075 1679 401V297C1679 290.925 1683.92 286 1690 286Z" stroke="#0085FF" stroke-width="2"/>
<path d="M1772.81 304.044C1750.31 301.319 1733.69 301.319 1711.19 304.044C1703.78 304.94 1697.94 310.783 1697.04 318.191C1694.32 340.694 1694.32 357.306 1697.04 379.809C1697.94 387.217 1703.78 393.06 1711.19 393.956C1733.69 396.681 1750.31 396.681 1772.81 393.956C1780.22 393.06 1786.06 387.217 1786.96 379.809C1789.68 357.306 1789.68 340.694 1786.96 318.191C1786.06 310.783 1780.22 304.94 1772.81 304.044Z" stroke="#0085FF" stroke-width="2"/>
<path d="M1690 424H1794C1800.08 424 1805 428.925 1805 435V539C1805 545.075 1800.08 550 1794 550H1690C1683.92 550 1679 545.075 1679 539V435C1679 428.925 1683.92 424 1690 424Z" stroke="#0085FF" stroke-width="2"/>
<path d="M1772.81 442.044C1750.31 439.319 1733.69 439.319 1711.19 442.044C1703.78 442.94 1697.94 448.783 1697.04 456.191C1694.32 478.694 1694.32 495.306 1697.04 517.809C1697.94 525.217 1703.78 531.06 1711.19 531.956C1733.69 534.681 1750.31 534.681 1772.81 531.956C1780.22 531.06 1786.06 525.217 1786.96 517.809C1789.68 495.306 1789.68 478.694 1786.96 456.191C1786.06 448.783 1780.22 442.94 1772.81 442.044Z" stroke="#0085FF" stroke-width="2"/>
<path d="M1690 148H1794C1800.08 148 1805 152.925 1805 159V263C1805 269.075 1800.08 274 1794 274H1690C1683.92 274 1679 269.075 1679 263V159C1679 152.925 1683.92 148 1690 148Z" stroke="#0085FF" stroke-width="2"/>
<path d="M1772.81 166.044C1750.31 163.319 1733.69 163.319 1711.19 166.044C1703.78 166.94 1697.94 172.783 1697.04 180.191C1694.32 202.694 1694.32 219.306 1697.04 241.809C1697.94 249.217 1703.78 255.06 1711.19 255.956C1733.69 258.681 1750.31 258.681 1772.81 255.956C1780.22 255.06 1786.06 249.217 1786.96 241.809C1789.68 219.306 1789.68 202.694 1786.96 180.191C1786.06 172.783 1780.22 166.94 1772.81 166.044Z" stroke="#0085FF" stroke-width="2"/>
<path d="M1555 304H1659C1665.08 304 1670 308.925 1670 315V419C1670 425.075 1665.08 430 1659 430H1555C1548.92 430 1544 425.075 1544 419V315C1544 308.925 1548.92 304 1555 304Z" stroke="#0085FF" stroke-width="2"/>
<path d="M1637.81 322.044C1615.31 319.319 1598.69 319.319 1576.19 322.044C1568.78 322.94 1562.94 328.783 1562.04 336.191C1559.32 358.694 1559.32 375.306 1562.04 397.809C1562.94 405.217 1568.78 411.06 1576.19 411.956C1598.69 414.681 1615.31 414.681 1637.81 411.956C1645.22 411.06 1651.06 405.217 1651.96 397.809C1654.68 375.306 1654.68 358.694 1651.96 336.191C1651.06 328.783 1645.22 322.94 1637.81 322.044Z" stroke="#0085FF" stroke-width="2"/>
<path d="M1555 442H1659C1665.08 442 1670 446.925 1670 453V557C1670 563.075 1665.08 568 1659 568H1555C1548.92 568 1544 563.075 1544 557V453C1544 446.925 1548.92 442 1555 442Z" stroke="#0085FF" stroke-width="2"/>
<path d="M1637.81 460.044C1615.31 457.319 1598.69 457.319 1576.19 460.044C1568.78 460.94 1562.94 466.783 1562.04 474.191C1559.32 496.694 1559.32 513.306 1562.04 535.809C1562.94 543.217 1568.78 549.06 1576.19 549.956C1598.69 552.681 1615.31 552.681 1637.81 549.956C1645.22 549.06 1651.06 543.217 1651.96 535.809C1654.68 513.306 1654.68 496.694 1651.96 474.191C1651.06 466.783 1645.22 460.94 1637.81 460.044Z" stroke="#0085FF" stroke-width="2"/>
<path d="M1555 166H1659C1665.08 166 1670 170.925 1670 177V281C1670 287.075 1665.08 292 1659 292H1555C1548.92 292 1544 287.075 1544 281V177C1544 170.925 1548.92 166 1555 166Z" stroke="#0085FF" stroke-width="2"/>
<path d="M1637.81 184.044C1615.31 181.319 1598.69 181.319 1576.19 184.044C1568.78 184.94 1562.94 190.783 1562.04 198.191C1559.32 220.694 1559.32 237.306 1562.04 259.809C1562.94 267.217 1568.78 273.06 1576.19 273.956C1598.69 276.681 1615.31 276.681 1637.81 273.956C1645.22 273.06 1651.06 267.217 1651.96 259.809C1654.68 237.306 1654.68 220.694 1651.96 198.191C1651.06 190.783 1645.22 184.94 1637.81 184.044Z" stroke="#0085FF" stroke-width="2"/>
<path fill-rule="evenodd" clip-rule="evenodd" d="M2212 610H1995C1991.69 610 1989 612.686 1989 616V726C1989 729.314 1991.69 732 1995 732H2212C2215.31 732 2218 729.314 2218 726V699H2221V726C2221 730.971 2216.97 735 2212 735H1995C1990.03 735 1986 730.971 1986 726V616C1986 611.029 1990.03 607 1995 607H2212C2216.97 607 2221 611.029 2221 616V643H2218V616C2218 612.686 2215.31 610 2212 610Z" fill="#0085FF"/>
<path d="M2183 644.5H2226C2227.38 644.5 2228.5 645.619 2228.5 647V695C2228.5 696.381 2227.38 697.5 2226 697.5H2183C2181.62 697.5 2180.5 696.381 2180.5 695V647C2180.5 645.619 2181.62 644.5 2183 644.5Z" stroke="#0085FF" stroke-width="3"/>
<path d="M2206 622.5C2204.62 622.5 2203.5 621.381 2203.5 620C2203.5 618.619 2204.62 617.5 2206 617.5C2207.38 617.5 2208.5 618.619 2208.5 620C2208.5 621.381 2207.38 622.5 2206 622.5Z" stroke="#0085FF" stroke-width="3"/>
<path d="M2189 622.5C2187.62 622.5 2186.5 621.381 2186.5 620C2186.5 618.619 2187.62 617.5 2189 617.5C2190.38 617.5 2191.5 618.619 2191.5 620C2191.5 621.381 2190.38 622.5 2189 622.5Z" stroke="#0085FF" stroke-width="3"/>
<path d="M2172 622.5C2170.62 622.5 2169.5 621.381 2169.5 620C2169.5 618.619 2170.62 617.5 2172 617.5C2173.38 617.5 2174.5 618.619 2174.5 620C2174.5 621.381 2173.38 622.5 2172 622.5Z" stroke="#0085FF" stroke-width="3"/>
<path d="M2155 622.5C2153.62 622.5 2152.5 621.381 2152.5 620C2152.5 618.619 2153.62 617.5 2155 617.5C2156.38 617.5 2157.5 618.619 2157.5 620C2157.5 621.381 2156.38 622.5 2155 622.5Z" stroke="#0085FF" stroke-width="3"/>
<path d="M2138 622.5C2136.62 622.5 2135.5 621.381 2135.5 620C2135.5 618.619 2136.62 617.5 2138 617.5C2139.38 617.5 2140.5 618.619 2140.5 620C2140.5 621.381 2139.38 622.5 2138 622.5Z" stroke="#0085FF" stroke-width="3"/>
<path d="M2121 622.5C2119.62 622.5 2118.5 621.381 2118.5 620C2118.5 618.619 2119.62 617.5 2121 617.5C2122.38 617.5 2123.5 618.619 2123.5 620C2123.5 621.381 2122.38 622.5 2121 622.5Z" stroke="#0085FF" stroke-width="3"/>
<path d="M2104 622.5C2102.62 622.5 2101.5 621.381 2101.5 620C2101.5 618.619 2102.62 617.5 2104 617.5C2105.38 617.5 2106.5 618.619 2106.5 620C2106.5 621.381 2105.38 622.5 2104 622.5Z" stroke="#0085FF" stroke-width="3"/>
<path d="M2087 622.5C2085.62 622.5 2084.5 621.381 2084.5 620C2084.5 618.619 2085.62 617.5 2087 617.5C2088.38 617.5 2089.5 618.619 2089.5 620C2089.5 621.381 2088.38 622.5 2087 622.5Z" stroke="#0085FF" stroke-width="3"/>
<path d="M2070 622.5C2068.62 622.5 2067.5 621.381 2067.5 620C2067.5 618.619 2068.62 617.5 2070 617.5C2071.38 617.5 2072.5 618.619 2072.5 620C2072.5 621.381 2071.38 622.5 2070 622.5Z" stroke="#0085FF" stroke-width="3"/>
<path d="M2053 622.5C2051.62 622.5 2050.5 621.381 2050.5 620C2050.5 618.619 2051.62 617.5 2053 617.5C2054.38 617.5 2055.5 618.619 2055.5 620C2055.5 621.381 2054.38 622.5 2053 622.5Z" stroke="#0085FF" stroke-width="3"/>
<path d="M2036 622.5C2034.62 622.5 2033.5 621.381 2033.5 620C2033.5 618.619 2034.62 617.5 2036 617.5C2037.38 617.5 2038.5 618.619 2038.5 620C2038.5 621.381 2037.38 622.5 2036 622.5Z" stroke="#0085FF" stroke-width="3"/>
<path d="M2019 622.5C2017.62 622.5 2016.5 621.381 2016.5 620C2016.5 618.619 2017.62 617.5 2019 617.5C2020.38 617.5 2021.5 618.619 2021.5 620C2021.5 621.381 2020.38 622.5 2019 622.5Z" stroke="#0085FF" stroke-width="3"/>
<path d="M2002 622.5C2000.62 622.5 1999.5 621.381 1999.5 620C1999.5 618.619 2000.62 617.5 2002 617.5C2003.38 617.5 2004.5 618.619 2004.5 620C2004.5 621.381 2003.38 622.5 2002 622.5Z" stroke="#0085FF" stroke-width="3"/>
<path d="M2202 724.5C2200.62 724.5 2199.5 723.381 2199.5 722C2199.5 720.619 2200.62 719.5 2202 719.5C2203.38 719.5 2204.5 720.619 2204.5 722C2204.5 723.381 2203.38 724.5 2202 724.5Z" stroke="#0085FF" stroke-width="3"/>
<path d="M2185 724.5C2183.62 724.5 2182.5 723.381 2182.5 722C2182.5 720.619 2183.62 719.5 2185 719.5C2186.38 719.5 2187.5 720.619 2187.5 722C2187.5 723.381 2186.38 724.5 2185 724.5Z" stroke="#0085FF" stroke-width="3"/>
<path d="M2168 724.5C2166.62 724.5 2165.5 723.381 2165.5 722C2165.5 720.619 2166.62 719.5 2168 719.5C2169.38 719.5 2170.5 720.619 2170.5 722C2170.5 723.381 2169.38 724.5 2168 724.5Z" stroke="#0085FF" stroke-width="3"/>
<path d="M2151 724.5C2149.62 724.5 2148.5 723.381 2148.5 722C2148.5 720.619 2149.62 719.5 2151 719.5C2152.38 719.5 2153.5 720.619 2153.5 722C2153.5 723.381 2152.38 724.5 2151 724.5Z" stroke="#0085FF" stroke-width="3"/>
<path d="M2134 724.5C2132.62 724.5 2131.5 723.381 2131.5 722C2131.5 720.619 2132.62 719.5 2134 719.5C2135.38 719.5 2136.5 720.619 2136.5 722C2136.5 723.381 2135.38 724.5 2134 724.5Z" stroke="#0085FF" stroke-width="3"/>
<path d="M2117 724.5C2115.62 724.5 2114.5 723.381 2114.5 722C2114.5 720.619 2115.62 719.5 2117 719.5C2118.38 719.5 2119.5 720.619 2119.5 722C2119.5 723.381 2118.38 724.5 2117 724.5Z" stroke="#0085FF" stroke-width="3"/>
<path d="M2100 724.5C2098.62 724.5 2097.5 723.381 2097.5 722C2097.5 720.619 2098.62 719.5 2100 719.5C2101.38 719.5 2102.5 720.619 2102.5 722C2102.5 723.381 2101.38 724.5 2100 724.5Z" stroke="#0085FF" stroke-width="3"/>
<path d="M2083 724.5C2081.62 724.5 2080.5 723.381 2080.5 722C2080.5 720.619 2081.62 719.5 2083 719.5C2084.38 719.5 2085.5 720.619 2085.5 722C2085.5 723.381 2084.38 724.5 2083 724.5Z" stroke="#0085FF" stroke-width="3"/>
<path d="M2066 724.5C2064.62 724.5 2063.5 723.381 2063.5 722C2063.5 720.619 2064.62 719.5 2066 719.5C2067.38 719.5 2068.5 720.619 2068.5 722C2068.5 723.381 2067.38 724.5 2066 724.5Z" stroke="#0085FF" stroke-width="3"/>
<path d="M2049 724.5C2047.62 724.5 2046.5 723.381 2046.5 722C2046.5 720.619 2047.62 719.5 2049 719.5C2050.38 719.5 2051.5 720.619 2051.5 722C2051.5 723.381 2050.38 724.5 2049 724.5Z" stroke="#0085FF" stroke-width="3"/>
<path d="M2032 724.5C2030.62 724.5 2029.5 723.381 2029.5 722C2029.5 720.619 2030.62 719.5 2032 719.5C2033.38 719.5 2034.5 720.619 2034.5 722C2034.5 723.381 2033.38 724.5 2032 724.5Z" stroke="#0085FF" stroke-width="3"/>
<path d="M2015 724.5C2013.62 724.5 2012.5 723.381 2012.5 722C2012.5 720.619 2013.62 719.5 2015 719.5C2016.38 719.5 2017.5 720.619 2017.5 722C2017.5 723.381 2016.38 724.5 2015 724.5Z" stroke="#0085FF" stroke-width="3"/>
<path d="M1998 724.5C1996.62 724.5 1995.5 723.381 1995.5 722C1995.5 720.619 1996.62 719.5 1998 719.5C1999.38 719.5 2000.5 720.619 2000.5 722C2000.5 723.381 1999.38 724.5 1998 724.5Z" stroke="#0085FF" stroke-width="3"/>
<path d="M1989 560H2059.36C2069.16 560 2077.11 567.947 2077.11 577.75C2077.11 587.553 2085.05 595.5 2094.86 595.5H2216C2225.94 595.5 2234 603.559 2234 613.5V740C2234 749.941 2225.94 758 2216 758H1989C1979.06 758 1971 749.941 1971 740V578C1971 568.059 1979.06 560 1989 560Z" stroke="#0085FF" stroke-width="3"/>
</svg>
