<svg width="1901" height="1054" viewBox="0 0 1901 1054" fill="none" xmlns="http://www.w3.org/2000/svg">
<path fill-rule="evenodd" clip-rule="evenodd" d="M153.042 215.633C173.334 193.1 204.49 178.239 248.043 177H849C855.753 177 862.779 180.424 868.178 185.822C873.576 191.221 877 198.247 877 205L877 745.983L877 745.993C876.752 789.003 861.915 820.117 837.931 840.528C825.388 851.202 810.247 859.029 793.205 864.077L791.049 867.81C843.429 853.46 879.612 813.867 880 746V205C880 189.536 864.464 174 849 174H248C159.5 176.5 120 234.5 120 302V843C120 858.464 135.536 874 151 874H742C751.547 874 760.828 873.385 769.765 872.144L765.478 869.669C757.888 870.558 750.047 871 742 871H151C144.247 871 137.221 867.576 131.822 862.178C126.424 856.779 123 849.753 123 843V302C123 268.816 132.707 238.214 153.042 215.633Z" fill="black"/>
<rect x="769.366" y="651.366" width="126" height="190" rx="11" transform="rotate(30 769.366 651.366)" stroke="black" stroke-width="2"/>
<path d="M783.321 690.767C805.211 698.563 819.689 706.922 837.385 721.981C842.945 726.712 844.534 734.629 841.438 741.28C824.609 777.434 811.165 800.719 788.27 833.37C784.057 839.377 776.407 841.959 769.53 839.51C747.64 831.713 733.163 823.355 715.466 808.296C709.906 803.565 708.318 795.648 711.414 788.997C728.242 752.843 741.686 729.558 764.581 696.907C768.794 690.9 776.444 688.317 783.321 690.767Z" stroke="black" stroke-width="2"/>
<rect x="576.836" y="664.225" width="126" height="126" rx="11" transform="rotate(15 576.836 664.225)" stroke="black" stroke-width="2"/>
<path d="M603.26 689.985C625.701 693.177 641.748 697.477 662.779 705.933C669.701 708.717 673.833 715.873 672.782 723.26C669.59 745.701 665.29 761.748 656.834 782.779C654.051 789.701 646.895 793.833 639.508 792.782C617.066 789.59 601.019 785.29 579.988 776.834C573.066 774.051 568.934 766.895 569.985 759.508C573.177 737.066 577.477 721.019 585.933 699.988C588.717 693.066 595.873 688.934 603.26 689.985Z" stroke="black" stroke-width="2"/>
<rect x="407" y="658" width="126" height="126" rx="11" stroke="black" stroke-width="2"/>
<path d="M439.191 676.044C461.694 673.319 478.306 673.319 500.809 676.044C508.217 676.94 514.06 682.783 514.956 690.191C517.681 712.694 517.681 729.306 514.956 751.809C514.06 759.217 508.217 765.06 500.809 765.956C478.306 768.681 461.694 768.681 439.191 765.956C431.783 765.06 425.94 759.217 425.044 751.809C422.319 729.306 422.319 712.694 425.044 690.191C425.94 682.783 431.783 676.94 439.191 676.044Z" stroke="black" stroke-width="2"/>
<rect x="153" y="378" width="126" height="126" rx="11" stroke="black" stroke-width="2"/>
<path d="M185.191 396.044C207.694 393.319 224.306 393.319 246.809 396.044C254.217 396.94 260.06 402.783 260.956 410.191C263.681 432.694 263.681 449.306 260.956 471.809C260.06 479.217 254.217 485.06 246.809 485.956C224.306 488.681 207.694 488.681 185.191 485.956C177.783 485.06 171.94 479.217 171.044 471.809C168.319 449.306 168.319 432.694 171.044 410.191C171.94 402.783 177.783 396.94 185.191 396.044Z" stroke="black" stroke-width="2"/>
<rect x="153" y="516" width="126" height="126" rx="11" stroke="black" stroke-width="2"/>
<path d="M185.191 534.044C207.694 531.319 224.306 531.319 246.809 534.044C254.217 534.94 260.06 540.783 260.956 548.191C263.681 570.694 263.681 587.306 260.956 609.809C260.06 617.217 254.217 623.06 246.809 623.956C224.306 626.681 207.694 626.681 185.191 623.956C177.783 623.06 171.94 617.217 171.044 609.809C168.319 587.306 168.319 570.694 171.044 548.191C171.94 540.783 177.783 534.94 185.191 534.044Z" stroke="black" stroke-width="2"/>
<rect x="153" y="240" width="126" height="126" rx="11" stroke="black" stroke-width="2"/>
<path d="M185.191 258.044C207.694 255.319 224.306 255.319 246.809 258.044C254.217 258.94 260.06 264.783 260.956 272.191C263.681 294.694 263.681 311.306 260.956 333.809C260.06 341.217 254.217 347.06 246.809 347.956C224.306 350.681 207.694 350.681 185.191 347.956C177.783 347.06 171.94 341.217 171.044 333.809C168.319 311.306 168.319 294.694 171.044 272.191C171.94 264.783 177.783 258.94 185.191 258.044Z" stroke="black" stroke-width="2"/>
<rect x="288" y="346" width="126" height="126" rx="11" stroke="black" stroke-width="2"/>
<path d="M320.191 364.044C342.694 361.319 359.306 361.319 381.809 364.044C389.217 364.94 395.06 370.783 395.956 378.191C398.681 400.694 398.681 417.306 395.956 439.809C395.06 447.217 389.217 453.06 381.809 453.956C359.306 456.681 342.694 456.681 320.191 453.956C312.783 453.06 306.94 447.217 306.044 439.809C303.319 417.306 303.319 400.694 306.044 378.191C306.94 370.783 312.783 364.94 320.191 364.044Z" stroke="black" stroke-width="2"/>
<rect x="288" y="484" width="126" height="126" rx="11" stroke="black" stroke-width="2"/>
<path d="M320.191 502.044C342.694 499.319 359.306 499.319 381.809 502.044C389.217 502.94 395.06 508.783 395.956 516.191C398.681 538.694 398.681 555.306 395.956 577.809C395.06 585.217 389.217 591.06 381.809 591.956C359.306 594.681 342.694 594.681 320.191 591.956C312.783 591.06 306.94 585.217 306.044 577.809C303.319 555.306 303.319 538.694 306.044 516.191C306.94 508.783 312.783 502.94 320.191 502.044Z" stroke="black" stroke-width="2"/>
<rect x="288" y="208" width="126" height="126" rx="11" stroke="black" stroke-width="2"/>
<path d="M320.191 226.044C342.694 223.319 359.306 223.319 381.809 226.044C389.217 226.94 395.06 232.783 395.956 240.191C398.681 262.694 398.681 279.306 395.956 301.809C395.06 309.217 389.217 315.06 381.809 315.956C359.306 318.681 342.694 318.681 320.191 315.956C312.783 315.06 306.94 309.217 306.044 301.809C303.319 279.306 303.319 262.694 306.044 240.191C306.94 232.783 312.783 226.94 320.191 226.044Z" stroke="black" stroke-width="2"/>
<rect x="423" y="328" width="126" height="126" rx="11" stroke="black" stroke-width="2"/>
<path d="M455.191 346.044C477.694 343.319 494.306 343.319 516.809 346.044C524.217 346.94 530.06 352.783 530.956 360.191C533.681 382.694 533.681 399.306 530.956 421.809C530.06 429.217 524.217 435.06 516.809 435.956C494.306 438.681 477.694 438.681 455.191 435.956C447.783 435.06 441.94 429.217 441.044 421.809C438.319 399.306 438.319 382.694 441.044 360.191C441.94 352.783 447.783 346.94 455.191 346.044Z" stroke="black" stroke-width="2"/>
<rect x="423" y="466" width="126" height="126" rx="11" stroke="black" stroke-width="2"/>
<path d="M455.191 484.044C477.694 481.319 494.306 481.319 516.809 484.044C524.217 484.94 530.06 490.783 530.956 498.191C533.681 520.694 533.681 537.306 530.956 559.809C530.06 567.217 524.217 573.06 516.809 573.956C494.306 576.681 477.694 576.681 455.191 573.956C447.783 573.06 441.94 567.217 441.044 559.809C438.319 537.306 438.319 520.694 441.044 498.191C441.94 490.783 447.783 484.94 455.191 484.044Z" stroke="black" stroke-width="2"/>
<rect x="423" y="190" width="126" height="126" rx="11" stroke="black" stroke-width="2"/>
<path d="M455.191 208.044C477.694 205.319 494.306 205.319 516.809 208.044C524.217 208.94 530.06 214.783 530.956 222.191C533.681 244.694 533.681 261.306 530.956 283.809C530.06 291.217 524.217 297.06 516.809 297.956C494.306 300.681 477.694 300.681 455.191 297.956C447.783 297.06 441.94 291.217 441.044 283.809C438.319 261.306 438.319 244.694 441.044 222.191C441.94 214.783 447.783 208.94 455.191 208.044Z" stroke="black" stroke-width="2"/>
<rect x="558" y="346" width="126" height="126" rx="11" stroke="black" stroke-width="2"/>
<path d="M590.191 364.044C612.694 361.319 629.306 361.319 651.809 364.044C659.217 364.94 665.06 370.783 665.956 378.191C668.681 400.694 668.681 417.306 665.956 439.809C665.06 447.217 659.217 453.06 651.809 453.956C629.306 456.681 612.694 456.681 590.191 453.956C582.783 453.06 576.94 447.217 576.044 439.809C573.319 417.306 573.319 400.694 576.044 378.191C576.94 370.783 582.783 364.94 590.191 364.044Z" stroke="black" stroke-width="2"/>
<rect x="558" y="484" width="126" height="126" rx="11" stroke="black" stroke-width="2"/>
<path d="M590.191 502.044C612.694 499.319 629.306 499.319 651.809 502.044C659.217 502.94 665.06 508.783 665.956 516.191C668.681 538.694 668.681 555.306 665.956 577.809C665.06 585.217 659.217 591.06 651.809 591.956C629.306 594.681 612.694 594.681 590.191 591.956C582.783 591.06 576.94 585.217 576.044 577.809C573.319 555.306 573.319 538.694 576.044 516.191C576.94 508.783 582.783 502.94 590.191 502.044Z" stroke="black" stroke-width="2"/>
<rect x="558" y="208" width="126" height="126" rx="11" stroke="black" stroke-width="2"/>
<path d="M590.191 226.044C612.694 223.319 629.306 223.319 651.809 226.044C659.217 226.94 665.06 232.783 665.956 240.191C668.681 262.694 668.681 279.306 665.956 301.809C665.06 309.217 659.217 315.06 651.809 315.956C629.306 318.681 612.694 318.681 590.191 315.956C582.783 315.06 576.94 309.217 576.044 301.809C573.319 279.306 573.319 262.694 576.044 240.191C576.94 232.783 582.783 226.94 590.191 226.044Z" stroke="black" stroke-width="2"/>
<rect x="693" y="364" width="126" height="126" rx="11" stroke="black" stroke-width="2"/>
<path d="M725.191 382.044C747.694 379.319 764.306 379.319 786.809 382.044C794.217 382.94 800.06 388.783 800.956 396.191C803.681 418.694 803.681 435.306 800.956 457.809C800.06 465.217 794.217 471.06 786.809 471.956C764.306 474.681 747.694 474.681 725.191 471.956C717.783 471.06 711.94 465.217 711.044 457.809C708.319 435.306 708.319 418.694 711.044 396.191C711.94 388.783 717.783 382.94 725.191 382.044Z" stroke="black" stroke-width="2"/>
<rect x="693" y="502" width="126" height="126" rx="11" stroke="black" stroke-width="2"/>
<path d="M725.191 520.044C747.694 517.319 764.306 517.319 786.809 520.044C794.217 520.94 800.06 526.783 800.956 534.191C803.681 556.694 803.681 573.306 800.956 595.809C800.06 603.217 794.217 609.06 786.809 609.956C764.306 612.681 747.694 612.681 725.191 609.956C717.783 609.06 711.94 603.217 711.044 595.809C708.319 573.306 708.319 556.694 711.044 534.191C711.94 526.783 717.783 520.94 725.191 520.044Z" stroke="black" stroke-width="2"/>
<rect x="693" y="226" width="126" height="126" rx="11" stroke="black" stroke-width="2"/>
<path d="M725.191 244.044C747.694 241.319 764.306 241.319 786.809 244.044C794.217 244.94 800.06 250.783 800.956 258.191C803.681 280.694 803.681 297.306 800.956 319.809C800.06 327.217 794.217 333.06 786.809 333.956C764.306 336.681 747.694 336.681 725.191 333.956C717.783 333.06 711.94 327.217 711.044 319.809C708.319 297.306 708.319 280.694 711.044 258.191C711.94 250.783 717.783 244.94 725.191 244.044Z" stroke="black" stroke-width="2"/>
<path fill-rule="evenodd" clip-rule="evenodd" d="M151 670H368C371.314 670 374 672.686 374 676V786C374 789.314 371.314 792 368 792H151C147.686 792 145 789.314 145 786V759H142V786C142 790.971 146.029 795 151 795H368C372.971 795 377 790.971 377 786V676C377 671.029 372.971 667 368 667H151C146.029 667 142 671.029 142 676V703H145V676C145 672.686 147.686 670 151 670Z" fill="black"/>
<rect x="134.5" y="704.5" width="48" height="53" rx="2.5" stroke="black" stroke-width="3"/>
<circle cx="157" cy="680" r="2.5" stroke="black" stroke-width="3"/>
<circle cx="174" cy="680" r="2.5" stroke="black" stroke-width="3"/>
<circle cx="191" cy="680" r="2.5" stroke="black" stroke-width="3"/>
<circle cx="208" cy="680" r="2.5" stroke="black" stroke-width="3"/>
<circle cx="225" cy="680" r="2.5" stroke="black" stroke-width="3"/>
<circle cx="242" cy="680" r="2.5" stroke="black" stroke-width="3"/>
<circle cx="259" cy="680" r="2.5" stroke="black" stroke-width="3"/>
<circle cx="276" cy="680" r="2.5" stroke="black" stroke-width="3"/>
<circle cx="293" cy="680" r="2.5" stroke="black" stroke-width="3"/>
<circle cx="310" cy="680" r="2.5" stroke="black" stroke-width="3"/>
<circle cx="327" cy="680" r="2.5" stroke="black" stroke-width="3"/>
<circle cx="344" cy="680" r="2.5" stroke="black" stroke-width="3"/>
<circle cx="361" cy="680" r="2.5" stroke="black" stroke-width="3"/>
<circle cx="161" cy="782" r="2.5" stroke="black" stroke-width="3"/>
<circle cx="178" cy="782" r="2.5" stroke="black" stroke-width="3"/>
<circle cx="195" cy="782" r="2.5" stroke="black" stroke-width="3"/>
<circle cx="212" cy="782" r="2.5" stroke="black" stroke-width="3"/>
<circle cx="229" cy="782" r="2.5" stroke="black" stroke-width="3"/>
<circle cx="246" cy="782" r="2.5" stroke="black" stroke-width="3"/>
<circle cx="263" cy="782" r="2.5" stroke="black" stroke-width="3"/>
<circle cx="280" cy="782" r="2.5" stroke="black" stroke-width="3"/>
<circle cx="297" cy="782" r="2.5" stroke="black" stroke-width="3"/>
<circle cx="314" cy="782" r="2.5" stroke="black" stroke-width="3"/>
<circle cx="331" cy="782" r="2.5" stroke="black" stroke-width="3"/>
<circle cx="348" cy="782" r="2.5" stroke="black" stroke-width="3"/>
<circle cx="365" cy="782" r="2.5" stroke="black" stroke-width="3"/>
<path d="M374 620H303.645C293.842 620 285.895 627.947 285.895 637.75C285.895 647.553 277.948 655.5 268.145 655.5H147C137.059 655.5 129 663.559 129 673.5V800C129 809.941 137.059 818 147 818H374C383.941 818 392 809.941 392 800V638C392 628.059 383.941 620 374 620Z" stroke="black" stroke-width="3"/>
<path fill-rule="evenodd" clip-rule="evenodd" d="M1747.96 215.633C1727.67 193.1 1696.51 178.239 1652.96 177H1052C1045.25 177 1038.22 180.424 1032.82 185.822C1027.42 191.221 1024 198.247 1024 205L1024 745.983L1024 745.993C1024.25 789.003 1039.09 820.117 1063.07 840.528C1075.61 851.202 1090.75 859.029 1107.8 864.077L1109.95 867.81C1057.57 853.46 1021.39 813.867 1021 746V205C1021 189.536 1036.54 174 1052 174H1653C1741.5 176.5 1781 234.5 1781 302V843C1781 858.464 1765.46 874 1750 874H1159C1149.45 874 1140.17 873.385 1131.23 872.144L1135.52 869.669C1143.11 870.558 1150.95 871 1159 871H1750C1756.75 871 1763.78 867.576 1769.18 862.178C1774.58 856.779 1778 849.753 1778 843V302C1778 268.816 1768.29 238.214 1747.96 215.633Z" fill="black"/>
<rect x="-0.366025" y="1.36603" width="126" height="190" rx="11" transform="matrix(-0.866025 0.5 0.5 0.866025 1130.63 650.366)" stroke="black" stroke-width="2"/>
<path d="M1117.68 690.767C1095.79 698.563 1081.31 706.922 1063.61 721.981C1058.05 726.712 1056.47 734.629 1059.56 741.28C1076.39 777.434 1089.83 800.719 1112.73 833.37C1116.94 839.377 1124.59 841.959 1131.47 839.51C1153.36 831.713 1167.84 823.355 1185.53 808.296C1191.09 803.565 1192.68 795.648 1189.59 788.997C1172.76 752.843 1159.31 729.558 1136.42 696.907C1132.21 690.9 1124.56 688.317 1117.68 690.767Z" stroke="black" stroke-width="2"/>
<rect x="-0.707107" y="1.22474" width="126" height="126" rx="11" transform="matrix(-0.965926 0.258819 0.258819 0.965926 1323.16 663.225)" stroke="black" stroke-width="2"/>
<path d="M1297.74 689.985C1275.3 693.177 1259.25 697.477 1238.22 705.933C1231.3 708.717 1227.17 715.873 1228.22 723.26C1231.41 745.701 1235.71 761.748 1244.17 782.779C1246.95 789.701 1254.11 793.833 1261.49 792.782C1283.93 789.59 1299.98 785.29 1321.01 776.834C1327.93 774.051 1332.07 766.895 1331.01 759.508C1327.82 737.066 1323.52 721.019 1315.07 699.988C1312.28 693.066 1305.13 688.934 1297.74 689.985Z" stroke="black" stroke-width="2"/>
<rect x="-1" y="1" width="126" height="126" rx="11" transform="matrix(-1 0 0 1 1493 657)" stroke="black" stroke-width="2"/>
<path d="M1461.81 676.044C1439.31 673.319 1422.69 673.319 1400.19 676.044C1392.78 676.94 1386.94 682.783 1386.04 690.191C1383.32 712.694 1383.32 729.306 1386.04 751.809C1386.94 759.217 1392.78 765.06 1400.19 765.956C1422.69 768.681 1439.31 768.681 1461.81 765.956C1469.22 765.06 1475.06 759.217 1475.96 751.809C1478.68 729.306 1478.68 712.694 1475.96 690.191C1475.06 682.783 1469.22 676.94 1461.81 676.044Z" stroke="black" stroke-width="2"/>
<rect x="-1" y="1" width="126" height="126" rx="11" transform="matrix(-1 0 0 1 1747 377)" stroke="black" stroke-width="2"/>
<path d="M1715.81 396.044C1693.31 393.319 1676.69 393.319 1654.19 396.044C1646.78 396.94 1640.94 402.783 1640.04 410.191C1637.32 432.694 1637.32 449.306 1640.04 471.809C1640.94 479.217 1646.78 485.06 1654.19 485.956C1676.69 488.681 1693.31 488.681 1715.81 485.956C1723.22 485.06 1729.06 479.217 1729.96 471.809C1732.68 449.306 1732.68 432.694 1729.96 410.191C1729.06 402.783 1723.22 396.94 1715.81 396.044Z" stroke="black" stroke-width="2"/>
<rect x="-1" y="1" width="126" height="126" rx="11" transform="matrix(-1 0 0 1 1747 515)" stroke="black" stroke-width="2"/>
<path d="M1715.81 534.044C1693.31 531.319 1676.69 531.319 1654.19 534.044C1646.78 534.94 1640.94 540.783 1640.04 548.191C1637.32 570.694 1637.32 587.306 1640.04 609.809C1640.94 617.217 1646.78 623.06 1654.19 623.956C1676.69 626.681 1693.31 626.681 1715.81 623.956C1723.22 623.06 1729.06 617.217 1729.96 609.809C1732.68 587.306 1732.68 570.694 1729.96 548.191C1729.06 540.783 1723.22 534.94 1715.81 534.044Z" stroke="black" stroke-width="2"/>
<rect x="-1" y="1" width="126" height="126" rx="11" transform="matrix(-1 0 0 1 1747 239)" stroke="black" stroke-width="2"/>
<path d="M1715.81 258.044C1693.31 255.319 1676.69 255.319 1654.19 258.044C1646.78 258.94 1640.94 264.783 1640.04 272.191C1637.32 294.694 1637.32 311.306 1640.04 333.809C1640.94 341.217 1646.78 347.06 1654.19 347.956C1676.69 350.681 1693.31 350.681 1715.81 347.956C1723.22 347.06 1729.06 341.217 1729.96 333.809C1732.68 311.306 1732.68 294.694 1729.96 272.191C1729.06 264.783 1723.22 258.94 1715.81 258.044Z" stroke="black" stroke-width="2"/>
<rect x="-1" y="1" width="126" height="126" rx="11" transform="matrix(-1 0 0 1 1612 345)" stroke="black" stroke-width="2"/>
<path d="M1580.81 364.044C1558.31 361.319 1541.69 361.319 1519.19 364.044C1511.78 364.94 1505.94 370.783 1505.04 378.191C1502.32 400.694 1502.32 417.306 1505.04 439.809C1505.94 447.217 1511.78 453.06 1519.19 453.956C1541.69 456.681 1558.31 456.681 1580.81 453.956C1588.22 453.06 1594.06 447.217 1594.96 439.809C1597.68 417.306 1597.68 400.694 1594.96 378.191C1594.06 370.783 1588.22 364.94 1580.81 364.044Z" stroke="black" stroke-width="2"/>
<rect x="-1" y="1" width="126" height="126" rx="11" transform="matrix(-1 0 0 1 1612 483)" stroke="black" stroke-width="2"/>
<path d="M1580.81 502.044C1558.31 499.319 1541.69 499.319 1519.19 502.044C1511.78 502.94 1505.94 508.783 1505.04 516.191C1502.32 538.694 1502.32 555.306 1505.04 577.809C1505.94 585.217 1511.78 591.06 1519.19 591.956C1541.69 594.681 1558.31 594.681 1580.81 591.956C1588.22 591.06 1594.06 585.217 1594.96 577.809C1597.68 555.306 1597.68 538.694 1594.96 516.191C1594.06 508.783 1588.22 502.94 1580.81 502.044Z" stroke="black" stroke-width="2"/>
<rect x="-1" y="1" width="126" height="126" rx="11" transform="matrix(-1 0 0 1 1612 207)" stroke="black" stroke-width="2"/>
<path d="M1580.81 226.044C1558.31 223.319 1541.69 223.319 1519.19 226.044C1511.78 226.94 1505.94 232.783 1505.04 240.191C1502.32 262.694 1502.32 279.306 1505.04 301.809C1505.94 309.217 1511.78 315.06 1519.19 315.956C1541.69 318.681 1558.31 318.681 1580.81 315.956C1588.22 315.06 1594.06 309.217 1594.96 301.809C1597.68 279.306 1597.68 262.694 1594.96 240.191C1594.06 232.783 1588.22 226.94 1580.81 226.044Z" stroke="black" stroke-width="2"/>
<rect x="-1" y="1" width="126" height="126" rx="11" transform="matrix(-1 0 0 1 1477 327)" stroke="black" stroke-width="2"/>
<path d="M1445.81 346.044C1423.31 343.319 1406.69 343.319 1384.19 346.044C1376.78 346.94 1370.94 352.783 1370.04 360.191C1367.32 382.694 1367.32 399.306 1370.04 421.809C1370.94 429.217 1376.78 435.06 1384.19 435.956C1406.69 438.681 1423.31 438.681 1445.81 435.956C1453.22 435.06 1459.06 429.217 1459.96 421.809C1462.68 399.306 1462.68 382.694 1459.96 360.191C1459.06 352.783 1453.22 346.94 1445.81 346.044Z" stroke="black" stroke-width="2"/>
<rect x="-1" y="1" width="126" height="126" rx="11" transform="matrix(-1 0 0 1 1477 465)" stroke="black" stroke-width="2"/>
<path d="M1445.81 484.044C1423.31 481.319 1406.69 481.319 1384.19 484.044C1376.78 484.94 1370.94 490.783 1370.04 498.191C1367.32 520.694 1367.32 537.306 1370.04 559.809C1370.94 567.217 1376.78 573.06 1384.19 573.956C1406.69 576.681 1423.31 576.681 1445.81 573.956C1453.22 573.06 1459.06 567.217 1459.96 559.809C1462.68 537.306 1462.68 520.694 1459.96 498.191C1459.06 490.783 1453.22 484.94 1445.81 484.044Z" stroke="black" stroke-width="2"/>
<rect x="-1" y="1" width="126" height="126" rx="11" transform="matrix(-1 0 0 1 1477 189)" stroke="black" stroke-width="2"/>
<path d="M1445.81 208.044C1423.31 205.319 1406.69 205.319 1384.19 208.044C1376.78 208.94 1370.94 214.783 1370.04 222.191C1367.32 244.694 1367.32 261.306 1370.04 283.809C1370.94 291.217 1376.78 297.06 1384.19 297.956C1406.69 300.681 1423.31 300.681 1445.81 297.956C1453.22 297.06 1459.06 291.217 1459.96 283.809C1462.68 261.306 1462.68 244.694 1459.96 222.191C1459.06 214.783 1453.22 208.94 1445.81 208.044Z" stroke="black" stroke-width="2"/>
<rect x="-1" y="1" width="126" height="126" rx="11" transform="matrix(-1 0 0 1 1342 345)" stroke="black" stroke-width="2"/>
<path d="M1310.81 364.044C1288.31 361.319 1271.69 361.319 1249.19 364.044C1241.78 364.94 1235.94 370.783 1235.04 378.191C1232.32 400.694 1232.32 417.306 1235.04 439.809C1235.94 447.217 1241.78 453.06 1249.19 453.956C1271.69 456.681 1288.31 456.681 1310.81 453.956C1318.22 453.06 1324.06 447.217 1324.96 439.809C1327.68 417.306 1327.68 400.694 1324.96 378.191C1324.06 370.783 1318.22 364.94 1310.81 364.044Z" stroke="black" stroke-width="2"/>
<rect x="-1" y="1" width="126" height="126" rx="11" transform="matrix(-1 0 0 1 1342 483)" stroke="black" stroke-width="2"/>
<path d="M1310.81 502.044C1288.31 499.319 1271.69 499.319 1249.19 502.044C1241.78 502.94 1235.94 508.783 1235.04 516.191C1232.32 538.694 1232.32 555.306 1235.04 577.809C1235.94 585.217 1241.78 591.06 1249.19 591.956C1271.69 594.681 1288.31 594.681 1310.81 591.956C1318.22 591.06 1324.06 585.217 1324.96 577.809C1327.68 555.306 1327.68 538.694 1324.96 516.191C1324.06 508.783 1318.22 502.94 1310.81 502.044Z" stroke="black" stroke-width="2"/>
<rect x="-1" y="1" width="126" height="126" rx="11" transform="matrix(-1 0 0 1 1342 207)" stroke="black" stroke-width="2"/>
<path d="M1310.81 226.044C1288.31 223.319 1271.69 223.319 1249.19 226.044C1241.78 226.94 1235.94 232.783 1235.04 240.191C1232.32 262.694 1232.32 279.306 1235.04 301.809C1235.94 309.217 1241.78 315.06 1249.19 315.956C1271.69 318.681 1288.31 318.681 1310.81 315.956C1318.22 315.06 1324.06 309.217 1324.96 301.809C1327.68 279.306 1327.68 262.694 1324.96 240.191C1324.06 232.783 1318.22 226.94 1310.81 226.044Z" stroke="black" stroke-width="2"/>
<rect x="-1" y="1" width="126" height="126" rx="11" transform="matrix(-1 0 0 1 1207 363)" stroke="black" stroke-width="2"/>
<path d="M1175.81 382.044C1153.31 379.319 1136.69 379.319 1114.19 382.044C1106.78 382.94 1100.94 388.783 1100.04 396.191C1097.32 418.694 1097.32 435.306 1100.04 457.809C1100.94 465.217 1106.78 471.06 1114.19 471.956C1136.69 474.681 1153.31 474.681 1175.81 471.956C1183.22 471.06 1189.06 465.217 1189.96 457.809C1192.68 435.306 1192.68 418.694 1189.96 396.191C1189.06 388.783 1183.22 382.94 1175.81 382.044Z" stroke="black" stroke-width="2"/>
<rect x="-1" y="1" width="126" height="126" rx="11" transform="matrix(-1 0 0 1 1207 501)" stroke="black" stroke-width="2"/>
<path d="M1175.81 520.044C1153.31 517.319 1136.69 517.319 1114.19 520.044C1106.78 520.94 1100.94 526.783 1100.04 534.191C1097.32 556.694 1097.32 573.306 1100.04 595.809C1100.94 603.217 1106.78 609.06 1114.19 609.956C1136.69 612.681 1153.31 612.681 1175.81 609.956C1183.22 609.06 1189.06 603.217 1189.96 595.809C1192.68 573.306 1192.68 556.694 1189.96 534.191C1189.06 526.783 1183.22 520.94 1175.81 520.044Z" stroke="black" stroke-width="2"/>
<rect x="-1" y="1" width="126" height="126" rx="11" transform="matrix(-1 0 0 1 1207 225)" stroke="black" stroke-width="2"/>
<path d="M1175.81 244.044C1153.31 241.319 1136.69 241.319 1114.19 244.044C1106.78 244.94 1100.94 250.783 1100.04 258.191C1097.32 280.694 1097.32 297.306 1100.04 319.809C1100.94 327.217 1106.78 333.06 1114.19 333.956C1136.69 336.681 1153.31 336.681 1175.81 333.956C1183.22 333.06 1189.06 327.217 1189.96 319.809C1192.68 297.306 1192.68 280.694 1189.96 258.191C1189.06 250.783 1183.22 244.94 1175.81 244.044Z" stroke="black" stroke-width="2"/>
<path fill-rule="evenodd" clip-rule="evenodd" d="M1750 670H1533C1529.69 670 1527 672.686 1527 676V786C1527 789.314 1529.69 792 1533 792H1750C1753.31 792 1756 789.314 1756 786V759H1759V786C1759 790.971 1754.97 795 1750 795H1533C1528.03 795 1524 790.971 1524 786V676C1524 671.029 1528.03 667 1533 667H1750C1754.97 667 1759 671.029 1759 676V703H1756V676C1756 672.686 1753.31 670 1750 670Z" fill="black"/>
<rect x="-1.5" y="1.5" width="48" height="53" rx="2.5" transform="matrix(-1 0 0 1 1765 703)" stroke="black" stroke-width="3"/>
<circle r="2.5" transform="matrix(-1 0 0 1 1744 680)" stroke="black" stroke-width="3"/>
<circle r="2.5" transform="matrix(-1 0 0 1 1727 680)" stroke="black" stroke-width="3"/>
<circle r="2.5" transform="matrix(-1 0 0 1 1710 680)" stroke="black" stroke-width="3"/>
<circle r="2.5" transform="matrix(-1 0 0 1 1693 680)" stroke="black" stroke-width="3"/>
<circle r="2.5" transform="matrix(-1 0 0 1 1676 680)" stroke="black" stroke-width="3"/>
<circle r="2.5" transform="matrix(-1 0 0 1 1659 680)" stroke="black" stroke-width="3"/>
<circle r="2.5" transform="matrix(-1 0 0 1 1642 680)" stroke="black" stroke-width="3"/>
<circle r="2.5" transform="matrix(-1 0 0 1 1625 680)" stroke="black" stroke-width="3"/>
<circle r="2.5" transform="matrix(-1 0 0 1 1608 680)" stroke="black" stroke-width="3"/>
<circle r="2.5" transform="matrix(-1 0 0 1 1591 680)" stroke="black" stroke-width="3"/>
<circle r="2.5" transform="matrix(-1 0 0 1 1574 680)" stroke="black" stroke-width="3"/>
<circle r="2.5" transform="matrix(-1 0 0 1 1557 680)" stroke="black" stroke-width="3"/>
<circle r="2.5" transform="matrix(-1 0 0 1 1540 680)" stroke="black" stroke-width="3"/>
<circle r="2.5" transform="matrix(-1 0 0 1 1740 782)" stroke="black" stroke-width="3"/>
<circle r="2.5" transform="matrix(-1 0 0 1 1723 782)" stroke="black" stroke-width="3"/>
<circle r="2.5" transform="matrix(-1 0 0 1 1706 782)" stroke="black" stroke-width="3"/>
<circle r="2.5" transform="matrix(-1 0 0 1 1689 782)" stroke="black" stroke-width="3"/>
<circle r="2.5" transform="matrix(-1 0 0 1 1672 782)" stroke="black" stroke-width="3"/>
<circle r="2.5" transform="matrix(-1 0 0 1 1655 782)" stroke="black" stroke-width="3"/>
<circle r="2.5" transform="matrix(-1 0 0 1 1638 782)" stroke="black" stroke-width="3"/>
<circle r="2.5" transform="matrix(-1 0 0 1 1621 782)" stroke="black" stroke-width="3"/>
<circle r="2.5" transform="matrix(-1 0 0 1 1604 782)" stroke="black" stroke-width="3"/>
<circle r="2.5" transform="matrix(-1 0 0 1 1587 782)" stroke="black" stroke-width="3"/>
<circle r="2.5" transform="matrix(-1 0 0 1 1570 782)" stroke="black" stroke-width="3"/>
<circle r="2.5" transform="matrix(-1 0 0 1 1553 782)" stroke="black" stroke-width="3"/>
<circle r="2.5" transform="matrix(-1 0 0 1 1536 782)" stroke="black" stroke-width="3"/>
<path d="M1527 620H1597.36C1607.16 620 1615.11 627.947 1615.11 637.75C1615.11 647.553 1623.05 655.5 1632.86 655.5H1754C1763.94 655.5 1772 663.559 1772 673.5V800C1772 809.941 1763.94 818 1754 818H1527C1517.06 818 1509 809.941 1509 800V638C1509 628.059 1517.06 620 1527 620Z" stroke="black" stroke-width="3"/>
</svg>
