<svg width="2003" height="931" viewBox="0 0 2003 931" fill="none" xmlns="http://www.w3.org/2000/svg">
<path fill-rule="evenodd" clip-rule="evenodd" d="M204.042 154.633C224.334 132.1 255.49 117.239 299.043 116H900C906.753 116 913.779 119.424 919.178 124.822C924.576 130.221 928 137.247 928 144V684.983V684.993C927.752 728.003 912.915 759.117 888.931 779.528C876.388 790.202 861.247 798.029 844.205 803.077L842.049 806.81C894.429 792.46 930.612 752.867 931 685V144C931 128.536 915.464 113 900 113H299C210.5 115.5 171 173.5 171 241V782C171 797.464 186.536 813 202 813H793C802.547 813 811.828 812.385 820.765 811.144L816.478 808.669C808.888 809.558 801.047 810 793 810H202C195.247 810 188.221 806.576 182.822 801.178C177.424 795.779 174 788.753 174 782V241C174 207.816 183.707 177.214 204.042 154.633Z" fill="#0085FF"/>
<path d="M919.959 647.866L829.892 595.866C824.631 592.828 817.904 594.631 814.866 599.892L730.866 745.385C727.828 750.646 729.631 757.373 734.892 760.411L824.959 812.411C830.22 815.448 836.948 813.646 839.985 808.385L923.985 662.892C927.023 657.631 925.22 650.904 919.959 647.866Z" stroke="#0085FF" stroke-width="2"/>
<path d="M834.321 629.767C856.211 637.563 870.689 645.922 888.385 660.981C893.945 665.712 895.534 673.629 892.438 680.28C875.609 716.434 862.165 739.719 839.27 772.37C835.057 778.377 827.407 780.959 820.53 778.51C798.64 770.713 784.163 762.355 766.466 747.296C760.906 742.565 759.318 734.648 762.414 727.997C779.242 691.843 792.686 668.558 815.581 635.907C819.794 629.9 827.444 627.317 834.321 629.767Z" stroke="#0085FF" stroke-width="2"/>
<path d="M738.917 632.989L638.461 606.072C632.593 604.5 626.561 607.982 624.989 613.85L598.072 714.307C596.499 720.175 599.982 726.206 605.85 727.779L706.306 754.696C712.174 756.268 718.206 752.786 719.778 746.918L746.696 646.461C748.268 640.593 744.786 634.562 738.917 632.989Z" stroke="#0085FF" stroke-width="2"/>
<path d="M654.26 628.985C676.701 632.177 692.748 636.477 713.779 644.933C720.701 647.717 724.833 654.873 723.782 662.26C720.59 684.701 716.29 700.748 707.834 721.779C705.051 728.701 697.895 732.833 690.508 731.782C668.066 728.59 652.019 724.29 630.988 715.834C624.066 713.051 619.934 705.895 620.985 698.508C624.177 676.066 628.477 660.019 636.933 638.988C639.717 632.066 646.873 627.934 654.26 628.985Z" stroke="#0085FF" stroke-width="2"/>
<path d="M573 597H469C462.925 597 458 601.925 458 608V712C458 718.075 462.925 723 469 723H573C579.075 723 584 718.075 584 712V608C584 601.925 579.075 597 573 597Z" stroke="#0085FF" stroke-width="2"/>
<path d="M490.191 615.044C512.694 612.319 529.306 612.319 551.809 615.044C559.217 615.94 565.06 621.783 565.956 629.191C568.681 651.694 568.681 668.306 565.956 690.809C565.06 698.217 559.217 704.06 551.809 704.956C529.306 707.681 512.694 707.681 490.191 704.956C482.783 704.06 476.94 698.217 476.044 690.809C473.319 668.306 473.319 651.694 476.044 629.191C476.94 621.783 482.783 615.94 490.191 615.044Z" stroke="#0085FF" stroke-width="2"/>
<path d="M319 317H215C208.925 317 204 321.925 204 328V432C204 438.075 208.925 443 215 443H319C325.075 443 330 438.075 330 432V328C330 321.925 325.075 317 319 317Z" stroke="#0085FF" stroke-width="2"/>
<path d="M236.191 335.044C258.694 332.319 275.306 332.319 297.809 335.044C305.217 335.94 311.06 341.783 311.956 349.191C314.681 371.694 314.681 388.306 311.956 410.809C311.06 418.217 305.217 424.06 297.809 424.956C275.306 427.681 258.694 427.681 236.191 424.956C228.783 424.06 222.94 418.217 222.044 410.809C219.319 388.306 219.319 371.694 222.044 349.191C222.94 341.783 228.783 335.94 236.191 335.044Z" stroke="#0085FF" stroke-width="2"/>
<path d="M319 455H215C208.925 455 204 459.925 204 466V570C204 576.075 208.925 581 215 581H319C325.075 581 330 576.075 330 570V466C330 459.925 325.075 455 319 455Z" stroke="#0085FF" stroke-width="2"/>
<path d="M236.191 473.044C258.694 470.319 275.306 470.319 297.809 473.044C305.217 473.94 311.06 479.783 311.956 487.191C314.681 509.694 314.681 526.306 311.956 548.809C311.06 556.217 305.217 562.06 297.809 562.956C275.306 565.681 258.694 565.681 236.191 562.956C228.783 562.06 222.94 556.217 222.044 548.809C219.319 526.306 219.319 509.694 222.044 487.191C222.94 479.783 228.783 473.94 236.191 473.044Z" stroke="#0085FF" stroke-width="2"/>
<path d="M319 179H215C208.925 179 204 183.925 204 190V294C204 300.075 208.925 305 215 305H319C325.075 305 330 300.075 330 294V190C330 183.925 325.075 179 319 179Z" stroke="#0085FF" stroke-width="2"/>
<path d="M236.191 197.044C258.694 194.319 275.306 194.319 297.809 197.044C305.217 197.94 311.06 203.783 311.956 211.191C314.681 233.694 314.681 250.306 311.956 272.809C311.06 280.217 305.217 286.06 297.809 286.956C275.306 289.681 258.694 289.681 236.191 286.956C228.783 286.06 222.94 280.217 222.044 272.809C219.319 250.306 219.319 233.694 222.044 211.191C222.94 203.783 228.783 197.94 236.191 197.044Z" stroke="#0085FF" stroke-width="2"/>
<path d="M454 285H350C343.925 285 339 289.925 339 296V400C339 406.075 343.925 411 350 411H454C460.075 411 465 406.075 465 400V296C465 289.925 460.075 285 454 285Z" stroke="#0085FF" stroke-width="2"/>
<path d="M371.191 303.044C393.694 300.319 410.306 300.319 432.809 303.044C440.217 303.94 446.06 309.783 446.956 317.191C449.681 339.694 449.681 356.306 446.956 378.809C446.06 386.217 440.217 392.06 432.809 392.956C410.306 395.681 393.694 395.681 371.191 392.956C363.783 392.06 357.94 386.217 357.044 378.809C354.319 356.306 354.319 339.694 357.044 317.191C357.94 309.783 363.783 303.94 371.191 303.044Z" stroke="#0085FF" stroke-width="2"/>
<path d="M454 423H350C343.925 423 339 427.925 339 434V538C339 544.075 343.925 549 350 549H454C460.075 549 465 544.075 465 538V434C465 427.925 460.075 423 454 423Z" stroke="#0085FF" stroke-width="2"/>
<path d="M371.191 441.044C393.694 438.319 410.306 438.319 432.809 441.044C440.217 441.94 446.06 447.783 446.956 455.191C449.681 477.694 449.681 494.306 446.956 516.809C446.06 524.217 440.217 530.06 432.809 530.956C410.306 533.681 393.694 533.681 371.191 530.956C363.783 530.06 357.94 524.217 357.044 516.809C354.319 494.306 354.319 477.694 357.044 455.191C357.94 447.783 363.783 441.94 371.191 441.044Z" stroke="#0085FF" stroke-width="2"/>
<path d="M454 147H350C343.925 147 339 151.925 339 158V262C339 268.075 343.925 273 350 273H454C460.075 273 465 268.075 465 262V158C465 151.925 460.075 147 454 147Z" stroke="#0085FF" stroke-width="2"/>
<path d="M371.191 165.044C393.694 162.319 410.306 162.319 432.809 165.044C440.217 165.94 446.06 171.783 446.956 179.191C449.681 201.694 449.681 218.306 446.956 240.809C446.06 248.217 440.217 254.06 432.809 254.956C410.306 257.681 393.694 257.681 371.191 254.956C363.783 254.06 357.94 248.217 357.044 240.809C354.319 218.306 354.319 201.694 357.044 179.191C357.94 171.783 363.783 165.94 371.191 165.044Z" stroke="#0085FF" stroke-width="2"/>
<path d="M589 267H485C478.925 267 474 271.925 474 278V382C474 388.075 478.925 393 485 393H589C595.075 393 600 388.075 600 382V278C600 271.925 595.075 267 589 267Z" stroke="#0085FF" stroke-width="2"/>
<path d="M506.191 285.044C528.694 282.319 545.306 282.319 567.809 285.044C575.217 285.94 581.06 291.783 581.956 299.191C584.681 321.694 584.681 338.306 581.956 360.809C581.06 368.217 575.217 374.06 567.809 374.956C545.306 377.681 528.694 377.681 506.191 374.956C498.783 374.06 492.94 368.217 492.044 360.809C489.319 338.306 489.319 321.694 492.044 299.191C492.94 291.783 498.783 285.94 506.191 285.044Z" stroke="#0085FF" stroke-width="2"/>
<path d="M589 405H485C478.925 405 474 409.925 474 416V520C474 526.075 478.925 531 485 531H589C595.075 531 600 526.075 600 520V416C600 409.925 595.075 405 589 405Z" stroke="#0085FF" stroke-width="2"/>
<path d="M506.191 423.044C528.694 420.319 545.306 420.319 567.809 423.044C575.217 423.94 581.06 429.783 581.956 437.191C584.681 459.694 584.681 476.306 581.956 498.809C581.06 506.217 575.217 512.06 567.809 512.956C545.306 515.681 528.694 515.681 506.191 512.956C498.783 512.06 492.94 506.217 492.044 498.809C489.319 476.306 489.319 459.694 492.044 437.191C492.94 429.783 498.783 423.94 506.191 423.044Z" stroke="#0085FF" stroke-width="2"/>
<path d="M589 129H485C478.925 129 474 133.925 474 140V244C474 250.075 478.925 255 485 255H589C595.075 255 600 250.075 600 244V140C600 133.925 595.075 129 589 129Z" stroke="#0085FF" stroke-width="2"/>
<path d="M506.191 147.044C528.694 144.319 545.306 144.319 567.809 147.044C575.217 147.94 581.06 153.783 581.956 161.191C584.681 183.694 584.681 200.306 581.956 222.809C581.06 230.217 575.217 236.06 567.809 236.956C545.306 239.681 528.694 239.681 506.191 236.956C498.783 236.06 492.94 230.217 492.044 222.809C489.319 200.306 489.319 183.694 492.044 161.191C492.94 153.783 498.783 147.94 506.191 147.044Z" stroke="#0085FF" stroke-width="2"/>
<path d="M724 285H620C613.925 285 609 289.925 609 296V400C609 406.075 613.925 411 620 411H724C730.075 411 735 406.075 735 400V296C735 289.925 730.075 285 724 285Z" stroke="#0085FF" stroke-width="2"/>
<path d="M641.191 303.044C663.694 300.319 680.306 300.319 702.809 303.044C710.217 303.94 716.06 309.783 716.956 317.191C719.681 339.694 719.681 356.306 716.956 378.809C716.06 386.217 710.217 392.06 702.809 392.956C680.306 395.681 663.694 395.681 641.191 392.956C633.783 392.06 627.94 386.217 627.044 378.809C624.319 356.306 624.319 339.694 627.044 317.191C627.94 309.783 633.783 303.94 641.191 303.044Z" stroke="#0085FF" stroke-width="2"/>
<path d="M724 423H620C613.925 423 609 427.925 609 434V538C609 544.075 613.925 549 620 549H724C730.075 549 735 544.075 735 538V434C735 427.925 730.075 423 724 423Z" stroke="#0085FF" stroke-width="2"/>
<path d="M641.191 441.044C663.694 438.319 680.306 438.319 702.809 441.044C710.217 441.94 716.06 447.783 716.956 455.191C719.681 477.694 719.681 494.306 716.956 516.809C716.06 524.217 710.217 530.06 702.809 530.956C680.306 533.681 663.694 533.681 641.191 530.956C633.783 530.06 627.94 524.217 627.044 516.809C624.319 494.306 624.319 477.694 627.044 455.191C627.94 447.783 633.783 441.94 641.191 441.044Z" stroke="#0085FF" stroke-width="2"/>
<path d="M724 147H620C613.925 147 609 151.925 609 158V262C609 268.075 613.925 273 620 273H724C730.075 273 735 268.075 735 262V158C735 151.925 730.075 147 724 147Z" stroke="#0085FF" stroke-width="2"/>
<path d="M641.191 165.044C663.694 162.319 680.306 162.319 702.809 165.044C710.217 165.94 716.06 171.783 716.956 179.191C719.681 201.694 719.681 218.306 716.956 240.809C716.06 248.217 710.217 254.06 702.809 254.956C680.306 257.681 663.694 257.681 641.191 254.956C633.783 254.06 627.94 248.217 627.044 240.809C624.319 218.306 624.319 201.694 627.044 179.191C627.94 171.783 633.783 165.94 641.191 165.044Z" stroke="#0085FF" stroke-width="2"/>
<path d="M859 303H755C748.925 303 744 307.925 744 314V418C744 424.075 748.925 429 755 429H859C865.075 429 870 424.075 870 418V314C870 307.925 865.075 303 859 303Z" stroke="#0085FF" stroke-width="2"/>
<path d="M776.191 321.044C798.694 318.319 815.306 318.319 837.809 321.044C845.217 321.94 851.06 327.783 851.956 335.191C854.681 357.694 854.681 374.306 851.956 396.809C851.06 404.217 845.217 410.06 837.809 410.956C815.306 413.681 798.694 413.681 776.191 410.956C768.783 410.06 762.94 404.217 762.044 396.809C759.319 374.306 759.319 357.694 762.044 335.191C762.94 327.783 768.783 321.94 776.191 321.044Z" stroke="#0085FF" stroke-width="2"/>
<path d="M859 441H755C748.925 441 744 445.925 744 452V556C744 562.075 748.925 567 755 567H859C865.075 567 870 562.075 870 556V452C870 445.925 865.075 441 859 441Z" stroke="#0085FF" stroke-width="2"/>
<path d="M776.191 459.044C798.694 456.319 815.306 456.319 837.809 459.044C845.217 459.94 851.06 465.783 851.956 473.191C854.681 495.694 854.681 512.306 851.956 534.809C851.06 542.217 845.217 548.06 837.809 548.956C815.306 551.681 798.694 551.681 776.191 548.956C768.783 548.06 762.94 542.217 762.044 534.809C759.319 512.306 759.319 495.694 762.044 473.191C762.94 465.783 768.783 459.94 776.191 459.044Z" stroke="#0085FF" stroke-width="2"/>
<path d="M859 165H755C748.925 165 744 169.925 744 176V280C744 286.075 748.925 291 755 291H859C865.075 291 870 286.075 870 280V176C870 169.925 865.075 165 859 165Z" stroke="#0085FF" stroke-width="2"/>
<path d="M776.191 183.044C798.694 180.319 815.306 180.319 837.809 183.044C845.217 183.94 851.06 189.783 851.956 197.191C854.681 219.694 854.681 236.306 851.956 258.809C851.06 266.217 845.217 272.06 837.809 272.956C815.306 275.681 798.694 275.681 776.191 272.956C768.783 272.06 762.94 266.217 762.044 258.809C759.319 236.306 759.319 219.694 762.044 197.191C762.94 189.783 768.783 183.94 776.191 183.044Z" stroke="#0085FF" stroke-width="2"/>
<path fill-rule="evenodd" clip-rule="evenodd" d="M202 609H419C422.314 609 425 611.686 425 615V725C425 728.314 422.314 731 419 731H202C198.686 731 196 728.314 196 725V698H193V725C193 729.971 197.029 734 202 734H419C423.971 734 428 729.971 428 725V615C428 610.029 423.971 606 419 606H202C197.029 606 193 610.029 193 615V642H196V615C196 611.686 198.686 609 202 609Z" fill="#0085FF"/>
<path d="M231 643.5H188C186.619 643.5 185.5 644.619 185.5 646V694C185.5 695.381 186.619 696.5 188 696.5H231C232.381 696.5 233.5 695.381 233.5 694V646C233.5 644.619 232.381 643.5 231 643.5Z" stroke="#0085FF" stroke-width="3"/>
<path d="M208 621.5C209.381 621.5 210.5 620.381 210.5 619C210.5 617.619 209.381 616.5 208 616.5C206.619 616.5 205.5 617.619 205.5 619C205.5 620.381 206.619 621.5 208 621.5Z" stroke="#0085FF" stroke-width="3"/>
<path d="M225 621.5C226.381 621.5 227.5 620.381 227.5 619C227.5 617.619 226.381 616.5 225 616.5C223.619 616.5 222.5 617.619 222.5 619C222.5 620.381 223.619 621.5 225 621.5Z" stroke="#0085FF" stroke-width="3"/>
<path d="M242 621.5C243.381 621.5 244.5 620.381 244.5 619C244.5 617.619 243.381 616.5 242 616.5C240.619 616.5 239.5 617.619 239.5 619C239.5 620.381 240.619 621.5 242 621.5Z" stroke="#0085FF" stroke-width="3"/>
<path d="M259 621.5C260.381 621.5 261.5 620.381 261.5 619C261.5 617.619 260.381 616.5 259 616.5C257.619 616.5 256.5 617.619 256.5 619C256.5 620.381 257.619 621.5 259 621.5Z" stroke="#0085FF" stroke-width="3"/>
<path d="M276 621.5C277.381 621.5 278.5 620.381 278.5 619C278.5 617.619 277.381 616.5 276 616.5C274.619 616.5 273.5 617.619 273.5 619C273.5 620.381 274.619 621.5 276 621.5Z" stroke="#0085FF" stroke-width="3"/>
<path d="M293 621.5C294.381 621.5 295.5 620.381 295.5 619C295.5 617.619 294.381 616.5 293 616.5C291.619 616.5 290.5 617.619 290.5 619C290.5 620.381 291.619 621.5 293 621.5Z" stroke="#0085FF" stroke-width="3"/>
<path d="M310 621.5C311.381 621.5 312.5 620.381 312.5 619C312.5 617.619 311.381 616.5 310 616.5C308.619 616.5 307.5 617.619 307.5 619C307.5 620.381 308.619 621.5 310 621.5Z" stroke="#0085FF" stroke-width="3"/>
<path d="M327 621.5C328.381 621.5 329.5 620.381 329.5 619C329.5 617.619 328.381 616.5 327 616.5C325.619 616.5 324.5 617.619 324.5 619C324.5 620.381 325.619 621.5 327 621.5Z" stroke="#0085FF" stroke-width="3"/>
<path d="M344 621.5C345.381 621.5 346.5 620.381 346.5 619C346.5 617.619 345.381 616.5 344 616.5C342.619 616.5 341.5 617.619 341.5 619C341.5 620.381 342.619 621.5 344 621.5Z" stroke="#0085FF" stroke-width="3"/>
<path d="M361 621.5C362.381 621.5 363.5 620.381 363.5 619C363.5 617.619 362.381 616.5 361 616.5C359.619 616.5 358.5 617.619 358.5 619C358.5 620.381 359.619 621.5 361 621.5Z" stroke="#0085FF" stroke-width="3"/>
<path d="M378 621.5C379.381 621.5 380.5 620.381 380.5 619C380.5 617.619 379.381 616.5 378 616.5C376.619 616.5 375.5 617.619 375.5 619C375.5 620.381 376.619 621.5 378 621.5Z" stroke="#0085FF" stroke-width="3"/>
<path d="M395 621.5C396.381 621.5 397.5 620.381 397.5 619C397.5 617.619 396.381 616.5 395 616.5C393.619 616.5 392.5 617.619 392.5 619C392.5 620.381 393.619 621.5 395 621.5Z" stroke="#0085FF" stroke-width="3"/>
<path d="M412 621.5C413.381 621.5 414.5 620.381 414.5 619C414.5 617.619 413.381 616.5 412 616.5C410.619 616.5 409.5 617.619 409.5 619C409.5 620.381 410.619 621.5 412 621.5Z" stroke="#0085FF" stroke-width="3"/>
<path d="M212 723.5C213.381 723.5 214.5 722.381 214.5 721C214.5 719.619 213.381 718.5 212 718.5C210.619 718.5 209.5 719.619 209.5 721C209.5 722.381 210.619 723.5 212 723.5Z" stroke="#0085FF" stroke-width="3"/>
<path d="M229 723.5C230.381 723.5 231.5 722.381 231.5 721C231.5 719.619 230.381 718.5 229 718.5C227.619 718.5 226.5 719.619 226.5 721C226.5 722.381 227.619 723.5 229 723.5Z" stroke="#0085FF" stroke-width="3"/>
<path d="M246 723.5C247.381 723.5 248.5 722.381 248.5 721C248.5 719.619 247.381 718.5 246 718.5C244.619 718.5 243.5 719.619 243.5 721C243.5 722.381 244.619 723.5 246 723.5Z" stroke="#0085FF" stroke-width="3"/>
<path d="M263 723.5C264.381 723.5 265.5 722.381 265.5 721C265.5 719.619 264.381 718.5 263 718.5C261.619 718.5 260.5 719.619 260.5 721C260.5 722.381 261.619 723.5 263 723.5Z" stroke="#0085FF" stroke-width="3"/>
<path d="M280 723.5C281.381 723.5 282.5 722.381 282.5 721C282.5 719.619 281.381 718.5 280 718.5C278.619 718.5 277.5 719.619 277.5 721C277.5 722.381 278.619 723.5 280 723.5Z" stroke="#0085FF" stroke-width="3"/>
<path d="M297 723.5C298.381 723.5 299.5 722.381 299.5 721C299.5 719.619 298.381 718.5 297 718.5C295.619 718.5 294.5 719.619 294.5 721C294.5 722.381 295.619 723.5 297 723.5Z" stroke="#0085FF" stroke-width="3"/>
<path d="M314 723.5C315.381 723.5 316.5 722.381 316.5 721C316.5 719.619 315.381 718.5 314 718.5C312.619 718.5 311.5 719.619 311.5 721C311.5 722.381 312.619 723.5 314 723.5Z" stroke="#0085FF" stroke-width="3"/>
<path d="M331 723.5C332.381 723.5 333.5 722.381 333.5 721C333.5 719.619 332.381 718.5 331 718.5C329.619 718.5 328.5 719.619 328.5 721C328.5 722.381 329.619 723.5 331 723.5Z" stroke="#0085FF" stroke-width="3"/>
<path d="M348 723.5C349.381 723.5 350.5 722.381 350.5 721C350.5 719.619 349.381 718.5 348 718.5C346.619 718.5 345.5 719.619 345.5 721C345.5 722.381 346.619 723.5 348 723.5Z" stroke="#0085FF" stroke-width="3"/>
<path d="M365 723.5C366.381 723.5 367.5 722.381 367.5 721C367.5 719.619 366.381 718.5 365 718.5C363.619 718.5 362.5 719.619 362.5 721C362.5 722.381 363.619 723.5 365 723.5Z" stroke="#0085FF" stroke-width="3"/>
<path d="M382 723.5C383.381 723.5 384.5 722.381 384.5 721C384.5 719.619 383.381 718.5 382 718.5C380.619 718.5 379.5 719.619 379.5 721C379.5 722.381 380.619 723.5 382 723.5Z" stroke="#0085FF" stroke-width="3"/>
<path d="M399 723.5C400.381 723.5 401.5 722.381 401.5 721C401.5 719.619 400.381 718.5 399 718.5C397.619 718.5 396.5 719.619 396.5 721C396.5 722.381 397.619 723.5 399 723.5Z" stroke="#0085FF" stroke-width="3"/>
<path d="M416 723.5C417.381 723.5 418.5 722.381 418.5 721C418.5 719.619 417.381 718.5 416 718.5C414.619 718.5 413.5 719.619 413.5 721C413.5 722.381 414.619 723.5 416 723.5Z" stroke="#0085FF" stroke-width="3"/>
<path d="M425 559H354.645C344.842 559 336.895 566.947 336.895 576.75C336.895 586.553 328.948 594.5 319.145 594.5H198C188.059 594.5 180 602.559 180 612.5V739C180 748.941 188.059 757 198 757H425C434.941 757 443 748.941 443 739V577C443 567.059 434.941 559 425 559Z" stroke="#0085FF" stroke-width="3"/>
<path fill-rule="evenodd" clip-rule="evenodd" d="M1798.96 154.633C1778.67 132.1 1747.51 117.239 1703.96 116H1103C1096.25 116 1089.22 119.424 1083.82 124.822C1078.42 130.221 1075 137.247 1075 144V684.983V684.993C1075.25 728.003 1090.09 759.117 1114.07 779.528C1126.61 790.202 1141.75 798.029 1158.8 803.077L1160.95 806.81C1108.57 792.46 1072.39 752.867 1072 685V144C1072 128.536 1087.54 113 1103 113H1704C1792.5 115.5 1832 173.5 1832 241V782C1832 797.464 1816.46 813 1801 813H1210C1200.45 813 1191.17 812.385 1182.23 811.144L1186.52 808.669C1194.11 809.558 1201.95 810 1210 810H1801C1807.75 810 1814.78 806.576 1820.18 801.178C1825.58 795.779 1829 788.753 1829 782V241C1829 207.816 1819.29 177.214 1798.96 154.633Z" fill="#0085FF"/>
<path d="M1083.04 647.866L1173.1 595.866C1178.36 592.828 1185.09 594.631 1188.13 599.892L1272.13 745.384C1275.17 750.646 1273.36 757.373 1268.1 760.411L1178.04 812.411C1172.78 815.448 1166.05 813.646 1163.01 808.384L1079.01 662.892C1075.97 657.631 1077.78 650.904 1083.04 647.866Z" stroke="#0085FF" stroke-width="2"/>
<path d="M1168.68 629.767C1146.79 637.563 1132.31 645.922 1114.61 660.981C1109.05 665.712 1107.47 673.629 1110.56 680.28C1127.39 716.434 1140.83 739.719 1163.73 772.37C1167.94 778.377 1175.59 780.959 1182.47 778.51C1204.36 770.713 1218.84 762.355 1236.53 747.296C1242.09 742.565 1243.68 734.648 1240.59 727.997C1223.76 691.843 1210.31 668.558 1187.42 635.907C1183.21 629.9 1175.56 627.317 1168.68 629.767Z" stroke="#0085FF" stroke-width="2"/>
<path d="M1264.08 632.989L1364.53 606.072C1370.4 604.5 1376.43 607.982 1378.01 613.85L1404.92 714.307C1406.5 720.175 1403.01 726.206 1397.15 727.779L1296.69 754.696C1290.82 756.268 1284.79 752.786 1283.22 746.918L1256.3 646.461C1254.73 640.593 1258.21 634.562 1264.08 632.989Z" stroke="#0085FF" stroke-width="2"/>
<path d="M1348.74 628.985C1326.3 632.177 1310.25 636.477 1289.22 644.933C1282.3 647.717 1278.17 654.873 1279.22 662.26C1282.41 684.701 1286.71 700.748 1295.17 721.779C1297.95 728.701 1305.11 732.833 1312.49 731.782C1334.93 728.59 1350.98 724.29 1372.01 715.834C1378.93 713.051 1383.07 705.895 1382.01 698.508C1378.82 676.066 1374.52 660.019 1366.07 638.988C1363.28 632.066 1356.13 627.934 1348.74 628.985Z" stroke="#0085FF" stroke-width="2"/>
<path d="M1430 597H1534C1540.08 597 1545 601.925 1545 608V712C1545 718.075 1540.08 723 1534 723H1430C1423.92 723 1419 718.075 1419 712V608C1419 601.925 1423.92 597 1430 597Z" stroke="#0085FF" stroke-width="2"/>
<path d="M1512.81 615.044C1490.31 612.319 1473.69 612.319 1451.19 615.044C1443.78 615.94 1437.94 621.783 1437.04 629.191C1434.32 651.694 1434.32 668.306 1437.04 690.809C1437.94 698.217 1443.78 704.06 1451.19 704.956C1473.69 707.681 1490.31 707.681 1512.81 704.956C1520.22 704.06 1526.06 698.217 1526.96 690.809C1529.68 668.306 1529.68 651.694 1526.96 629.191C1526.06 621.783 1520.22 615.94 1512.81 615.044Z" stroke="#0085FF" stroke-width="2"/>
<path d="M1684 317H1788C1794.08 317 1799 321.925 1799 328V432C1799 438.075 1794.08 443 1788 443H1684C1677.92 443 1673 438.075 1673 432V328C1673 321.925 1677.92 317 1684 317Z" stroke="#0085FF" stroke-width="2"/>
<path d="M1766.81 335.044C1744.31 332.319 1727.69 332.319 1705.19 335.044C1697.78 335.94 1691.94 341.783 1691.04 349.191C1688.32 371.694 1688.32 388.306 1691.04 410.809C1691.94 418.217 1697.78 424.06 1705.19 424.956C1727.69 427.681 1744.31 427.681 1766.81 424.956C1774.22 424.06 1780.06 418.217 1780.96 410.809C1783.68 388.306 1783.68 371.694 1780.96 349.191C1780.06 341.783 1774.22 335.94 1766.81 335.044Z" stroke="#0085FF" stroke-width="2"/>
<path d="M1684 455H1788C1794.08 455 1799 459.925 1799 466V570C1799 576.075 1794.08 581 1788 581H1684C1677.92 581 1673 576.075 1673 570V466C1673 459.925 1677.92 455 1684 455Z" stroke="#0085FF" stroke-width="2"/>
<path d="M1766.81 473.044C1744.31 470.319 1727.69 470.319 1705.19 473.044C1697.78 473.94 1691.94 479.783 1691.04 487.191C1688.32 509.694 1688.32 526.306 1691.04 548.809C1691.94 556.217 1697.78 562.06 1705.19 562.956C1727.69 565.681 1744.31 565.681 1766.81 562.956C1774.22 562.06 1780.06 556.217 1780.96 548.809C1783.68 526.306 1783.68 509.694 1780.96 487.191C1780.06 479.783 1774.22 473.94 1766.81 473.044Z" stroke="#0085FF" stroke-width="2"/>
<path d="M1684 179H1788C1794.08 179 1799 183.925 1799 190V294C1799 300.075 1794.08 305 1788 305H1684C1677.92 305 1673 300.075 1673 294V190C1673 183.925 1677.92 179 1684 179Z" stroke="#0085FF" stroke-width="2"/>
<path d="M1766.81 197.044C1744.31 194.319 1727.69 194.319 1705.19 197.044C1697.78 197.94 1691.94 203.783 1691.04 211.191C1688.32 233.694 1688.32 250.306 1691.04 272.809C1691.94 280.217 1697.78 286.06 1705.19 286.956C1727.69 289.681 1744.31 289.681 1766.81 286.956C1774.22 286.06 1780.06 280.217 1780.96 272.809C1783.68 250.306 1783.68 233.694 1780.96 211.191C1780.06 203.783 1774.22 197.94 1766.81 197.044Z" stroke="#0085FF" stroke-width="2"/>
<path d="M1549 285H1653C1659.08 285 1664 289.925 1664 296V400C1664 406.075 1659.08 411 1653 411H1549C1542.92 411 1538 406.075 1538 400V296C1538 289.925 1542.92 285 1549 285Z" stroke="#0085FF" stroke-width="2"/>
<path d="M1631.81 303.044C1609.31 300.319 1592.69 300.319 1570.19 303.044C1562.78 303.94 1556.94 309.783 1556.04 317.191C1553.32 339.694 1553.32 356.306 1556.04 378.809C1556.94 386.217 1562.78 392.06 1570.19 392.956C1592.69 395.681 1609.31 395.681 1631.81 392.956C1639.22 392.06 1645.06 386.217 1645.96 378.809C1648.68 356.306 1648.68 339.694 1645.96 317.191C1645.06 309.783 1639.22 303.94 1631.81 303.044Z" stroke="#0085FF" stroke-width="2"/>
<path d="M1549 423H1653C1659.08 423 1664 427.925 1664 434V538C1664 544.075 1659.08 549 1653 549H1549C1542.92 549 1538 544.075 1538 538V434C1538 427.925 1542.92 423 1549 423Z" stroke="#0085FF" stroke-width="2"/>
<path d="M1631.81 441.044C1609.31 438.319 1592.69 438.319 1570.19 441.044C1562.78 441.94 1556.94 447.783 1556.04 455.191C1553.32 477.694 1553.32 494.306 1556.04 516.809C1556.94 524.217 1562.78 530.06 1570.19 530.956C1592.69 533.681 1609.31 533.681 1631.81 530.956C1639.22 530.06 1645.06 524.217 1645.96 516.809C1648.68 494.306 1648.68 477.694 1645.96 455.191C1645.06 447.783 1639.22 441.94 1631.81 441.044Z" stroke="#0085FF" stroke-width="2"/>
<path d="M1549 147H1653C1659.08 147 1664 151.925 1664 158V262C1664 268.075 1659.08 273 1653 273H1549C1542.92 273 1538 268.075 1538 262V158C1538 151.925 1542.92 147 1549 147Z" stroke="#0085FF" stroke-width="2"/>
<path d="M1631.81 165.044C1609.31 162.319 1592.69 162.319 1570.19 165.044C1562.78 165.94 1556.94 171.783 1556.04 179.191C1553.32 201.694 1553.32 218.306 1556.04 240.809C1556.94 248.217 1562.78 254.06 1570.19 254.956C1592.69 257.681 1609.31 257.681 1631.81 254.956C1639.22 254.06 1645.06 248.217 1645.96 240.809C1648.68 218.306 1648.68 201.694 1645.96 179.191C1645.06 171.783 1639.22 165.94 1631.81 165.044Z" stroke="#0085FF" stroke-width="2"/>
<path d="M1414 267H1518C1524.08 267 1529 271.925 1529 278V382C1529 388.075 1524.08 393 1518 393H1414C1407.92 393 1403 388.075 1403 382V278C1403 271.925 1407.92 267 1414 267Z" stroke="#0085FF" stroke-width="2"/>
<path d="M1496.81 285.044C1474.31 282.319 1457.69 282.319 1435.19 285.044C1427.78 285.94 1421.94 291.783 1421.04 299.191C1418.32 321.694 1418.32 338.306 1421.04 360.809C1421.94 368.217 1427.78 374.06 1435.19 374.956C1457.69 377.681 1474.31 377.681 1496.81 374.956C1504.22 374.06 1510.06 368.217 1510.96 360.809C1513.68 338.306 1513.68 321.694 1510.96 299.191C1510.06 291.783 1504.22 285.94 1496.81 285.044Z" stroke="#0085FF" stroke-width="2"/>
<path d="M1414 405H1518C1524.08 405 1529 409.925 1529 416V520C1529 526.075 1524.08 531 1518 531H1414C1407.92 531 1403 526.075 1403 520V416C1403 409.925 1407.92 405 1414 405Z" stroke="#0085FF" stroke-width="2"/>
<path d="M1496.81 423.044C1474.31 420.319 1457.69 420.319 1435.19 423.044C1427.78 423.94 1421.94 429.783 1421.04 437.191C1418.32 459.694 1418.32 476.306 1421.04 498.809C1421.94 506.217 1427.78 512.06 1435.19 512.956C1457.69 515.681 1474.31 515.681 1496.81 512.956C1504.22 512.06 1510.06 506.217 1510.96 498.809C1513.68 476.306 1513.68 459.694 1510.96 437.191C1510.06 429.783 1504.22 423.94 1496.81 423.044Z" stroke="#0085FF" stroke-width="2"/>
<path d="M1414 129H1518C1524.08 129 1529 133.925 1529 140V244C1529 250.075 1524.08 255 1518 255H1414C1407.92 255 1403 250.075 1403 244V140C1403 133.925 1407.92 129 1414 129Z" stroke="#0085FF" stroke-width="2"/>
<path d="M1496.81 147.044C1474.31 144.319 1457.69 144.319 1435.19 147.044C1427.78 147.94 1421.94 153.783 1421.04 161.191C1418.32 183.694 1418.32 200.306 1421.04 222.809C1421.94 230.217 1427.78 236.06 1435.19 236.956C1457.69 239.681 1474.31 239.681 1496.81 236.956C1504.22 236.06 1510.06 230.217 1510.96 222.809C1513.68 200.306 1513.68 183.694 1510.96 161.191C1510.06 153.783 1504.22 147.94 1496.81 147.044Z" stroke="#0085FF" stroke-width="2"/>
<path d="M1279 285H1383C1389.08 285 1394 289.925 1394 296V400C1394 406.075 1389.08 411 1383 411H1279C1272.92 411 1268 406.075 1268 400V296C1268 289.925 1272.92 285 1279 285Z" stroke="#0085FF" stroke-width="2"/>
<path d="M1361.81 303.044C1339.31 300.319 1322.69 300.319 1300.19 303.044C1292.78 303.94 1286.94 309.783 1286.04 317.191C1283.32 339.694 1283.32 356.306 1286.04 378.809C1286.94 386.217 1292.78 392.06 1300.19 392.956C1322.69 395.681 1339.31 395.681 1361.81 392.956C1369.22 392.06 1375.06 386.217 1375.96 378.809C1378.68 356.306 1378.68 339.694 1375.96 317.191C1375.06 309.783 1369.22 303.94 1361.81 303.044Z" stroke="#0085FF" stroke-width="2"/>
<path d="M1279 423H1383C1389.08 423 1394 427.925 1394 434V538C1394 544.075 1389.08 549 1383 549H1279C1272.92 549 1268 544.075 1268 538V434C1268 427.925 1272.92 423 1279 423Z" stroke="#0085FF" stroke-width="2"/>
<path d="M1361.81 441.044C1339.31 438.319 1322.69 438.319 1300.19 441.044C1292.78 441.94 1286.94 447.783 1286.04 455.191C1283.32 477.694 1283.32 494.306 1286.04 516.809C1286.94 524.217 1292.78 530.06 1300.19 530.956C1322.69 533.681 1339.31 533.681 1361.81 530.956C1369.22 530.06 1375.06 524.217 1375.96 516.809C1378.68 494.306 1378.68 477.694 1375.96 455.191C1375.06 447.783 1369.22 441.94 1361.81 441.044Z" stroke="#0085FF" stroke-width="2"/>
<path d="M1279 147H1383C1389.08 147 1394 151.925 1394 158V262C1394 268.075 1389.08 273 1383 273H1279C1272.92 273 1268 268.075 1268 262V158C1268 151.925 1272.92 147 1279 147Z" stroke="#0085FF" stroke-width="2"/>
<path d="M1361.81 165.044C1339.31 162.319 1322.69 162.319 1300.19 165.044C1292.78 165.94 1286.94 171.783 1286.04 179.191C1283.32 201.694 1283.32 218.306 1286.04 240.809C1286.94 248.217 1292.78 254.06 1300.19 254.956C1322.69 257.681 1339.31 257.681 1361.81 254.956C1369.22 254.06 1375.06 248.217 1375.96 240.809C1378.68 218.306 1378.68 201.694 1375.96 179.191C1375.06 171.783 1369.22 165.94 1361.81 165.044Z" stroke="#0085FF" stroke-width="2"/>
<path d="M1144 303H1248C1254.08 303 1259 307.925 1259 314V418C1259 424.075 1254.08 429 1248 429H1144C1137.92 429 1133 424.075 1133 418V314C1133 307.925 1137.92 303 1144 303Z" stroke="#0085FF" stroke-width="2"/>
<path d="M1226.81 321.044C1204.31 318.319 1187.69 318.319 1165.19 321.044C1157.78 321.94 1151.94 327.783 1151.04 335.191C1148.32 357.694 1148.32 374.306 1151.04 396.809C1151.94 404.217 1157.78 410.06 1165.19 410.956C1187.69 413.681 1204.31 413.681 1226.81 410.956C1234.22 410.06 1240.06 404.217 1240.96 396.809C1243.68 374.306 1243.68 357.694 1240.96 335.191C1240.06 327.783 1234.22 321.94 1226.81 321.044Z" stroke="#0085FF" stroke-width="2"/>
<path d="M1144 441H1248C1254.08 441 1259 445.925 1259 452V556C1259 562.075 1254.08 567 1248 567H1144C1137.92 567 1133 562.075 1133 556V452C1133 445.925 1137.92 441 1144 441Z" stroke="#0085FF" stroke-width="2"/>
<path d="M1226.81 459.044C1204.31 456.319 1187.69 456.319 1165.19 459.044C1157.78 459.94 1151.94 465.783 1151.04 473.191C1148.32 495.694 1148.32 512.306 1151.04 534.809C1151.94 542.217 1157.78 548.06 1165.19 548.956C1187.69 551.681 1204.31 551.681 1226.81 548.956C1234.22 548.06 1240.06 542.217 1240.96 534.809C1243.68 512.306 1243.68 495.694 1240.96 473.191C1240.06 465.783 1234.22 459.94 1226.81 459.044Z" stroke="#0085FF" stroke-width="2"/>
<path d="M1144 165H1248C1254.08 165 1259 169.925 1259 176V280C1259 286.075 1254.08 291 1248 291H1144C1137.92 291 1133 286.075 1133 280V176C1133 169.925 1137.92 165 1144 165Z" stroke="#0085FF" stroke-width="2"/>
<path d="M1226.81 183.044C1204.31 180.319 1187.69 180.319 1165.19 183.044C1157.78 183.94 1151.94 189.783 1151.04 197.191C1148.32 219.694 1148.32 236.306 1151.04 258.809C1151.94 266.217 1157.78 272.06 1165.19 272.956C1187.69 275.681 1204.31 275.681 1226.81 272.956C1234.22 272.06 1240.06 266.217 1240.96 258.809C1243.68 236.306 1243.68 219.694 1240.96 197.191C1240.06 189.783 1234.22 183.94 1226.81 183.044Z" stroke="#0085FF" stroke-width="2"/>
<path fill-rule="evenodd" clip-rule="evenodd" d="M1801 609H1584C1580.69 609 1578 611.686 1578 615V725C1578 728.314 1580.69 731 1584 731H1801C1804.31 731 1807 728.314 1807 725V698H1810V725C1810 729.971 1805.97 734 1801 734H1584C1579.03 734 1575 729.971 1575 725V615C1575 610.029 1579.03 606 1584 606H1801C1805.97 606 1810 610.029 1810 615V642H1807V615C1807 611.686 1804.31 609 1801 609Z" fill="#0085FF"/>
<path d="M1772 643.5H1815C1816.38 643.5 1817.5 644.619 1817.5 646V694C1817.5 695.381 1816.38 696.5 1815 696.5H1772C1770.62 696.5 1769.5 695.381 1769.5 694V646C1769.5 644.619 1770.62 643.5 1772 643.5Z" stroke="#0085FF" stroke-width="3"/>
<path d="M1795 621.5C1793.62 621.5 1792.5 620.381 1792.5 619C1792.5 617.619 1793.62 616.5 1795 616.5C1796.38 616.5 1797.5 617.619 1797.5 619C1797.5 620.381 1796.38 621.5 1795 621.5Z" stroke="#0085FF" stroke-width="3"/>
<path d="M1778 621.5C1776.62 621.5 1775.5 620.381 1775.5 619C1775.5 617.619 1776.62 616.5 1778 616.5C1779.38 616.5 1780.5 617.619 1780.5 619C1780.5 620.381 1779.38 621.5 1778 621.5Z" stroke="#0085FF" stroke-width="3"/>
<path d="M1761 621.5C1759.62 621.5 1758.5 620.381 1758.5 619C1758.5 617.619 1759.62 616.5 1761 616.5C1762.38 616.5 1763.5 617.619 1763.5 619C1763.5 620.381 1762.38 621.5 1761 621.5Z" stroke="#0085FF" stroke-width="3"/>
<path d="M1744 621.5C1742.62 621.5 1741.5 620.381 1741.5 619C1741.5 617.619 1742.62 616.5 1744 616.5C1745.38 616.5 1746.5 617.619 1746.5 619C1746.5 620.381 1745.38 621.5 1744 621.5Z" stroke="#0085FF" stroke-width="3"/>
<path d="M1727 621.5C1725.62 621.5 1724.5 620.381 1724.5 619C1724.5 617.619 1725.62 616.5 1727 616.5C1728.38 616.5 1729.5 617.619 1729.5 619C1729.5 620.381 1728.38 621.5 1727 621.5Z" stroke="#0085FF" stroke-width="3"/>
<path d="M1710 621.5C1708.62 621.5 1707.5 620.381 1707.5 619C1707.5 617.619 1708.62 616.5 1710 616.5C1711.38 616.5 1712.5 617.619 1712.5 619C1712.5 620.381 1711.38 621.5 1710 621.5Z" stroke="#0085FF" stroke-width="3"/>
<path d="M1693 621.5C1691.62 621.5 1690.5 620.381 1690.5 619C1690.5 617.619 1691.62 616.5 1693 616.5C1694.38 616.5 1695.5 617.619 1695.5 619C1695.5 620.381 1694.38 621.5 1693 621.5Z" stroke="#0085FF" stroke-width="3"/>
<path d="M1676 621.5C1674.62 621.5 1673.5 620.381 1673.5 619C1673.5 617.619 1674.62 616.5 1676 616.5C1677.38 616.5 1678.5 617.619 1678.5 619C1678.5 620.381 1677.38 621.5 1676 621.5Z" stroke="#0085FF" stroke-width="3"/>
<path d="M1659 621.5C1657.62 621.5 1656.5 620.381 1656.5 619C1656.5 617.619 1657.62 616.5 1659 616.5C1660.38 616.5 1661.5 617.619 1661.5 619C1661.5 620.381 1660.38 621.5 1659 621.5Z" stroke="#0085FF" stroke-width="3"/>
<path d="M1642 621.5C1640.62 621.5 1639.5 620.381 1639.5 619C1639.5 617.619 1640.62 616.5 1642 616.5C1643.38 616.5 1644.5 617.619 1644.5 619C1644.5 620.381 1643.38 621.5 1642 621.5Z" stroke="#0085FF" stroke-width="3"/>
<path d="M1625 621.5C1623.62 621.5 1622.5 620.381 1622.5 619C1622.5 617.619 1623.62 616.5 1625 616.5C1626.38 616.5 1627.5 617.619 1627.5 619C1627.5 620.381 1626.38 621.5 1625 621.5Z" stroke="#0085FF" stroke-width="3"/>
<path d="M1608 621.5C1606.62 621.5 1605.5 620.381 1605.5 619C1605.5 617.619 1606.62 616.5 1608 616.5C1609.38 616.5 1610.5 617.619 1610.5 619C1610.5 620.381 1609.38 621.5 1608 621.5Z" stroke="#0085FF" stroke-width="3"/>
<path d="M1591 621.5C1589.62 621.5 1588.5 620.381 1588.5 619C1588.5 617.619 1589.62 616.5 1591 616.5C1592.38 616.5 1593.5 617.619 1593.5 619C1593.5 620.381 1592.38 621.5 1591 621.5Z" stroke="#0085FF" stroke-width="3"/>
<path d="M1791 723.5C1789.62 723.5 1788.5 722.381 1788.5 721C1788.5 719.619 1789.62 718.5 1791 718.5C1792.38 718.5 1793.5 719.619 1793.5 721C1793.5 722.381 1792.38 723.5 1791 723.5Z" stroke="#0085FF" stroke-width="3"/>
<path d="M1774 723.5C1772.62 723.5 1771.5 722.381 1771.5 721C1771.5 719.619 1772.62 718.5 1774 718.5C1775.38 718.5 1776.5 719.619 1776.5 721C1776.5 722.381 1775.38 723.5 1774 723.5Z" stroke="#0085FF" stroke-width="3"/>
<path d="M1757 723.5C1755.62 723.5 1754.5 722.381 1754.5 721C1754.5 719.619 1755.62 718.5 1757 718.5C1758.38 718.5 1759.5 719.619 1759.5 721C1759.5 722.381 1758.38 723.5 1757 723.5Z" stroke="#0085FF" stroke-width="3"/>
<path d="M1740 723.5C1738.62 723.5 1737.5 722.381 1737.5 721C1737.5 719.619 1738.62 718.5 1740 718.5C1741.38 718.5 1742.5 719.619 1742.5 721C1742.5 722.381 1741.38 723.5 1740 723.5Z" stroke="#0085FF" stroke-width="3"/>
<path d="M1723 723.5C1721.62 723.5 1720.5 722.381 1720.5 721C1720.5 719.619 1721.62 718.5 1723 718.5C1724.38 718.5 1725.5 719.619 1725.5 721C1725.5 722.381 1724.38 723.5 1723 723.5Z" stroke="#0085FF" stroke-width="3"/>
<path d="M1706 723.5C1704.62 723.5 1703.5 722.381 1703.5 721C1703.5 719.619 1704.62 718.5 1706 718.5C1707.38 718.5 1708.5 719.619 1708.5 721C1708.5 722.381 1707.38 723.5 1706 723.5Z" stroke="#0085FF" stroke-width="3"/>
<path d="M1689 723.5C1687.62 723.5 1686.5 722.381 1686.5 721C1686.5 719.619 1687.62 718.5 1689 718.5C1690.38 718.5 1691.5 719.619 1691.5 721C1691.5 722.381 1690.38 723.5 1689 723.5Z" stroke="#0085FF" stroke-width="3"/>
<path d="M1672 723.5C1670.62 723.5 1669.5 722.381 1669.5 721C1669.5 719.619 1670.62 718.5 1672 718.5C1673.38 718.5 1674.5 719.619 1674.5 721C1674.5 722.381 1673.38 723.5 1672 723.5Z" stroke="#0085FF" stroke-width="3"/>
<path d="M1655 723.5C1653.62 723.5 1652.5 722.381 1652.5 721C1652.5 719.619 1653.62 718.5 1655 718.5C1656.38 718.5 1657.5 719.619 1657.5 721C1657.5 722.381 1656.38 723.5 1655 723.5Z" stroke="#0085FF" stroke-width="3"/>
<path d="M1638 723.5C1636.62 723.5 1635.5 722.381 1635.5 721C1635.5 719.619 1636.62 718.5 1638 718.5C1639.38 718.5 1640.5 719.619 1640.5 721C1640.5 722.381 1639.38 723.5 1638 723.5Z" stroke="#0085FF" stroke-width="3"/>
<path d="M1621 723.5C1619.62 723.5 1618.5 722.381 1618.5 721C1618.5 719.619 1619.62 718.5 1621 718.5C1622.38 718.5 1623.5 719.619 1623.5 721C1623.5 722.381 1622.38 723.5 1621 723.5Z" stroke="#0085FF" stroke-width="3"/>
<path d="M1604 723.5C1602.62 723.5 1601.5 722.381 1601.5 721C1601.5 719.619 1602.62 718.5 1604 718.5C1605.38 718.5 1606.5 719.619 1606.5 721C1606.5 722.381 1605.38 723.5 1604 723.5Z" stroke="#0085FF" stroke-width="3"/>
<path d="M1587 723.5C1585.62 723.5 1584.5 722.381 1584.5 721C1584.5 719.619 1585.62 718.5 1587 718.5C1588.38 718.5 1589.5 719.619 1589.5 721C1589.5 722.381 1588.38 723.5 1587 723.5Z" stroke="#0085FF" stroke-width="3"/>
<path d="M1578 559H1648.36C1658.16 559 1666.11 566.947 1666.11 576.75C1666.11 586.553 1674.05 594.5 1683.86 594.5H1805C1814.94 594.5 1823 602.559 1823 612.5V739C1823 748.941 1814.94 757 1805 757H1578C1568.06 757 1560 748.941 1560 739V577C1560 567.059 1568.06 559 1578 559Z" stroke="#0085FF" stroke-width="3"/>
</svg>
